<?xml version="1.0" encoding="utf-8" standalone="no"?>
<!DOCTYPE svg PUBLIC "-//W3C//DTD SVG 1.1//EN"
  "http://www.w3.org/Graphics/SVG/1.1/DTD/svg11.dtd">
<svg xmlns:xlink="http://www.w3.org/1999/xlink" width="800.895398pt" height="458.026406pt" viewBox="0 0 800.895398 458.026406" xmlns="http://www.w3.org/2000/svg" version="1.1">
 <metadata>
  <rdf:RDF xmlns:dc="http://purl.org/dc/elements/1.1/" xmlns:cc="http://creativecommons.org/ns#" xmlns:rdf="http://www.w3.org/1999/02/22-rdf-syntax-ns#">
   <cc:Work>
    <dc:type rdf:resource="http://purl.org/dc/dcmitype/StillImage"/>
    <dc:date>2025-09-14T16:05:39.645720</dc:date>
    <dc:format>image/svg+xml</dc:format>
    <dc:creator>
     <cc:Agent>
      <dc:title>Matplotlib v3.10.3, https://matplotlib.org/</dc:title>
     </cc:Agent>
    </dc:creator>
   </cc:Work>
  </rdf:RDF>
 </metadata>
 <defs>
  <style type="text/css">*{stroke-linejoin: round; stroke-linecap: butt}</style>
 </defs>
 <g id="figure_1">
  <g id="patch_1">
   <path d="M 0 458.026406 
L 800.895398 458.026406 
L 800.895398 0 
L 0 0 
z
" style="fill: #ffffff"/>
  </g>
  <g id="axes_1">
   <g id="patch_2">
    <path d="M 123.584375 381.757656 
L 775.614375 381.757656 
L 775.614375 18.597656 
L 123.584375 18.597656 
z
" style="fill: #ffffff"/>
   </g>
   <g id="matplotlib.axis_1">
    <g id="xtick_1">
     <g id="line2d_1">
      <path d="M 153.222102 381.757656 
L 153.222102 18.597656 
" clip-path="url(#p04a92f8c3e)" style="fill: none; stroke: #b0b0b0; stroke-width: 0.8; stroke-linecap: square"/>
     </g>
     <g id="line2d_2">
      <defs>
       <path id="m9b5c4aeabe" d="M 0 0 
L 0 3.5 
" style="stroke: #000000; stroke-width: 0.8"/>
      </defs>
      <g>
       <use xlink:href="#m9b5c4aeabe" x="153.222102" y="381.757656" style="stroke: #000000; stroke-width: 0.8"/>
      </g>
     </g>
     <g id="text_1">
      <!-- 0 -->
      <g transform="translate(143.678352 411.552969) scale(0.3 -0.3)">
       <defs>
        <path id="DejaVuSans-30" d="M 2034 4250 
Q 1547 4250 1301 3770 
Q 1056 3291 1056 2328 
Q 1056 1369 1301 889 
Q 1547 409 2034 409 
Q 2525 409 2770 889 
Q 3016 1369 3016 2328 
Q 3016 3291 2770 3770 
Q 2525 4250 2034 4250 
z
M 2034 4750 
Q 2819 4750 3233 4129 
Q 3647 3509 3647 2328 
Q 3647 1150 3233 529 
Q 2819 -91 2034 -91 
Q 1250 -91 836 529 
Q 422 1150 422 2328 
Q 422 3509 836 4129 
Q 1250 4750 2034 4750 
z
" transform="scale(0.015625)"/>
       </defs>
       <use xlink:href="#DejaVuSans-30"/>
      </g>
     </g>
    </g>
    <g id="xtick_2">
     <g id="line2d_3">
      <path d="M 271.773011 381.757656 
L 271.773011 18.597656 
" clip-path="url(#p04a92f8c3e)" style="fill: none; stroke: #b0b0b0; stroke-width: 0.8; stroke-linecap: square"/>
     </g>
     <g id="line2d_4">
      <g>
       <use xlink:href="#m9b5c4aeabe" x="271.773011" y="381.757656" style="stroke: #000000; stroke-width: 0.8"/>
      </g>
     </g>
     <g id="text_2">
      <!-- 3000 -->
      <g transform="translate(233.598011 411.552969) scale(0.3 -0.3)">
       <defs>
        <path id="DejaVuSans-33" d="M 2597 2516 
Q 3050 2419 3304 2112 
Q 3559 1806 3559 1356 
Q 3559 666 3084 287 
Q 2609 -91 1734 -91 
Q 1441 -91 1130 -33 
Q 819 25 488 141 
L 488 750 
Q 750 597 1062 519 
Q 1375 441 1716 441 
Q 2309 441 2620 675 
Q 2931 909 2931 1356 
Q 2931 1769 2642 2001 
Q 2353 2234 1838 2234 
L 1294 2234 
L 1294 2753 
L 1863 2753 
Q 2328 2753 2575 2939 
Q 2822 3125 2822 3475 
Q 2822 3834 2567 4026 
Q 2313 4219 1838 4219 
Q 1578 4219 1281 4162 
Q 984 4106 628 3988 
L 628 4550 
Q 988 4650 1302 4700 
Q 1616 4750 1894 4750 
Q 2613 4750 3031 4423 
Q 3450 4097 3450 3541 
Q 3450 3153 3228 2886 
Q 3006 2619 2597 2516 
z
" transform="scale(0.015625)"/>
       </defs>
       <use xlink:href="#DejaVuSans-33"/>
       <use xlink:href="#DejaVuSans-30" transform="translate(63.623047 0)"/>
       <use xlink:href="#DejaVuSans-30" transform="translate(127.246094 0)"/>
       <use xlink:href="#DejaVuSans-30" transform="translate(190.869141 0)"/>
      </g>
     </g>
    </g>
    <g id="xtick_3">
     <g id="line2d_5">
      <path d="M 390.32392 381.757656 
L 390.32392 18.597656 
" clip-path="url(#p04a92f8c3e)" style="fill: none; stroke: #b0b0b0; stroke-width: 0.8; stroke-linecap: square"/>
     </g>
     <g id="line2d_6">
      <g>
       <use xlink:href="#m9b5c4aeabe" x="390.32392" y="381.757656" style="stroke: #000000; stroke-width: 0.8"/>
      </g>
     </g>
     <g id="text_3">
      <!-- 6000 -->
      <g transform="translate(352.14892 411.552969) scale(0.3 -0.3)">
       <defs>
        <path id="DejaVuSans-36" d="M 2113 2584 
Q 1688 2584 1439 2293 
Q 1191 2003 1191 1497 
Q 1191 994 1439 701 
Q 1688 409 2113 409 
Q 2538 409 2786 701 
Q 3034 994 3034 1497 
Q 3034 2003 2786 2293 
Q 2538 2584 2113 2584 
z
M 3366 4563 
L 3366 3988 
Q 3128 4100 2886 4159 
Q 2644 4219 2406 4219 
Q 1781 4219 1451 3797 
Q 1122 3375 1075 2522 
Q 1259 2794 1537 2939 
Q 1816 3084 2150 3084 
Q 2853 3084 3261 2657 
Q 3669 2231 3669 1497 
Q 3669 778 3244 343 
Q 2819 -91 2113 -91 
Q 1303 -91 875 529 
Q 447 1150 447 2328 
Q 447 3434 972 4092 
Q 1497 4750 2381 4750 
Q 2619 4750 2861 4703 
Q 3103 4656 3366 4563 
z
" transform="scale(0.015625)"/>
       </defs>
       <use xlink:href="#DejaVuSans-36"/>
       <use xlink:href="#DejaVuSans-30" transform="translate(63.623047 0)"/>
       <use xlink:href="#DejaVuSans-30" transform="translate(127.246094 0)"/>
       <use xlink:href="#DejaVuSans-30" transform="translate(190.869141 0)"/>
      </g>
     </g>
    </g>
    <g id="xtick_4">
     <g id="line2d_7">
      <path d="M 508.87483 381.757656 
L 508.87483 18.597656 
" clip-path="url(#p04a92f8c3e)" style="fill: none; stroke: #b0b0b0; stroke-width: 0.8; stroke-linecap: square"/>
     </g>
     <g id="line2d_8">
      <g>
       <use xlink:href="#m9b5c4aeabe" x="508.87483" y="381.757656" style="stroke: #000000; stroke-width: 0.8"/>
      </g>
     </g>
     <g id="text_4">
      <!-- 9000 -->
      <g transform="translate(470.69983 411.552969) scale(0.3 -0.3)">
       <defs>
        <path id="DejaVuSans-39" d="M 703 97 
L 703 672 
Q 941 559 1184 500 
Q 1428 441 1663 441 
Q 2288 441 2617 861 
Q 2947 1281 2994 2138 
Q 2813 1869 2534 1725 
Q 2256 1581 1919 1581 
Q 1219 1581 811 2004 
Q 403 2428 403 3163 
Q 403 3881 828 4315 
Q 1253 4750 1959 4750 
Q 2769 4750 3195 4129 
Q 3622 3509 3622 2328 
Q 3622 1225 3098 567 
Q 2575 -91 1691 -91 
Q 1453 -91 1209 -44 
Q 966 3 703 97 
z
M 1959 2075 
Q 2384 2075 2632 2365 
Q 2881 2656 2881 3163 
Q 2881 3666 2632 3958 
Q 2384 4250 1959 4250 
Q 1534 4250 1286 3958 
Q 1038 3666 1038 3163 
Q 1038 2656 1286 2365 
Q 1534 2075 1959 2075 
z
" transform="scale(0.015625)"/>
       </defs>
       <use xlink:href="#DejaVuSans-39"/>
       <use xlink:href="#DejaVuSans-30" transform="translate(63.623047 0)"/>
       <use xlink:href="#DejaVuSans-30" transform="translate(127.246094 0)"/>
       <use xlink:href="#DejaVuSans-30" transform="translate(190.869141 0)"/>
      </g>
     </g>
    </g>
    <g id="xtick_5">
     <g id="line2d_9">
      <path d="M 627.425739 381.757656 
L 627.425739 18.597656 
" clip-path="url(#p04a92f8c3e)" style="fill: none; stroke: #b0b0b0; stroke-width: 0.8; stroke-linecap: square"/>
     </g>
     <g id="line2d_10">
      <g>
       <use xlink:href="#m9b5c4aeabe" x="627.425739" y="381.757656" style="stroke: #000000; stroke-width: 0.8"/>
      </g>
     </g>
     <g id="text_5">
      <!-- 12000 -->
      <g transform="translate(579.706989 411.552969) scale(0.3 -0.3)">
       <defs>
        <path id="DejaVuSans-31" d="M 794 531 
L 1825 531 
L 1825 4091 
L 703 3866 
L 703 4441 
L 1819 4666 
L 2450 4666 
L 2450 531 
L 3481 531 
L 3481 0 
L 794 0 
L 794 531 
z
" transform="scale(0.015625)"/>
        <path id="DejaVuSans-32" d="M 1228 531 
L 3431 531 
L 3431 0 
L 469 0 
L 469 531 
Q 828 903 1448 1529 
Q 2069 2156 2228 2338 
Q 2531 2678 2651 2914 
Q 2772 3150 2772 3378 
Q 2772 3750 2511 3984 
Q 2250 4219 1831 4219 
Q 1534 4219 1204 4116 
Q 875 4013 500 3803 
L 500 4441 
Q 881 4594 1212 4672 
Q 1544 4750 1819 4750 
Q 2544 4750 2975 4387 
Q 3406 4025 3406 3419 
Q 3406 3131 3298 2873 
Q 3191 2616 2906 2266 
Q 2828 2175 2409 1742 
Q 1991 1309 1228 531 
z
" transform="scale(0.015625)"/>
       </defs>
       <use xlink:href="#DejaVuSans-31"/>
       <use xlink:href="#DejaVuSans-32" transform="translate(63.623047 0)"/>
       <use xlink:href="#DejaVuSans-30" transform="translate(127.246094 0)"/>
       <use xlink:href="#DejaVuSans-30" transform="translate(190.869141 0)"/>
       <use xlink:href="#DejaVuSans-30" transform="translate(254.492188 0)"/>
      </g>
     </g>
    </g>
    <g id="xtick_6">
     <g id="line2d_11">
      <path d="M 745.976648 381.757656 
L 745.976648 18.597656 
" clip-path="url(#p04a92f8c3e)" style="fill: none; stroke: #b0b0b0; stroke-width: 0.8; stroke-linecap: square"/>
     </g>
     <g id="line2d_12">
      <g>
       <use xlink:href="#m9b5c4aeabe" x="745.976648" y="381.757656" style="stroke: #000000; stroke-width: 0.8"/>
      </g>
     </g>
     <g id="text_6">
      <!-- 15000 -->
      <g transform="translate(698.257898 411.552969) scale(0.3 -0.3)">
       <defs>
        <path id="DejaVuSans-35" d="M 691 4666 
L 3169 4666 
L 3169 4134 
L 1269 4134 
L 1269 2991 
Q 1406 3038 1543 3061 
Q 1681 3084 1819 3084 
Q 2600 3084 3056 2656 
Q 3513 2228 3513 1497 
Q 3513 744 3044 326 
Q 2575 -91 1722 -91 
Q 1428 -91 1123 -41 
Q 819 9 494 109 
L 494 744 
Q 775 591 1075 516 
Q 1375 441 1709 441 
Q 2250 441 2565 725 
Q 2881 1009 2881 1497 
Q 2881 1984 2565 2268 
Q 2250 2553 1709 2553 
Q 1456 2553 1204 2497 
Q 953 2441 691 2322 
L 691 4666 
z
" transform="scale(0.015625)"/>
       </defs>
       <use xlink:href="#DejaVuSans-31"/>
       <use xlink:href="#DejaVuSans-35" transform="translate(63.623047 0)"/>
       <use xlink:href="#DejaVuSans-30" transform="translate(127.246094 0)"/>
       <use xlink:href="#DejaVuSans-30" transform="translate(190.869141 0)"/>
       <use xlink:href="#DejaVuSans-30" transform="translate(254.492188 0)"/>
      </g>
     </g>
    </g>
    <g id="text_7">
     <!-- Time Step -->
     <g transform="translate(373.975937 444.587344) scale(0.3 -0.3)">
      <defs>
       <path id="DejaVuSans-54" d="M -19 4666 
L 3928 4666 
L 3928 4134 
L 2272 4134 
L 2272 0 
L 1638 0 
L 1638 4134 
L -19 4134 
L -19 4666 
z
" transform="scale(0.015625)"/>
       <path id="DejaVuSans-69" d="M 603 3500 
L 1178 3500 
L 1178 0 
L 603 0 
L 603 3500 
z
M 603 4863 
L 1178 4863 
L 1178 4134 
L 603 4134 
L 603 4863 
z
" transform="scale(0.015625)"/>
       <path id="DejaVuSans-6d" d="M 3328 2828 
Q 3544 3216 3844 3400 
Q 4144 3584 4550 3584 
Q 5097 3584 5394 3201 
Q 5691 2819 5691 2113 
L 5691 0 
L 5113 0 
L 5113 2094 
Q 5113 2597 4934 2840 
Q 4756 3084 4391 3084 
Q 3944 3084 3684 2787 
Q 3425 2491 3425 1978 
L 3425 0 
L 2847 0 
L 2847 2094 
Q 2847 2600 2669 2842 
Q 2491 3084 2119 3084 
Q 1678 3084 1418 2786 
Q 1159 2488 1159 1978 
L 1159 0 
L 581 0 
L 581 3500 
L 1159 3500 
L 1159 2956 
Q 1356 3278 1631 3431 
Q 1906 3584 2284 3584 
Q 2666 3584 2933 3390 
Q 3200 3197 3328 2828 
z
" transform="scale(0.015625)"/>
       <path id="DejaVuSans-65" d="M 3597 1894 
L 3597 1613 
L 953 1613 
Q 991 1019 1311 708 
Q 1631 397 2203 397 
Q 2534 397 2845 478 
Q 3156 559 3463 722 
L 3463 178 
Q 3153 47 2828 -22 
Q 2503 -91 2169 -91 
Q 1331 -91 842 396 
Q 353 884 353 1716 
Q 353 2575 817 3079 
Q 1281 3584 2069 3584 
Q 2775 3584 3186 3129 
Q 3597 2675 3597 1894 
z
M 3022 2063 
Q 3016 2534 2758 2815 
Q 2500 3097 2075 3097 
Q 1594 3097 1305 2825 
Q 1016 2553 972 2059 
L 3022 2063 
z
" transform="scale(0.015625)"/>
       <path id="DejaVuSans-20" transform="scale(0.015625)"/>
       <path id="DejaVuSans-53" d="M 3425 4513 
L 3425 3897 
Q 3066 4069 2747 4153 
Q 2428 4238 2131 4238 
Q 1616 4238 1336 4038 
Q 1056 3838 1056 3469 
Q 1056 3159 1242 3001 
Q 1428 2844 1947 2747 
L 2328 2669 
Q 3034 2534 3370 2195 
Q 3706 1856 3706 1288 
Q 3706 609 3251 259 
Q 2797 -91 1919 -91 
Q 1588 -91 1214 -16 
Q 841 59 441 206 
L 441 856 
Q 825 641 1194 531 
Q 1563 422 1919 422 
Q 2459 422 2753 634 
Q 3047 847 3047 1241 
Q 3047 1584 2836 1778 
Q 2625 1972 2144 2069 
L 1759 2144 
Q 1053 2284 737 2584 
Q 422 2884 422 3419 
Q 422 4038 858 4394 
Q 1294 4750 2059 4750 
Q 2388 4750 2728 4690 
Q 3069 4631 3425 4513 
z
" transform="scale(0.015625)"/>
       <path id="DejaVuSans-74" d="M 1172 4494 
L 1172 3500 
L 2356 3500 
L 2356 3053 
L 1172 3053 
L 1172 1153 
Q 1172 725 1289 603 
Q 1406 481 1766 481 
L 2356 481 
L 2356 0 
L 1766 0 
Q 1100 0 847 248 
Q 594 497 594 1153 
L 594 3053 
L 172 3053 
L 172 3500 
L 594 3500 
L 594 4494 
L 1172 4494 
z
" transform="scale(0.015625)"/>
       <path id="DejaVuSans-70" d="M 1159 525 
L 1159 -1331 
L 581 -1331 
L 581 3500 
L 1159 3500 
L 1159 2969 
Q 1341 3281 1617 3432 
Q 1894 3584 2278 3584 
Q 2916 3584 3314 3078 
Q 3713 2572 3713 1747 
Q 3713 922 3314 415 
Q 2916 -91 2278 -91 
Q 1894 -91 1617 61 
Q 1341 213 1159 525 
z
M 3116 1747 
Q 3116 2381 2855 2742 
Q 2594 3103 2138 3103 
Q 1681 3103 1420 2742 
Q 1159 2381 1159 1747 
Q 1159 1113 1420 752 
Q 1681 391 2138 391 
Q 2594 391 2855 752 
Q 3116 1113 3116 1747 
z
" transform="scale(0.015625)"/>
      </defs>
      <use xlink:href="#DejaVuSans-54"/>
      <use xlink:href="#DejaVuSans-69" transform="translate(57.958984 0)"/>
      <use xlink:href="#DejaVuSans-6d" transform="translate(85.742188 0)"/>
      <use xlink:href="#DejaVuSans-65" transform="translate(183.154297 0)"/>
      <use xlink:href="#DejaVuSans-20" transform="translate(244.677734 0)"/>
      <use xlink:href="#DejaVuSans-53" transform="translate(276.464844 0)"/>
      <use xlink:href="#DejaVuSans-74" transform="translate(339.941406 0)"/>
      <use xlink:href="#DejaVuSans-65" transform="translate(379.150391 0)"/>
      <use xlink:href="#DejaVuSans-70" transform="translate(440.673828 0)"/>
     </g>
    </g>
   </g>
   <g id="matplotlib.axis_2">
    <g id="ytick_1">
     <g id="line2d_13">
      <path d="M 123.584375 321.23099 
L 775.614375 321.23099 
" clip-path="url(#p04a92f8c3e)" style="fill: none; stroke: #b0b0b0; stroke-width: 0.8; stroke-linecap: square"/>
     </g>
     <g id="line2d_14">
      <defs>
       <path id="m4be4b5fa2b" d="M 0 0 
L -3.5 0 
" style="stroke: #000000; stroke-width: 0.8"/>
      </defs>
      <g>
       <use xlink:href="#m4be4b5fa2b" x="123.584375" y="321.23099" style="stroke: #000000; stroke-width: 0.8"/>
      </g>
     </g>
     <g id="text_8">
      <!-- 500 -->
      <g transform="translate(59.321875 332.628646) scale(0.3 -0.3)">
       <use xlink:href="#DejaVuSans-35"/>
       <use xlink:href="#DejaVuSans-30" transform="translate(63.623047 0)"/>
       <use xlink:href="#DejaVuSans-30" transform="translate(127.246094 0)"/>
      </g>
     </g>
    </g>
    <g id="ytick_2">
     <g id="line2d_15">
      <path d="M 123.584375 245.572656 
L 775.614375 245.572656 
" clip-path="url(#p04a92f8c3e)" style="fill: none; stroke: #b0b0b0; stroke-width: 0.8; stroke-linecap: square"/>
     </g>
     <g id="line2d_16">
      <g>
       <use xlink:href="#m4be4b5fa2b" x="123.584375" y="245.572656" style="stroke: #000000; stroke-width: 0.8"/>
      </g>
     </g>
     <g id="text_9">
      <!-- 1000 -->
      <g transform="translate(40.234375 256.970312) scale(0.3 -0.3)">
       <use xlink:href="#DejaVuSans-31"/>
       <use xlink:href="#DejaVuSans-30" transform="translate(63.623047 0)"/>
       <use xlink:href="#DejaVuSans-30" transform="translate(127.246094 0)"/>
       <use xlink:href="#DejaVuSans-30" transform="translate(190.869141 0)"/>
      </g>
     </g>
    </g>
    <g id="ytick_3">
     <g id="line2d_17">
      <path d="M 123.584375 169.914323 
L 775.614375 169.914323 
" clip-path="url(#p04a92f8c3e)" style="fill: none; stroke: #b0b0b0; stroke-width: 0.8; stroke-linecap: square"/>
     </g>
     <g id="line2d_18">
      <g>
       <use xlink:href="#m4be4b5fa2b" x="123.584375" y="169.914323" style="stroke: #000000; stroke-width: 0.8"/>
      </g>
     </g>
     <g id="text_10">
      <!-- 1500 -->
      <g transform="translate(40.234375 181.311979) scale(0.3 -0.3)">
       <use xlink:href="#DejaVuSans-31"/>
       <use xlink:href="#DejaVuSans-35" transform="translate(63.623047 0)"/>
       <use xlink:href="#DejaVuSans-30" transform="translate(127.246094 0)"/>
       <use xlink:href="#DejaVuSans-30" transform="translate(190.869141 0)"/>
      </g>
     </g>
    </g>
    <g id="ytick_4">
     <g id="line2d_19">
      <path d="M 123.584375 94.25599 
L 775.614375 94.25599 
" clip-path="url(#p04a92f8c3e)" style="fill: none; stroke: #b0b0b0; stroke-width: 0.8; stroke-linecap: square"/>
     </g>
     <g id="line2d_20">
      <g>
       <use xlink:href="#m4be4b5fa2b" x="123.584375" y="94.25599" style="stroke: #000000; stroke-width: 0.8"/>
      </g>
     </g>
     <g id="text_11">
      <!-- 2000 -->
      <g transform="translate(40.234375 105.653646) scale(0.3 -0.3)">
       <use xlink:href="#DejaVuSans-32"/>
       <use xlink:href="#DejaVuSans-30" transform="translate(63.623047 0)"/>
       <use xlink:href="#DejaVuSans-30" transform="translate(127.246094 0)"/>
       <use xlink:href="#DejaVuSans-30" transform="translate(190.869141 0)"/>
      </g>
     </g>
    </g>
    <g id="ytick_5">
     <g id="line2d_21">
      <path d="M 123.584375 18.597656 
L 775.614375 18.597656 
" clip-path="url(#p04a92f8c3e)" style="fill: none; stroke: #b0b0b0; stroke-width: 0.8; stroke-linecap: square"/>
     </g>
     <g id="line2d_22">
      <g>
       <use xlink:href="#m4be4b5fa2b" x="123.584375" y="18.597656" style="stroke: #000000; stroke-width: 0.8"/>
      </g>
     </g>
     <g id="text_12">
      <!-- 2500 -->
      <g transform="translate(40.234375 29.995312) scale(0.3 -0.3)">
       <use xlink:href="#DejaVuSans-32"/>
       <use xlink:href="#DejaVuSans-35" transform="translate(63.623047 0)"/>
       <use xlink:href="#DejaVuSans-30" transform="translate(127.246094 0)"/>
       <use xlink:href="#DejaVuSans-30" transform="translate(190.869141 0)"/>
      </g>
     </g>
    </g>
    <g id="text_13">
     <!-- Variance -->
     <g transform="translate(29.995312 264.977656) rotate(-90) scale(0.3 -0.3)">
      <defs>
       <path id="DejaVuSans-56" d="M 1831 0 
L 50 4666 
L 709 4666 
L 2188 738 
L 3669 4666 
L 4325 4666 
L 2547 0 
L 1831 0 
z
" transform="scale(0.015625)"/>
       <path id="DejaVuSans-61" d="M 2194 1759 
Q 1497 1759 1228 1600 
Q 959 1441 959 1056 
Q 959 750 1161 570 
Q 1363 391 1709 391 
Q 2188 391 2477 730 
Q 2766 1069 2766 1631 
L 2766 1759 
L 2194 1759 
z
M 3341 1997 
L 3341 0 
L 2766 0 
L 2766 531 
Q 2569 213 2275 61 
Q 1981 -91 1556 -91 
Q 1019 -91 701 211 
Q 384 513 384 1019 
Q 384 1609 779 1909 
Q 1175 2209 1959 2209 
L 2766 2209 
L 2766 2266 
Q 2766 2663 2505 2880 
Q 2244 3097 1772 3097 
Q 1472 3097 1187 3025 
Q 903 2953 641 2809 
L 641 3341 
Q 956 3463 1253 3523 
Q 1550 3584 1831 3584 
Q 2591 3584 2966 3190 
Q 3341 2797 3341 1997 
z
" transform="scale(0.015625)"/>
       <path id="DejaVuSans-72" d="M 2631 2963 
Q 2534 3019 2420 3045 
Q 2306 3072 2169 3072 
Q 1681 3072 1420 2755 
Q 1159 2438 1159 1844 
L 1159 0 
L 581 0 
L 581 3500 
L 1159 3500 
L 1159 2956 
Q 1341 3275 1631 3429 
Q 1922 3584 2338 3584 
Q 2397 3584 2469 3576 
Q 2541 3569 2628 3553 
L 2631 2963 
z
" transform="scale(0.015625)"/>
       <path id="DejaVuSans-6e" d="M 3513 2113 
L 3513 0 
L 2938 0 
L 2938 2094 
Q 2938 2591 2744 2837 
Q 2550 3084 2163 3084 
Q 1697 3084 1428 2787 
Q 1159 2491 1159 1978 
L 1159 0 
L 581 0 
L 581 3500 
L 1159 3500 
L 1159 2956 
Q 1366 3272 1645 3428 
Q 1925 3584 2291 3584 
Q 2894 3584 3203 3211 
Q 3513 2838 3513 2113 
z
" transform="scale(0.015625)"/>
       <path id="DejaVuSans-63" d="M 3122 3366 
L 3122 2828 
Q 2878 2963 2633 3030 
Q 2388 3097 2138 3097 
Q 1578 3097 1268 2742 
Q 959 2388 959 1747 
Q 959 1106 1268 751 
Q 1578 397 2138 397 
Q 2388 397 2633 464 
Q 2878 531 3122 666 
L 3122 134 
Q 2881 22 2623 -34 
Q 2366 -91 2075 -91 
Q 1284 -91 818 406 
Q 353 903 353 1747 
Q 353 2603 823 3093 
Q 1294 3584 2113 3584 
Q 2378 3584 2631 3529 
Q 2884 3475 3122 3366 
z
" transform="scale(0.015625)"/>
      </defs>
      <use xlink:href="#DejaVuSans-56"/>
      <use xlink:href="#DejaVuSans-61" transform="translate(60.658203 0)"/>
      <use xlink:href="#DejaVuSans-72" transform="translate(121.9375 0)"/>
      <use xlink:href="#DejaVuSans-69" transform="translate(163.050781 0)"/>
      <use xlink:href="#DejaVuSans-61" transform="translate(190.833984 0)"/>
      <use xlink:href="#DejaVuSans-6e" transform="translate(252.113281 0)"/>
      <use xlink:href="#DejaVuSans-63" transform="translate(315.492188 0)"/>
      <use xlink:href="#DejaVuSans-65" transform="translate(370.472656 0)"/>
     </g>
    </g>
   </g>
   <g id="line2d_23">
    <path d="M 153.222102 358.305785 
L 154.012442 356.67128 
L 154.802781 358.512375 
L 156.38346 364.651966 
L 157.173799 365.569598 
L 157.964139 366.726484 
L 159.544817 367.789114 
L 161.125496 366.166583 
L 161.915836 364.879269 
L 163.496514 361.050298 
L 165.077193 358.943451 
L 168.238551 352.69535 
L 169.81923 350.081176 
L 171.399908 346.166319 
L 172.190248 344.51182 
L 172.980587 342.035651 
L 173.770927 339.942636 
L 176.141945 331.387211 
L 179.303302 318.897953 
L 181.67432 312.074126 
L 186.416357 303.080188 
L 187.997036 301.332253 
L 189.577714 298.85491 
L 190.368054 298.36473 
L 191.158393 298.138032 
L 191.948733 297.762966 
L 192.739072 297.987518 
L 194.319751 297.801044 
L 195.90043 296.910479 
L 196.690769 296.813248 
L 198.271448 295.952749 
L 199.061787 294.944256 
L 204.594163 286.415151 
L 205.384502 285.570588 
L 206.174842 284.953808 
L 206.965181 283.890306 
L 207.75552 282.418118 
L 208.54586 281.381892 
L 210.126539 279.764168 
L 210.916878 278.445232 
L 211.707217 277.527758 
L 213.287896 274.922043 
L 214.078236 273.963941 
L 215.658914 272.942727 
L 216.449254 272.465606 
L 217.239593 272.202084 
L 219.610611 272.401089 
L 221.98163 273.227536 
L 222.771969 273.50304 
L 224.352648 273.660016 
L 225.142987 273.512338 
L 225.933327 272.657154 
L 226.723666 272.139602 
L 227.514005 271.934492 
L 228.304345 272.210861 
L 229.094684 272.005977 
L 229.885023 271.973924 
L 230.675363 272.081299 
L 232.256042 271.852877 
L 233.83672 271.290738 
L 235.417399 269.968713 
L 236.207739 269.629724 
L 236.998078 269.455586 
L 237.788417 268.722125 
L 238.578757 268.263682 
L 239.369096 267.382253 
L 240.159436 266.722997 
L 240.949775 266.472348 
L 243.320793 264.645551 
L 244.111133 264.039606 
L 244.901472 263.821271 
L 245.691811 263.862235 
L 246.482151 264.16999 
L 247.27249 263.948334 
L 248.06283 263.476602 
L 248.853169 263.252086 
L 249.643508 262.866838 
L 251.224187 261.547425 
L 252.014527 260.835523 
L 254.385545 259.748247 
L 255.175884 259.295441 
L 256.756563 257.416633 
L 257.546902 256.973274 
L 258.337242 256.398594 
L 260.70826 255.213405 
L 261.498599 254.96344 
L 262.288939 254.499626 
L 264.659957 252.551306 
L 265.450296 251.838629 
L 267.821314 249.047231 
L 268.611654 248.500371 
L 269.401993 248.163953 
L 270.982672 248.282065 
L 273.35369 249.14554 
L 275.724708 249.422794 
L 277.305387 249.687458 
L 278.886066 249.26006 
L 281.257084 247.052559 
L 282.047423 246.771031 
L 282.837763 246.743858 
L 284.418442 246.18688 
L 285.208781 246.154768 
L 286.78946 245.345697 
L 287.579799 245.130591 
L 289.160478 243.944219 
L 289.950817 243.562988 
L 290.741157 243.320724 
L 291.531496 242.850264 
L 292.321836 242.157227 
L 293.902514 240.543971 
L 294.692854 239.815391 
L 295.483193 239.474457 
L 297.063872 238.316154 
L 297.854211 238.229392 
L 298.644551 237.820916 
L 299.43489 237.762714 
L 300.22523 237.561908 
L 301.805908 236.207929 
L 302.596248 235.968041 
L 304.176927 235.101433 
L 304.967266 234.456451 
L 306.547945 233.426989 
L 307.338284 232.531193 
L 312.08032 225.37498 
L 314.451339 222.400694 
L 316.822357 218.21295 
L 317.612696 216.644117 
L 319.983714 213.294942 
L 320.774054 212.737015 
L 323.145072 209.020301 
L 324.725751 206.743337 
L 325.51609 205.933608 
L 326.30643 205.330012 
L 327.096769 205.120471 
L 327.887108 205.361671 
L 328.677448 205.286996 
L 330.258127 203.721344 
L 331.048466 202.85064 
L 332.629145 201.558624 
L 335.790502 200.270617 
L 336.580842 200.146591 
L 337.371181 200.139315 
L 338.95186 199.912742 
L 339.742199 199.579698 
L 340.532539 199.417651 
L 341.322878 199.8938 
L 342.113217 199.799967 
L 344.484236 198.638469 
L 345.274575 198.226159 
L 346.064914 197.367753 
L 347.645593 195.157398 
L 348.435933 194.556221 
L 351.59729 192.686088 
L 353.968308 189.358316 
L 357.920005 183.248363 
L 359.500684 181.433172 
L 361.871702 176.871738 
L 362.662042 176.394114 
L 363.452381 175.490134 
L 364.24272 174.909859 
L 366.613739 172.373976 
L 368.194417 170.214773 
L 368.984757 168.848431 
L 370.565436 166.765443 
L 371.355775 165.338189 
L 372.936454 163.499323 
L 374.517133 162.454783 
L 376.097811 162.765829 
L 377.67849 163.646396 
L 378.46883 163.433195 
L 380.839848 164.020031 
L 381.630187 163.476221 
L 382.420527 163.115391 
L 383.210866 162.500288 
L 384.791545 162.718509 
L 385.581884 163.11762 
L 388.743242 163.572856 
L 390.32392 164.054184 
L 391.11426 164.688918 
L 391.904599 165.656467 
L 392.694939 166.20174 
L 393.485278 166.889247 
L 394.275617 166.892611 
L 395.065957 166.018097 
L 396.646636 163.803744 
L 397.436975 163.1363 
L 398.227314 162.891523 
L 399.017654 162.273039 
L 399.807993 162.41221 
L 400.598333 162.333783 
L 401.388672 162.773857 
L 402.179011 162.631497 
L 402.969351 163.386082 
L 404.55003 163.981741 
L 405.340369 164.139557 
L 406.921048 166.0626 
L 408.501727 167.549922 
L 410.082405 169.111761 
L 410.872745 169.458774 
L 411.663084 169.48523 
L 412.453423 169.197874 
L 413.243763 168.488067 
L 414.034102 168.837356 
L 415.614781 170.421546 
L 416.40512 170.89986 
L 417.985799 170.899187 
L 418.776139 170.805982 
L 419.566478 170.418088 
L 420.356817 170.379916 
L 421.147157 170.228238 
L 422.727836 169.130052 
L 423.518175 168.021964 
L 425.098854 166.85591 
L 429.050551 161.691622 
L 429.84089 160.043109 
L 433.792587 156.306892 
L 436.953945 153.840472 
L 437.744284 153.582037 
L 438.534623 152.893781 
L 439.324963 151.875931 
L 440.905642 150.660175 
L 442.48632 150.332943 
L 443.27666 150.379435 
L 444.857339 149.378966 
L 445.647678 149.024012 
L 446.438017 148.975597 
L 447.228357 148.748884 
L 448.018696 149.323384 
L 448.809036 149.602992 
L 449.599375 150.09377 
L 450.389714 149.73715 
L 451.180054 149.538286 
L 451.970393 149.674035 
L 452.760733 149.681554 
L 453.551072 149.340717 
L 454.341411 148.6359 
L 455.92209 147.640057 
L 456.71243 146.959923 
L 457.502769 145.812036 
L 459.083448 144.645297 
L 459.873787 143.372581 
L 460.664127 142.381131 
L 461.454466 141.792851 
L 462.244805 141.050181 
L 463.035145 140.149357 
L 463.825484 139.488624 
L 465.406163 137.802148 
L 466.986842 135.256741 
L 467.777181 133.699196 
L 468.56752 132.580519 
L 470.938539 130.254375 
L 472.519217 128.704383 
L 473.309557 128.108114 
L 474.099896 128.146498 
L 474.890236 128.333575 
L 476.470914 129.042353 
L 478.051593 129.285442 
L 478.841933 129.308985 
L 479.632272 129.949877 
L 480.422611 130.214997 
L 481.212951 130.252458 
L 482.79363 130.979202 
L 483.583969 131.186814 
L 484.374308 131.595395 
L 485.164648 132.390662 
L 485.954987 132.921476 
L 487.535666 133.712464 
L 488.326005 134.338443 
L 489.116345 134.163627 
L 490.697023 135.398526 
L 492.277702 136.099575 
L 493.068042 136.226324 
L 493.858381 135.827294 
L 494.64872 135.186666 
L 495.43906 134.795528 
L 496.229399 134.660367 
L 497.019739 134.343341 
L 497.810078 134.382466 
L 498.600417 135.023602 
L 499.390757 135.405648 
L 500.971436 136.325169 
L 502.552114 135.807746 
L 503.342454 135.877056 
L 504.132793 136.244835 
L 504.923133 136.363357 
L 505.713472 136.940961 
L 506.503811 137.781416 
L 507.294151 138.341419 
L 508.08449 138.465598 
L 508.87483 138.773105 
L 510.455508 138.98279 
L 511.245848 139.287649 
L 512.826527 140.830708 
L 513.616866 141.126928 
L 514.407205 141.190806 
L 515.987884 140.188801 
L 516.778223 140.334146 
L 517.568563 139.909123 
L 518.358902 138.933619 
L 519.149242 137.038156 
L 520.72992 134.707169 
L 521.52026 134.005039 
L 522.310599 133.789792 
L 523.100939 132.901478 
L 523.891278 131.816306 
L 524.681617 131.122993 
L 525.471957 130.25932 
L 526.262296 128.895174 
L 527.052636 127.150306 
L 527.842975 126.117561 
L 528.633314 125.549188 
L 530.213993 124.205492 
L 531.004333 123.68672 
L 532.585011 122.162933 
L 533.375351 122.030863 
L 534.16569 121.669516 
L 534.95603 121.057656 
L 535.746369 119.836866 
L 536.536708 118.992121 
L 537.327048 118.330034 
L 538.117387 118.220551 
L 538.907727 119.348215 
L 539.698066 119.9372 
L 540.488405 120.799348 
L 541.278745 120.894158 
L 542.069084 120.828508 
L 543.649763 121.788393 
L 545.230442 122.24581 
L 546.81112 123.269699 
L 548.391799 123.232079 
L 550.762817 122.766727 
L 553.133836 120.849374 
L 553.924175 120.418707 
L 554.714514 120.506493 
L 555.504854 121.227914 
L 556.295193 121.621756 
L 557.085533 122.15548 
L 557.875872 122.173684 
L 558.666211 121.825655 
L 561.827569 118.875858 
L 563.408248 116.890513 
L 564.198587 115.614203 
L 565.779266 114.055912 
L 566.569605 113.839475 
L 568.150284 112.484931 
L 568.940623 111.794406 
L 570.521302 109.796703 
L 571.311642 109.184498 
L 573.68266 108.513382 
L 574.472999 107.69637 
L 575.263339 106.552159 
L 576.053678 105.79549 
L 577.634357 103.796583 
L 580.005375 99.94777 
L 581.586054 98.363176 
L 582.376393 98.076376 
L 583.957072 96.495032 
L 584.747411 95.988421 
L 587.908769 93.288847 
L 588.699108 92.383387 
L 590.279787 92.081467 
L 591.070127 91.582398 
L 591.860466 90.873798 
L 592.650805 89.757842 
L 593.441145 89.056332 
L 595.021823 89.555409 
L 596.602502 89.169966 
L 597.392842 89.258999 
L 598.97352 91.17207 
L 599.76386 91.533771 
L 600.554199 92.038324 
L 601.344539 92.703 
L 602.134878 92.904537 
L 603.715557 94.314194 
L 605.296236 95.161625 
L 608.457593 97.618221 
L 609.247933 97.966941 
L 610.038272 97.648147 
L 610.828611 97.88245 
L 611.618951 98.539382 
L 613.19963 101.491911 
L 616.360987 103.892309 
L 617.151327 104.70198 
L 618.732005 104.822285 
L 619.522345 105.203515 
L 621.103023 105.575038 
L 621.893363 105.783284 
L 622.683702 106.274422 
L 623.474042 106.910275 
L 624.264381 107.008763 
L 625.05472 107.221433 
L 626.635399 106.599633 
L 627.425739 106.590079 
L 629.006417 106.173686 
L 629.796757 106.619872 
L 630.587096 106.470935 
L 631.377436 105.875187 
L 632.958114 103.953016 
L 633.748454 103.505502 
L 634.538793 102.872243 
L 635.329133 101.50576 
L 636.119472 100.380789 
L 636.909811 98.661023 
L 637.700151 97.387061 
L 638.49049 96.448826 
L 639.28083 95.15889 
L 640.861508 93.62896 
L 641.651848 92.329565 
L 642.442187 90.355522 
L 643.232527 88.999605 
L 644.022866 88.105468 
L 647.184223 81.606093 
L 647.974563 79.916747 
L 648.764902 79.060941 
L 651.13592 75.719209 
L 653.506939 73.444209 
L 654.297278 73.127286 
L 655.087617 73.153462 
L 655.877957 73.392247 
L 656.668296 73.461255 
L 657.458636 73.725416 
L 658.248975 73.427583 
L 659.039314 73.549684 
L 659.829654 72.824733 
L 660.619993 71.728463 
L 662.991011 70.069591 
L 663.781351 68.505932 
L 664.57169 67.546039 
L 665.36203 66.833562 
L 666.152369 66.473387 
L 666.942708 66.56268 
L 667.733048 66.448202 
L 669.313727 64.972891 
L 670.104066 64.724757 
L 670.894405 64.139718 
L 672.475084 62.224682 
L 673.265423 61.781849 
L 674.055763 60.894695 
L 674.846102 60.416466 
L 675.636442 59.171406 
L 677.21712 57.613164 
L 678.797799 56.468987 
L 679.588139 56.480253 
L 680.378478 56.270421 
L 682.749496 56.392171 
L 684.330175 57.796227 
L 686.701193 58.816092 
L 687.491533 58.876419 
L 688.281872 58.704594 
L 689.072211 58.330121 
L 689.862551 58.493313 
L 690.65289 58.819638 
L 691.44323 59.386715 
L 692.233569 59.811045 
L 693.023908 59.87822 
L 694.604587 58.974833 
L 696.185266 59.646974 
L 696.975605 59.251363 
L 697.765945 58.989146 
L 698.556284 58.210342 
L 699.346623 56.922447 
L 700.136963 56.871602 
L 700.927302 56.141754 
L 701.717642 55.729926 
L 702.507981 54.543769 
L 703.29832 53.590195 
L 704.08866 52.925241 
L 705.669339 51.256303 
L 706.459678 50.74596 
L 707.250017 50.487132 
L 708.830696 50.542213 
L 710.411375 50.018781 
L 711.201714 49.249971 
L 711.992054 48.689957 
L 712.782393 48.834058 
L 713.572733 49.534722 
L 714.363072 50.055166 
L 715.153411 49.783819 
L 715.943751 49.775171 
L 716.73409 49.978732 
L 717.52443 49.771487 
L 718.314769 49.76805 
L 719.105108 50.290111 
L 719.895448 50.319845 
L 721.476127 50.93081 
L 723.056805 51.465227 
L 723.847145 51.355867 
L 726.218163 52.799213 
L 727.798842 54.354336 
L 728.589181 55.732951 
L 729.37952 56.614789 
L 730.16986 56.99016 
L 730.960199 58.032931 
L 731.750539 58.48846 
L 732.540878 57.769143 
L 733.331217 57.572409 
L 735.702236 55.897231 
L 736.492575 55.693705 
L 737.282914 56.050998 
L 738.073254 55.836246 
L 738.863593 55.200638 
L 739.653933 54.172044 
L 740.444272 53.78117 
L 742.024951 52.508848 
L 742.81529 52.099542 
L 743.60563 51.921716 
L 744.395969 51.27845 
L 745.186308 50.35513 
L 745.976648 48.829363 
L 745.976648 48.829363 
" clip-path="url(#p04a92f8c3e)" style="fill: none; stroke: #1f77b4; stroke-width: 1.5; stroke-linecap: square"/>
   </g>
   <g id="line2d_24">
    <path d="M 153.222102 351.625283 
L 154.012442 355.408188 
L 154.802781 354.989294 
L 155.59312 355.418855 
L 156.38346 356.690038 
L 157.173799 357.72828 
L 157.964139 358.054116 
L 158.754478 358.744118 
L 160.335157 359.603748 
L 161.125496 359.09429 
L 161.915836 358.395635 
L 162.706175 357.422284 
L 163.496514 355.679877 
L 165.077193 352.978237 
L 165.867533 351.721169 
L 166.657872 349.866583 
L 168.238551 347.022351 
L 169.02889 345.982643 
L 169.81923 344.667554 
L 172.190248 339.474203 
L 172.980587 337.331298 
L 173.770927 334.642793 
L 174.561266 332.532841 
L 176.141945 327.723767 
L 181.67432 307.286694 
L 182.46466 304.794257 
L 183.254999 303.078336 
L 185.626017 296.970235 
L 187.206696 294.376221 
L 187.997036 293.16674 
L 189.577714 289.926297 
L 190.368054 288.793742 
L 191.158393 287.946641 
L 192.739072 286.744732 
L 193.529411 286.506353 
L 194.319751 285.620345 
L 195.90043 284.549604 
L 197.481108 284.015378 
L 198.271448 284.054622 
L 199.061787 284.216852 
L 199.852127 284.073824 
L 201.432805 284.581221 
L 202.223145 284.539807 
L 203.013484 284.209831 
L 203.803823 284.125684 
L 204.594163 284.155359 
L 205.384502 283.831782 
L 206.174842 283.717442 
L 206.965181 282.650579 
L 209.336199 280.555771 
L 210.126539 280.275523 
L 210.916878 279.850335 
L 212.497557 278.349162 
L 214.078236 276.799306 
L 217.239593 273.794436 
L 218.820272 271.868709 
L 219.610611 270.648794 
L 221.19129 267.934923 
L 221.98163 266.850433 
L 222.771969 266.060829 
L 223.562308 264.799313 
L 224.352648 263.32389 
L 225.933327 261.226821 
L 226.723666 260.469699 
L 227.514005 259.894635 
L 228.304345 259.697201 
L 232.256042 257.343325 
L 234.62706 256.389105 
L 235.417399 255.826071 
L 239.369096 254.550001 
L 240.159436 254.421395 
L 240.949775 253.913586 
L 241.740114 253.618251 
L 242.530454 252.921266 
L 243.320793 252.898659 
L 244.111133 252.997692 
L 244.901472 252.92815 
L 247.27249 251.917883 
L 248.06283 250.946615 
L 248.853169 250.47771 
L 250.433848 248.748715 
L 252.014527 247.70063 
L 252.804866 246.873556 
L 255.175884 245.345922 
L 257.546902 243.352172 
L 258.337242 243.027456 
L 259.127581 242.993207 
L 263.079278 242.198754 
L 263.869617 241.790817 
L 264.659957 241.831803 
L 265.450296 241.52045 
L 266.240636 241.723267 
L 267.030975 241.5542 
L 267.821314 242.232589 
L 268.611654 242.609333 
L 270.192333 244.020308 
L 270.982672 244.177148 
L 273.35369 243.975601 
L 274.934369 243.370872 
L 275.724708 242.969581 
L 276.515048 242.737806 
L 277.305387 242.655282 
L 278.095727 242.120482 
L 278.886066 241.940414 
L 279.676405 242.113505 
L 282.047423 243.227752 
L 282.837763 243.487274 
L 285.99912 245.172379 
L 286.78946 245.462851 
L 287.579799 245.333131 
L 289.160478 244.483134 
L 289.950817 243.921723 
L 290.741157 243.561651 
L 291.531496 243.566373 
L 292.321836 243.785656 
L 293.112175 243.836829 
L 293.902514 244.005108 
L 294.692854 244.603778 
L 295.483193 245.031189 
L 297.063872 245.040863 
L 297.854211 245.179832 
L 298.644551 245.097098 
L 300.22523 244.630681 
L 301.015569 244.277375 
L 301.805908 244.092564 
L 302.596248 243.638716 
L 304.176927 243.105126 
L 304.967266 242.697194 
L 307.338284 242.25207 
L 308.128623 242.256377 
L 308.918963 241.930077 
L 309.709302 242.056804 
L 310.499642 241.940642 
L 312.87066 242.009122 
L 314.451339 241.049706 
L 315.241678 240.724523 
L 318.403036 240.039913 
L 319.983714 238.450996 
L 320.774054 237.548482 
L 321.564393 236.971041 
L 322.354733 235.77325 
L 323.935411 232.8685 
L 325.51609 230.22875 
L 327.096769 227.535809 
L 327.887108 226.330045 
L 328.677448 225.522197 
L 329.467787 224.484629 
L 331.048466 222.714528 
L 332.629145 220.664249 
L 334.209823 219.299583 
L 335.790502 217.786934 
L 337.371181 216.736904 
L 338.16152 216.163223 
L 338.95186 216.155297 
L 339.742199 216.341938 
L 341.322878 215.964589 
L 342.113217 216.194356 
L 343.693896 217.185993 
L 346.855254 219.727671 
L 347.645593 220.052257 
L 348.435933 219.908838 
L 350.016611 220.283182 
L 351.59729 219.244712 
L 352.38763 218.938829 
L 354.758648 218.643587 
L 355.548987 218.353631 
L 356.339327 217.709174 
L 358.710345 216.438989 
L 359.500684 215.907643 
L 360.291023 215.649512 
L 362.662042 214.137188 
L 363.452381 213.511452 
L 364.24272 212.604 
L 365.03306 211.972953 
L 365.823399 211.580225 
L 366.613739 210.89819 
L 367.404078 210.563822 
L 368.194417 210.859477 
L 368.984757 210.57528 
L 369.775096 210.140613 
L 370.565436 210.382515 
L 371.355775 210.460615 
L 372.146114 210.665668 
L 372.936454 210.556982 
L 373.726793 210.306551 
L 374.517133 210.289679 
L 375.307472 210.418804 
L 376.888151 211.021006 
L 377.67849 210.945837 
L 378.46883 210.700601 
L 379.259169 210.308431 
L 380.839848 209.924885 
L 381.630187 209.64142 
L 382.420527 209.604033 
L 384.001205 208.924232 
L 386.372223 207.331026 
L 387.952902 206.863123 
L 390.32392 205.473694 
L 391.11426 205.445265 
L 392.694939 204.664908 
L 393.485278 204.160788 
L 394.275617 203.458994 
L 395.065957 203.026913 
L 397.436975 201.105868 
L 399.807993 199.894571 
L 401.388672 199.739724 
L 402.179011 199.708048 
L 402.969351 199.559741 
L 403.75969 199.830225 
L 406.921048 199.344325 
L 407.711387 198.888649 
L 408.501727 198.855581 
L 409.292066 198.942692 
L 410.082405 198.516912 
L 410.872745 198.280669 
L 412.453423 198.207812 
L 413.243763 197.974296 
L 414.034102 197.538563 
L 414.824442 196.72934 
L 415.614781 195.745173 
L 419.566478 192.036218 
L 420.356817 190.992655 
L 421.147157 190.190792 
L 421.937496 189.075662 
L 422.727836 188.220158 
L 423.518175 187.136306 
L 424.308514 186.330102 
L 425.098854 185.842356 
L 425.889193 185.20439 
L 426.679533 184.292062 
L 428.260211 182.944341 
L 429.050551 182.458813 
L 429.84089 182.447131 
L 431.421569 181.617257 
L 432.211908 181.458948 
L 433.792587 181.808376 
L 434.582927 181.15498 
L 435.373266 181.246398 
L 436.953945 180.819785 
L 437.744284 180.875633 
L 438.534623 181.399048 
L 440.115302 180.689229 
L 440.905642 180.354686 
L 441.695981 179.899023 
L 442.48632 179.615432 
L 446.438017 179.547436 
L 448.018696 178.588145 
L 449.599375 177.412396 
L 450.389714 176.540243 
L 451.180054 175.484902 
L 451.970393 174.647842 
L 452.760733 174.00925 
L 453.551072 173.602052 
L 454.341411 173.749438 
L 455.131751 173.476778 
L 455.92209 173.510925 
L 457.502769 173.413874 
L 458.293108 172.698313 
L 459.873787 172.387373 
L 460.664127 172.652825 
L 462.244805 173.977204 
L 463.035145 173.972167 
L 463.825484 173.828636 
L 465.406163 172.714397 
L 466.196502 172.13048 
L 468.56752 171.09738 
L 469.35786 170.981031 
L 470.938539 171.169227 
L 471.728878 170.661185 
L 472.519217 169.954684 
L 473.309557 169.470579 
L 474.099896 169.24955 
L 476.470914 168.09801 
L 477.261254 167.491943 
L 478.051593 167.278064 
L 479.632272 167.244657 
L 481.212951 166.289711 
L 482.00329 165.461867 
L 482.79363 164.834384 
L 483.583969 164.371829 
L 484.374308 164.113516 
L 485.164648 164.041766 
L 485.954987 164.182846 
L 486.745327 164.499183 
L 487.535666 164.632321 
L 489.116345 164.471022 
L 489.906684 164.200848 
L 490.697023 163.549252 
L 491.487363 163.630695 
L 492.277702 163.587627 
L 493.068042 163.326024 
L 493.858381 163.447839 
L 494.64872 163.728808 
L 496.229399 163.079819 
L 497.019739 162.600715 
L 497.810078 162.526021 
L 503.342454 159.885347 
L 504.132793 159.681512 
L 504.923133 159.332028 
L 505.713472 158.344712 
L 506.503811 157.567959 
L 507.294151 157.098416 
L 508.08449 156.947072 
L 508.87483 156.143018 
L 509.665169 155.547325 
L 510.455508 155.228491 
L 511.245848 154.618123 
L 512.826527 152.631116 
L 513.616866 151.42569 
L 515.197545 148.184294 
L 515.987884 147.050331 
L 516.778223 146.116653 
L 517.568563 144.619829 
L 519.939581 141.799142 
L 521.52026 139.352139 
L 523.891278 136.415655 
L 524.681617 135.337731 
L 526.262296 133.897144 
L 527.842975 131.536913 
L 529.423654 129.764423 
L 530.213993 129.416005 
L 531.004333 128.397262 
L 531.794672 128.013256 
L 533.375351 127.972133 
L 534.16569 128.239887 
L 534.95603 128.813889 
L 535.746369 128.828057 
L 536.536708 128.376979 
L 537.327048 128.470903 
L 538.117387 128.089028 
L 538.907727 127.947159 
L 539.698066 128.200407 
L 540.488405 128.627531 
L 541.278745 128.754486 
L 542.069084 128.748412 
L 542.859423 128.473226 
L 543.649763 128.460544 
L 544.440102 128.333732 
L 545.230442 128.690687 
L 546.020781 128.871849 
L 546.81112 129.278385 
L 547.60146 129.487472 
L 548.391799 129.580631 
L 549.182139 129.898736 
L 549.972478 129.8552 
L 550.762817 130.239285 
L 551.553157 130.417372 
L 553.924175 129.337227 
L 555.504854 128.027054 
L 557.085533 127.055829 
L 557.875872 126.87742 
L 558.666211 126.144295 
L 560.24689 123.950976 
L 561.03723 123.445202 
L 561.827569 123.172512 
L 562.617908 123.095969 
L 564.198587 122.162271 
L 565.779266 121.548394 
L 567.359945 121.05892 
L 568.150284 121.062979 
L 570.521302 119.21577 
L 571.311642 119.089256 
L 572.101981 118.703961 
L 572.89232 117.875978 
L 573.68266 117.474831 
L 574.472999 117.47446 
L 576.053678 117.843932 
L 576.844017 117.755828 
L 577.634357 117.1691 
L 578.424696 116.734685 
L 579.215036 116.589198 
L 580.005375 116.635877 
L 580.795714 116.37307 
L 582.376393 115.134453 
L 583.957072 114.41788 
L 584.747411 113.585631 
L 588.699108 108.416882 
L 589.489448 107.794629 
L 590.279787 106.924323 
L 591.070127 105.873377 
L 592.650805 104.901782 
L 593.441145 104.492641 
L 594.231484 103.808851 
L 595.812163 101.946539 
L 596.602502 101.309547 
L 598.183181 101.057724 
L 598.97352 100.783187 
L 600.554199 99.276978 
L 601.344539 99.134901 
L 602.925217 97.853102 
L 604.505896 95.740292 
L 605.296236 95.001772 
L 606.086575 94.671131 
L 606.876914 94.140087 
L 608.457593 94.156048 
L 609.247933 93.567746 
L 610.038272 93.354759 
L 613.19963 91.957615 
L 614.780308 91.951566 
L 615.570648 92.191169 
L 616.360987 92.230996 
L 618.732005 91.701137 
L 620.312684 91.591757 
L 621.103023 90.968833 
L 621.893363 90.509827 
L 622.683702 90.516615 
L 624.264381 91.407895 
L 625.05472 91.6266 
L 625.84506 91.164667 
L 627.425739 90.553261 
L 628.216078 90.144914 
L 629.006417 90.779674 
L 629.796757 91.166604 
L 632.167775 91.586743 
L 633.748454 91.276733 
L 634.538793 91.131153 
L 636.909811 90.231717 
L 637.700151 89.633942 
L 638.49049 89.564048 
L 639.28083 89.034523 
L 640.071169 88.834534 
L 640.861508 88.963776 
L 642.442187 89.362617 
L 643.232527 89.115622 
L 644.022866 89.23498 
L 644.813205 89.593956 
L 645.603545 90.337192 
L 647.184223 91.180787 
L 647.974563 91.817879 
L 648.764902 91.65827 
L 651.13592 91.894655 
L 651.92626 91.715918 
L 652.716599 92.290736 
L 654.297278 92.377123 
L 655.877957 92.901733 
L 656.668296 92.848514 
L 658.248975 93.951118 
L 659.039314 94.999722 
L 659.829654 95.806031 
L 662.991011 97.61426 
L 663.781351 97.811609 
L 665.36203 97.552135 
L 666.152369 97.224668 
L 667.733048 95.821997 
L 668.523387 94.452683 
L 669.313727 93.514604 
L 670.894405 92.955882 
L 671.684745 92.509551 
L 672.475084 91.63542 
L 673.265423 91.238204 
L 674.846102 89.99064 
L 676.426781 89.574301 
L 678.00746 88.653784 
L 678.797799 88.166368 
L 679.588139 87.529736 
L 681.168817 86.927664 
L 681.959157 86.306192 
L 683.539836 86.003707 
L 685.910854 86.270326 
L 686.701193 86.67804 
L 687.491533 86.642423 
L 688.281872 87.389508 
L 689.072211 87.472663 
L 689.862551 87.067414 
L 693.814248 84.061519 
L 694.604587 83.615987 
L 695.394927 82.82038 
L 696.185266 82.238322 
L 696.975605 81.321561 
L 698.556284 77.545042 
L 702.507981 71.645597 
L 703.29832 70.218695 
L 705.669339 66.659998 
L 706.459678 65.358646 
L 708.040357 64.632069 
L 708.830696 63.667244 
L 710.411375 63.251384 
L 711.201714 63.464529 
L 711.992054 63.460637 
L 714.363072 62.689515 
L 715.153411 62.022782 
L 715.943751 61.531238 
L 716.73409 61.575439 
L 717.52443 62.091411 
L 718.314769 62.399761 
L 719.895448 61.729051 
L 720.685787 60.573404 
L 722.266466 58.634083 
L 723.847145 54.698705 
L 725.427823 50.867192 
L 726.218163 49.418159 
L 727.008502 47.32953 
L 727.798842 45.676787 
L 729.37952 43.02728 
L 732.540878 35.52791 
L 734.121557 32.550178 
L 734.911896 31.712798 
L 737.282914 27.696477 
L 738.863593 25.553941 
L 739.653933 24.462228 
L 742.024951 23.913009 
L 742.81529 24.335293 
L 743.60563 24.402975 
L 744.395969 24.276512 
L 745.186308 24.424648 
L 745.976648 24.067525 
L 745.976648 24.067525 
" clip-path="url(#p04a92f8c3e)" style="fill: none; stroke: #ff7f0e; stroke-width: 1.5; stroke-linecap: square"/>
   </g>
   <g id="line2d_25">
    <path d="M 153.222102 355.657649 
L 154.012442 362.517383 
L 155.59312 368.148352 
L 156.38346 366.893509 
L 157.173799 365.84841 
L 158.754478 364.516063 
L 159.544817 363.586118 
L 160.335157 362.836436 
L 162.706175 359.912583 
L 163.496514 357.626975 
L 164.286854 355.730122 
L 165.867533 350.444291 
L 168.238551 344.128317 
L 171.399908 337.844283 
L 172.190248 335.835694 
L 172.980587 333.10295 
L 174.561266 326.094122 
L 176.141945 318.264613 
L 177.722623 311.650732 
L 178.512963 308.387682 
L 182.46466 294.51508 
L 184.045339 290.452681 
L 185.626017 287.570845 
L 187.206696 284.565804 
L 187.997036 283.428622 
L 188.787375 281.948186 
L 189.577714 280.21654 
L 190.368054 279.106997 
L 191.158393 278.225786 
L 191.948733 277.803295 
L 193.529411 276.17795 
L 194.319751 275.634972 
L 195.11009 275.326814 
L 195.90043 275.517982 
L 196.690769 275.455549 
L 198.271448 275.020753 
L 199.061787 274.263412 
L 199.852127 273.333782 
L 201.432805 272.189423 
L 202.223145 271.954626 
L 203.013484 271.402204 
L 203.803823 271.002513 
L 205.384502 270.582395 
L 206.965181 270.012891 
L 207.75552 269.608047 
L 209.336199 269.354034 
L 210.126539 268.700505 
L 211.707217 267.915134 
L 212.497557 267.956677 
L 214.868575 267.61815 
L 215.658914 267.335046 
L 216.449254 267.352456 
L 217.239593 267.115153 
L 218.820272 266.006546 
L 219.610611 266.026865 
L 220.400951 266.32559 
L 222.771969 266.413472 
L 223.562308 266.393845 
L 225.933327 265.546665 
L 227.514005 264.502505 
L 228.304345 263.591854 
L 229.094684 262.858363 
L 232.256042 259.32587 
L 233.83672 257.905582 
L 234.62706 256.862479 
L 235.417399 255.629681 
L 237.788417 250.89094 
L 238.578757 250.101063 
L 240.159436 247.240924 
L 241.740114 244.330745 
L 244.111133 241.747223 
L 244.901472 240.791888 
L 245.691811 240.261296 
L 246.482151 240.272216 
L 247.27249 239.824078 
L 248.853169 239.46361 
L 249.643508 239.284584 
L 252.014527 239.918356 
L 252.804866 239.789981 
L 253.595205 239.489748 
L 254.385545 239.344597 
L 255.175884 239.380465 
L 255.966223 239.837515 
L 256.756563 240.02464 
L 257.546902 240.624518 
L 258.337242 240.543862 
L 259.127581 240.779807 
L 260.70826 240.837493 
L 261.498599 241.085611 
L 262.288939 240.676275 
L 263.869617 240.247002 
L 264.659957 240.240142 
L 265.450296 239.906115 
L 266.240636 239.70327 
L 267.030975 239.709297 
L 267.821314 239.434482 
L 269.401993 239.312563 
L 270.192333 238.694152 
L 270.982672 237.727428 
L 272.563351 237.638658 
L 273.35369 237.703726 
L 274.14403 237.97757 
L 274.934369 238.011633 
L 275.724708 237.889545 
L 277.305387 237.327472 
L 278.886066 237.532623 
L 280.466745 238.208813 
L 281.257084 238.008371 
L 282.047423 238.148545 
L 282.837763 238.098124 
L 283.628102 237.909375 
L 284.418442 238.026092 
L 285.99912 237.914174 
L 286.78946 237.669644 
L 289.160478 237.681003 
L 293.112175 237.384305 
L 293.902514 236.942827 
L 294.692854 236.686195 
L 295.483193 236.202609 
L 297.063872 236.181324 
L 297.854211 236.012066 
L 299.43489 235.247567 
L 301.015569 235.103968 
L 301.805908 235.058412 
L 303.386587 234.640838 
L 304.967266 233.710102 
L 305.757605 233.246598 
L 306.547945 232.913941 
L 308.918963 231.476058 
L 310.499642 231.480665 
L 311.289981 231.379248 
L 312.87066 230.843999 
L 313.660999 230.711229 
L 315.241678 230.969587 
L 316.032017 231.362985 
L 316.822357 231.585178 
L 318.403036 231.49994 
L 319.193375 231.200899 
L 319.983714 230.641245 
L 320.774054 230.414479 
L 322.354733 229.75803 
L 323.145072 229.631392 
L 323.935411 229.744005 
L 324.725751 229.690087 
L 326.30643 230.310247 
L 327.096769 230.259039 
L 327.887108 229.905979 
L 328.677448 230.060832 
L 330.258127 229.98736 
L 331.048466 229.652064 
L 331.838805 229.838958 
L 334.209823 229.621686 
L 335.000163 229.202035 
L 335.790502 228.596992 
L 336.580842 228.39138 
L 338.16152 228.65407 
L 339.742199 228.709597 
L 340.532539 229.048745 
L 342.113217 228.913 
L 342.903557 229.011493 
L 343.693896 228.912966 
L 344.484236 228.997186 
L 346.064914 227.485749 
L 347.645593 226.783733 
L 348.435933 226.081867 
L 350.016611 224.191587 
L 350.806951 223.583764 
L 351.59729 222.587563 
L 355.548987 219.146831 
L 357.129666 217.145796 
L 358.710345 215.179401 
L 359.500684 214.31784 
L 360.291023 213.020379 
L 361.081363 212.509332 
L 362.662042 211.044087 
L 363.452381 210.11458 
L 364.24272 208.895162 
L 366.613739 206.527717 
L 367.404078 205.824672 
L 368.194417 205.405523 
L 369.775096 204.162654 
L 372.146114 201.475566 
L 372.936454 201.028742 
L 373.726793 200.363475 
L 374.517133 200.252463 
L 376.097811 199.553717 
L 376.888151 199.313752 
L 377.67849 199.200083 
L 378.46883 198.707604 
L 379.259169 198.423421 
L 380.049508 198.289069 
L 381.630187 197.238759 
L 382.420527 196.844959 
L 383.210866 196.197396 
L 384.791545 196.408781 
L 387.162563 197.052158 
L 390.32392 197.482913 
L 393.485278 197.753205 
L 394.275617 197.397016 
L 395.065957 197.238904 
L 395.856296 197.24784 
L 397.436975 197.067705 
L 398.227314 197.21533 
L 399.017654 197.110772 
L 400.598333 197.450416 
L 401.388672 198.111068 
L 402.179011 198.297715 
L 402.969351 199.016768 
L 403.75969 199.366518 
L 404.55003 199.459522 
L 405.340369 199.409704 
L 406.921048 199.061978 
L 408.501727 199.027745 
L 409.292066 198.497349 
L 410.872745 198.311195 
L 411.663084 198.055756 
L 412.453423 197.982115 
L 413.243763 198.097778 
L 414.034102 197.872401 
L 414.824442 198.02911 
L 416.40512 197.15328 
L 417.19546 196.319297 
L 419.566478 193.31697 
L 420.356817 192.453674 
L 421.147157 191.039151 
L 422.727836 189.477267 
L 423.518175 188.707086 
L 425.098854 187.483694 
L 427.469872 185.280204 
L 428.260211 184.174368 
L 429.050551 184.057494 
L 429.84089 183.622975 
L 430.63123 183.344742 
L 431.421569 183.36314 
L 432.211908 182.961758 
L 433.002248 182.395852 
L 433.792587 182.625197 
L 434.582927 182.335369 
L 436.163605 181.982356 
L 436.953945 182.515046 
L 437.744284 183.280227 
L 438.534623 184.287292 
L 439.324963 184.890485 
L 440.115302 185.163765 
L 440.905642 185.682978 
L 441.695981 185.850861 
L 442.48632 185.504836 
L 443.27666 185.409006 
L 444.066999 185.471589 
L 444.857339 185.689698 
L 446.438017 187.322941 
L 447.228357 187.863704 
L 448.018696 188.586257 
L 449.599375 188.891914 
L 450.389714 188.802525 
L 451.180054 188.857944 
L 452.760733 188.603172 
L 453.551072 188.275629 
L 454.341411 187.774998 
L 455.131751 187.5121 
L 455.92209 186.927564 
L 456.71243 186.164107 
L 459.873787 182.353766 
L 460.664127 181.566005 
L 461.454466 180.942224 
L 462.244805 180.507375 
L 463.825484 179.244391 
L 464.615823 178.444315 
L 465.406163 177.248297 
L 466.196502 175.833613 
L 467.777181 174.619938 
L 469.35786 173.608413 
L 470.148199 173.129134 
L 470.938539 172.482475 
L 471.728878 172.001001 
L 474.099896 169.801033 
L 474.890236 169.051682 
L 475.680575 168.778459 
L 476.470914 168.348636 
L 477.261254 168.162961 
L 478.051593 167.817533 
L 479.632272 167.391429 
L 481.212951 166.593887 
L 482.00329 166.600142 
L 482.79363 166.379293 
L 485.164648 166.292634 
L 485.954987 166.636751 
L 487.535666 166.628466 
L 488.326005 166.475344 
L 489.116345 166.480446 
L 489.906684 166.733509 
L 490.697023 167.257985 
L 491.487363 167.542108 
L 493.068042 168.994187 
L 493.858381 169.364926 
L 495.43906 170.699597 
L 496.229399 171.486687 
L 497.810078 171.77948 
L 498.600417 172.213797 
L 499.390757 172.148983 
L 500.181096 172.421844 
L 501.761775 172.120084 
L 502.552114 172.357602 
L 503.342454 172.478695 
L 504.923133 172.562296 
L 506.503811 172.680704 
L 507.294151 172.903518 
L 508.87483 173.871199 
L 509.665169 174.036309 
L 510.455508 173.878265 
L 512.036187 173.863122 
L 512.826527 173.663274 
L 513.616866 173.825464 
L 514.407205 173.759702 
L 515.197545 173.306887 
L 515.987884 173.080795 
L 516.778223 173.640397 
L 517.568563 173.834748 
L 518.358902 173.510381 
L 520.72992 173.960411 
L 521.52026 173.841315 
L 522.310599 174.000344 
L 523.100939 173.910186 
L 526.262296 174.56265 
L 527.052636 174.542699 
L 527.842975 174.367383 
L 532.585011 172.122521 
L 535.746369 172.602603 
L 536.536708 172.527602 
L 537.327048 172.826822 
L 538.907727 173.803536 
L 539.698066 174.244388 
L 540.488405 175.231838 
L 541.278745 175.970863 
L 542.859423 176.012014 
L 543.649763 175.580564 
L 546.020781 174.955671 
L 547.60146 174.551763 
L 548.391799 174.56206 
L 549.182139 174.398054 
L 549.972478 173.992997 
L 550.762817 173.84162 
L 551.553157 173.313126 
L 552.343496 172.127743 
L 553.133836 170.670986 
L 553.924175 169.8078 
L 554.714514 169.245565 
L 556.295193 167.287679 
L 558.666211 164.707668 
L 561.03723 161.641707 
L 562.617908 160.347144 
L 564.988927 159.770223 
L 566.569605 159.581686 
L 568.150284 160.067884 
L 568.940623 160.784332 
L 569.730963 161.297219 
L 570.521302 161.365773 
L 571.311642 162.210311 
L 572.101981 163.712935 
L 572.89232 165.551249 
L 573.68266 166.687476 
L 574.472999 167.206717 
L 576.053678 169.238378 
L 577.634357 170.4812 
L 579.215036 172.558651 
L 580.005375 173.773076 
L 580.795714 174.546992 
L 582.376393 175.246265 
L 584.747411 174.907038 
L 586.32809 174.376063 
L 587.11843 173.799344 
L 588.699108 172.151812 
L 589.489448 171.719481 
L 591.070127 171.111991 
L 591.860466 170.610786 
L 592.650805 169.753192 
L 593.441145 169.117073 
L 596.602502 167.719323 
L 597.392842 167.564095 
L 599.76386 166.243154 
L 600.554199 165.945026 
L 601.344539 165.981964 
L 602.134878 166.395085 
L 602.925217 167.097453 
L 603.715557 167.288006 
L 604.505896 167.660364 
L 606.086575 167.684067 
L 606.876914 167.733896 
L 607.667254 168.244342 
L 608.457593 168.553954 
L 610.828611 168.520391 
L 611.618951 168.658017 
L 612.40929 168.988135 
L 616.360987 171.468504 
L 617.941666 171.913765 
L 618.732005 172.10942 
L 619.522345 172.157013 
L 622.683702 171.728097 
L 623.474042 171.522813 
L 625.05472 170.672926 
L 626.635399 170.64975 
L 627.425739 169.994971 
L 631.377436 165.019529 
L 632.958114 162.387791 
L 634.538793 158.920765 
L 635.329133 156.857645 
L 636.909811 153.725826 
L 638.49049 151.281962 
L 639.28083 149.768621 
L 640.861508 147.702757 
L 642.442187 144.686177 
L 643.232527 143.531584 
L 645.603545 141.031363 
L 646.393884 139.908602 
L 647.184223 139.093318 
L 647.974563 138.728701 
L 650.345581 138.371823 
L 651.13592 138.538501 
L 652.716599 137.961984 
L 653.506939 138.135608 
L 654.297278 138.483151 
L 655.087617 139.309012 
L 656.668296 140.04138 
L 657.458636 140.169096 
L 658.248975 139.95408 
L 659.039314 140.37551 
L 659.829654 140.547927 
L 660.619993 140.589302 
L 662.991011 141.314394 
L 665.36203 141.42841 
L 666.152369 141.730373 
L 666.942708 141.863764 
L 667.733048 141.838616 
L 670.104066 142.539091 
L 670.894405 142.157228 
L 673.265423 143.087085 
L 674.055763 143.066829 
L 674.846102 142.573798 
L 675.636442 142.409464 
L 676.426781 141.965673 
L 677.21712 141.923037 
L 678.00746 142.313121 
L 678.797799 142.343128 
L 679.588139 142.194064 
L 681.959157 142.905129 
L 684.330175 143.27432 
L 685.120514 143.666485 
L 686.701193 143.195239 
L 687.491533 143.551627 
L 688.281872 143.504253 
L 689.862551 142.936998 
L 690.65289 143.041761 
L 691.44323 142.735394 
L 693.814248 139.900568 
L 696.185266 137.905642 
L 700.136963 132.294667 
L 700.927302 130.494303 
L 702.507981 128.530423 
L 703.29832 128.015837 
L 704.08866 127.676974 
L 704.878999 127.058555 
L 705.669339 126.81629 
L 706.459678 126.432944 
L 708.040357 125.186097 
L 708.830696 124.318044 
L 711.201714 122.763576 
L 713.572733 122.841203 
L 714.363072 122.457049 
L 715.153411 122.335991 
L 718.314769 122.781127 
L 719.105108 122.810647 
L 719.895448 123.218505 
L 720.685787 123.857089 
L 721.476127 124.035324 
L 722.266466 123.938059 
L 723.056805 123.593088 
L 724.637484 122.463936 
L 725.427823 121.209471 
L 727.008502 119.428914 
L 728.589181 118.103352 
L 729.37952 117.144225 
L 730.960199 115.930831 
L 732.540878 114.851049 
L 733.331217 114.178772 
L 734.121557 113.781891 
L 735.702236 112.374948 
L 738.863593 110.198147 
L 739.653933 109.385643 
L 740.444272 108.788304 
L 741.234611 108.508621 
L 743.60563 107.20249 
L 744.395969 107.108713 
L 745.186308 107.68797 
L 745.976648 108.020031 
L 745.976648 108.020031 
" clip-path="url(#p04a92f8c3e)" style="fill: none; stroke: #2ca02c; stroke-width: 1.5; stroke-linecap: square"/>
   </g>
   <g id="line2d_26">
    <path d="M 153.222102 362.235209 
L 154.012442 364.938876 
L 154.802781 366.007753 
L 155.59312 368.250567 
L 156.38346 369.279693 
L 157.173799 369.402573 
L 158.754478 369.321487 
L 159.544817 369.589707 
L 160.335157 369.375062 
L 161.125496 369.309993 
L 162.706175 367.912997 
L 164.286854 366.762878 
L 165.867533 363.652985 
L 167.448211 361.272181 
L 168.238551 360.477652 
L 169.02889 359.056314 
L 169.81923 358.17035 
L 170.609569 356.849662 
L 172.190248 355.08651 
L 172.980587 353.841867 
L 180.093642 338.103396 
L 181.67432 335.071569 
L 184.045339 331.343787 
L 184.835678 330.489333 
L 185.626017 330.059514 
L 187.206696 328.523564 
L 187.997036 327.360757 
L 188.787375 326.697576 
L 189.577714 325.695121 
L 190.368054 325.154531 
L 191.158393 324.112612 
L 192.739072 322.512735 
L 193.529411 322.169727 
L 194.319751 322.021335 
L 195.90043 320.90499 
L 196.690769 320.11923 
L 198.271448 318.074248 
L 199.061787 316.911815 
L 199.852127 316.002772 
L 200.642466 314.844412 
L 201.432805 314.113366 
L 202.223145 313.202911 
L 203.803823 310.590088 
L 204.594163 309.74414 
L 205.384502 309.10871 
L 206.174842 308.27334 
L 207.75552 307.075565 
L 208.54586 306.510254 
L 209.336199 306.310858 
L 210.126539 305.939982 
L 210.916878 305.734725 
L 212.497557 304.843848 
L 215.658914 300.387048 
L 216.449254 299.72331 
L 218.820272 298.617837 
L 220.400951 297.707568 
L 222.771969 295.417876 
L 223.562308 295.331315 
L 224.352648 295.115229 
L 225.142987 294.394173 
L 228.304345 293.442038 
L 229.094684 292.85666 
L 229.885023 292.643706 
L 232.256042 291.407961 
L 233.046381 291.188319 
L 233.83672 291.362069 
L 234.62706 291.393175 
L 235.417399 291.63791 
L 236.998078 291.324657 
L 240.949775 291.103149 
L 241.740114 291.19278 
L 242.530454 291.578831 
L 243.320793 291.70318 
L 244.901472 290.834885 
L 245.691811 290.49498 
L 247.27249 289.610543 
L 248.06283 289.289859 
L 248.853169 288.792607 
L 249.643508 288.034335 
L 251.224187 287.753268 
L 252.014527 287.906717 
L 252.804866 288.394669 
L 259.91792 288.231546 
L 261.498599 289.146504 
L 263.079278 289.281384 
L 265.450296 290.790223 
L 267.821314 291.926756 
L 268.611654 292.151857 
L 269.401993 292.185552 
L 270.982672 291.57256 
L 271.773011 291.108949 
L 273.35369 290.772467 
L 275.724708 290.542652 
L 278.095727 291.292213 
L 278.886066 291.7636 
L 279.676405 292.415965 
L 281.257084 292.426576 
L 282.047423 292.347323 
L 282.837763 292.393467 
L 283.628102 292.292235 
L 284.418442 292.024243 
L 285.99912 291.230924 
L 287.579799 291.305434 
L 288.370139 291.58237 
L 289.160478 292.276896 
L 291.531496 293.635237 
L 293.902514 293.309201 
L 295.483193 293.494442 
L 297.063872 293.448337 
L 302.596248 292.057199 
L 303.386587 291.993329 
L 304.967266 292.309712 
L 305.757605 292.465103 
L 308.918963 291.924154 
L 311.289981 291.837147 
L 313.660999 292.493377 
L 315.241678 292.299201 
L 316.822357 291.838242 
L 319.983714 291.457337 
L 324.725751 290.669908 
L 326.30643 290.388259 
L 328.677448 290.232682 
L 331.048466 290.031842 
L 333.419484 289.217142 
L 336.580842 288.748665 
L 337.371181 288.563108 
L 338.16152 288.183476 
L 338.95186 288.023641 
L 340.532539 287.342735 
L 343.693896 285.494955 
L 345.274575 284.533208 
L 346.855254 283.829335 
L 350.016611 281.95919 
L 350.806951 281.779649 
L 352.38763 281.823693 
L 354.758648 281.645886 
L 357.920005 282.259918 
L 358.710345 282.444056 
L 360.291023 283.193159 
L 364.24272 285.677534 
L 365.823399 286.640747 
L 366.613739 286.89742 
L 368.984757 288.519949 
L 369.775096 289.190555 
L 371.355775 289.955982 
L 372.146114 289.937488 
L 373.726793 290.219695 
L 374.517133 290.637833 
L 377.67849 290.967138 
L 380.049508 291.291948 
L 380.839848 291.333977 
L 382.420527 291.815902 
L 384.791545 292.068275 
L 385.581884 292.153345 
L 386.372223 292.404743 
L 387.952902 292.519605 
L 390.32392 292.39595 
L 391.11426 292.246275 
L 394.275617 293.205755 
L 396.646636 293.375747 
L 398.227314 292.987614 
L 399.017654 292.768331 
L 400.598333 292.576612 
L 401.388672 291.957649 
L 402.969351 291.179609 
L 405.340369 290.069551 
L 407.711387 287.995315 
L 410.082405 285.855231 
L 411.663084 284.607217 
L 414.824442 281.326525 
L 419.566478 277.397309 
L 420.356817 276.872732 
L 421.937496 276.548372 
L 424.308514 275.676547 
L 425.889193 275.178583 
L 426.679533 274.946563 
L 428.260211 274.796181 
L 432.211908 274.718941 
L 433.002248 274.950879 
L 435.373266 275.114272 
L 437.744284 275.4182 
L 438.534623 275.352382 
L 439.324963 275.519329 
L 440.115302 275.441624 
L 440.905642 275.535044 
L 441.695981 275.211913 
L 442.48632 275.207718 
L 443.27666 274.993578 
L 444.066999 275.105712 
L 444.857339 274.993377 
L 446.438017 275.276708 
L 451.970393 274.378181 
L 452.760733 273.998169 
L 454.341411 273.59649 
L 455.92209 272.826137 
L 457.502769 272.06024 
L 458.293108 271.803829 
L 459.083448 271.283494 
L 459.873787 270.941262 
L 460.664127 270.471241 
L 461.454466 270.255136 
L 463.035145 269.477459 
L 463.825484 268.785509 
L 466.986842 267.327569 
L 467.777181 267.029167 
L 469.35786 266.732913 
L 470.938539 266.166221 
L 471.728878 265.420756 
L 473.309557 264.552624 
L 474.890236 263.175602 
L 481.212951 259.580535 
L 482.00329 258.959741 
L 482.79363 258.659071 
L 483.583969 258.505336 
L 489.116345 255.488619 
L 490.697023 255.169445 
L 493.068042 255.604359 
L 494.64872 256.293231 
L 497.019739 256.702014 
L 497.810078 257.067938 
L 501.761775 258.194915 
L 502.552114 258.339305 
L 503.342454 258.295986 
L 504.923133 258.401795 
L 507.294151 258.42575 
L 508.08449 258.45596 
L 509.665169 258.051423 
L 512.826527 256.711401 
L 516.778223 256.224704 
L 518.358902 256.21691 
L 519.149242 256.252971 
L 519.939581 256.441617 
L 521.52026 257.591637 
L 530.213993 262.734318 
L 531.794672 264.31989 
L 532.585011 265.075612 
L 535.746369 267.187988 
L 538.907727 268.57981 
L 539.698066 268.610701 
L 541.278745 268.321829 
L 542.859423 268.350569 
L 543.649763 268.39891 
L 544.440102 268.322534 
L 549.182139 268.634845 
L 549.972478 268.715574 
L 550.762817 268.599354 
L 551.553157 268.27392 
L 553.133836 268.058431 
L 554.714514 267.89186 
L 556.295193 267.370493 
L 559.456551 266.168887 
L 560.24689 266.271435 
L 563.408248 264.531985 
L 564.198587 264.220593 
L 568.150284 261.665784 
L 568.940623 261.348507 
L 570.521302 260.43964 
L 571.311642 260.350355 
L 572.89232 259.766759 
L 574.472999 259.178084 
L 575.263339 258.980995 
L 576.053678 258.543382 
L 577.634357 257.456744 
L 579.215036 256.7583 
L 580.005375 255.898145 
L 582.376393 255.714792 
L 583.957072 254.902488 
L 587.11843 254.820722 
L 587.908769 254.677587 
L 588.699108 254.335589 
L 591.070127 253.883415 
L 591.860466 253.558893 
L 595.021823 252.974616 
L 595.812163 253.269844 
L 596.602502 253.444484 
L 597.392842 253.486416 
L 598.183181 253.318366 
L 598.97352 253.325741 
L 599.76386 253.53112 
L 601.344539 253.374266 
L 602.134878 253.418579 
L 603.715557 253.868278 
L 605.296236 253.867111 
L 606.876914 253.699724 
L 608.457593 253.981025 
L 610.038272 254.19084 
L 611.618951 254.113045 
L 613.989969 254.236538 
L 615.570648 254.030529 
L 616.360987 254.190042 
L 618.732005 255.013119 
L 619.522345 255.240311 
L 620.312684 255.312725 
L 621.893363 255.122888 
L 622.683702 255.376488 
L 624.264381 255.118168 
L 629.796757 252.391338 
L 631.377436 251.764585 
L 632.167775 251.272399 
L 633.748454 250.605116 
L 635.329133 249.891422 
L 636.119472 249.676514 
L 639.28083 247.960863 
L 640.071169 247.678209 
L 640.861508 247.608312 
L 641.651848 247.402491 
L 642.442187 246.762636 
L 644.022866 246.774218 
L 644.813205 247.07731 
L 647.184223 247.497634 
L 654.297278 246.738536 
L 655.877957 246.890109 
L 657.458636 247.627315 
L 659.039314 248.853972 
L 659.829654 249.396897 
L 661.410333 249.944368 
L 662.200672 250.53136 
L 664.57169 251.345116 
L 666.942708 252.156715 
L 674.846102 256.671908 
L 675.636442 256.874315 
L 677.21712 256.880942 
L 678.00746 256.581985 
L 679.588139 255.706661 
L 680.378478 255.31284 
L 681.168817 255.257552 
L 681.959157 254.933647 
L 682.749496 254.840318 
L 683.539836 254.578436 
L 684.330175 254.525192 
L 685.120514 254.303873 
L 685.910854 254.233957 
L 687.491533 253.708699 
L 689.862551 253.407642 
L 691.44323 253.498967 
L 692.233569 253.428552 
L 693.814248 253.050893 
L 695.394927 252.347663 
L 697.765945 251.615278 
L 698.556284 251.648665 
L 699.346623 251.534533 
L 701.717642 251.655799 
L 704.08866 251.011592 
L 706.459678 250.916623 
L 707.250017 250.591188 
L 708.040357 250.042729 
L 708.830696 249.631391 
L 711.201714 248.940353 
L 714.363072 248.526807 
L 719.895448 247.409069 
L 720.685787 246.821279 
L 721.476127 246.453689 
L 724.637484 246.193119 
L 726.218163 245.709473 
L 727.798842 246.503454 
L 729.37952 247.280774 
L 730.16986 247.249068 
L 730.960199 247.45069 
L 731.750539 247.491087 
L 733.331217 248.076706 
L 736.492575 250.007401 
L 738.073254 251.104805 
L 739.653933 252.643316 
L 741.234611 254.366563 
L 742.81529 255.332634 
L 745.976648 257.761871 
L 745.976648 257.761871 
" clip-path="url(#p04a92f8c3e)" style="fill: none; stroke: #d62728; stroke-width: 1.5; stroke-linecap: square"/>
   </g>
   <g id="patch_3">
    <path d="M 123.584375 381.757656 
L 123.584375 18.597656 
" style="fill: none; stroke: #000000; stroke-width: 0.8; stroke-linejoin: miter; stroke-linecap: square"/>
   </g>
   <g id="patch_4">
    <path d="M 775.614375 381.757656 
L 775.614375 18.597656 
" style="fill: none; stroke: #000000; stroke-width: 0.8; stroke-linejoin: miter; stroke-linecap: square"/>
   </g>
   <g id="patch_5">
    <path d="M 123.584375 381.757656 
L 775.614375 381.757656 
" style="fill: none; stroke: #000000; stroke-width: 0.8; stroke-linejoin: miter; stroke-linecap: square"/>
   </g>
   <g id="patch_6">
    <path d="M 123.584375 18.597656 
L 775.614375 18.597656 
" style="fill: none; stroke: #000000; stroke-width: 0.8; stroke-linejoin: miter; stroke-linecap: square"/>
   </g>
   <g id="legend_1">
    <g id="patch_7">
     <path d="M 587.780625 178.707656 
L 758.814375 178.707656 
Q 763.614375 178.707656 763.614375 173.907656 
L 763.614375 35.397656 
Q 763.614375 30.597656 758.814375 30.597656 
L 587.780625 30.597656 
Q 582.980625 30.597656 582.980625 35.397656 
L 582.980625 173.907656 
Q 582.980625 178.707656 587.780625 178.707656 
z
" style="fill: #ffffff; opacity: 0.8; stroke: #cccccc; stroke-linejoin: miter"/>
    </g>
    <g id="line2d_27">
     <path d="M 592.580625 50.033906 
L 616.580625 50.033906 
L 640.580625 50.033906 
" style="fill: none; stroke: #1f77b4; stroke-width: 1.5; stroke-linecap: square"/>
    </g>
    <g id="text_14">
     <!-- 25 Obj -->
     <g transform="translate(659.780625 58.433906) scale(0.24 -0.24)">
      <defs>
       <path id="DejaVuSans-4f" d="M 2522 4238 
Q 1834 4238 1429 3725 
Q 1025 3213 1025 2328 
Q 1025 1447 1429 934 
Q 1834 422 2522 422 
Q 3209 422 3611 934 
Q 4013 1447 4013 2328 
Q 4013 3213 3611 3725 
Q 3209 4238 2522 4238 
z
M 2522 4750 
Q 3503 4750 4090 4092 
Q 4678 3434 4678 2328 
Q 4678 1225 4090 567 
Q 3503 -91 2522 -91 
Q 1538 -91 948 565 
Q 359 1222 359 2328 
Q 359 3434 948 4092 
Q 1538 4750 2522 4750 
z
" transform="scale(0.015625)"/>
       <path id="DejaVuSans-62" d="M 3116 1747 
Q 3116 2381 2855 2742 
Q 2594 3103 2138 3103 
Q 1681 3103 1420 2742 
Q 1159 2381 1159 1747 
Q 1159 1113 1420 752 
Q 1681 391 2138 391 
Q 2594 391 2855 752 
Q 3116 1113 3116 1747 
z
M 1159 2969 
Q 1341 3281 1617 3432 
Q 1894 3584 2278 3584 
Q 2916 3584 3314 3078 
Q 3713 2572 3713 1747 
Q 3713 922 3314 415 
Q 2916 -91 2278 -91 
Q 1894 -91 1617 61 
Q 1341 213 1159 525 
L 1159 0 
L 581 0 
L 581 4863 
L 1159 4863 
L 1159 2969 
z
" transform="scale(0.015625)"/>
       <path id="DejaVuSans-6a" d="M 603 3500 
L 1178 3500 
L 1178 -63 
Q 1178 -731 923 -1031 
Q 669 -1331 103 -1331 
L -116 -1331 
L -116 -844 
L 38 -844 
Q 366 -844 484 -692 
Q 603 -541 603 -63 
L 603 3500 
z
M 603 4863 
L 1178 4863 
L 1178 4134 
L 603 4134 
L 603 4863 
z
" transform="scale(0.015625)"/>
      </defs>
      <use xlink:href="#DejaVuSans-32"/>
      <use xlink:href="#DejaVuSans-35" transform="translate(63.623047 0)"/>
      <use xlink:href="#DejaVuSans-20" transform="translate(127.246094 0)"/>
      <use xlink:href="#DejaVuSans-4f" transform="translate(159.033203 0)"/>
      <use xlink:href="#DejaVuSans-62" transform="translate(237.744141 0)"/>
      <use xlink:href="#DejaVuSans-6a" transform="translate(301.220703 0)"/>
     </g>
    </g>
    <g id="line2d_28">
     <path d="M 592.580625 85.261406 
L 616.580625 85.261406 
L 640.580625 85.261406 
" style="fill: none; stroke: #ff7f0e; stroke-width: 1.5; stroke-linecap: square"/>
    </g>
    <g id="text_15">
     <!-- 50 Obj -->
     <g transform="translate(659.780625 93.661406) scale(0.24 -0.24)">
      <use xlink:href="#DejaVuSans-35"/>
      <use xlink:href="#DejaVuSans-30" transform="translate(63.623047 0)"/>
      <use xlink:href="#DejaVuSans-20" transform="translate(127.246094 0)"/>
      <use xlink:href="#DejaVuSans-4f" transform="translate(159.033203 0)"/>
      <use xlink:href="#DejaVuSans-62" transform="translate(237.744141 0)"/>
      <use xlink:href="#DejaVuSans-6a" transform="translate(301.220703 0)"/>
     </g>
    </g>
    <g id="line2d_29">
     <path d="M 592.580625 120.488906 
L 616.580625 120.488906 
L 640.580625 120.488906 
" style="fill: none; stroke: #2ca02c; stroke-width: 1.5; stroke-linecap: square"/>
    </g>
    <g id="text_16">
     <!-- 75 Obj -->
     <g transform="translate(659.780625 128.888906) scale(0.24 -0.24)">
      <defs>
       <path id="DejaVuSans-37" d="M 525 4666 
L 3525 4666 
L 3525 4397 
L 1831 0 
L 1172 0 
L 2766 4134 
L 525 4134 
L 525 4666 
z
" transform="scale(0.015625)"/>
      </defs>
      <use xlink:href="#DejaVuSans-37"/>
      <use xlink:href="#DejaVuSans-35" transform="translate(63.623047 0)"/>
      <use xlink:href="#DejaVuSans-20" transform="translate(127.246094 0)"/>
      <use xlink:href="#DejaVuSans-4f" transform="translate(159.033203 0)"/>
      <use xlink:href="#DejaVuSans-62" transform="translate(237.744141 0)"/>
      <use xlink:href="#DejaVuSans-6a" transform="translate(301.220703 0)"/>
     </g>
    </g>
    <g id="line2d_30">
     <path d="M 592.580625 155.716406 
L 616.580625 155.716406 
L 640.580625 155.716406 
" style="fill: none; stroke: #d62728; stroke-width: 1.5; stroke-linecap: square"/>
    </g>
    <g id="text_17">
     <!-- 100 Obj -->
     <g transform="translate(659.780625 164.116406) scale(0.24 -0.24)">
      <use xlink:href="#DejaVuSans-31"/>
      <use xlink:href="#DejaVuSans-30" transform="translate(63.623047 0)"/>
      <use xlink:href="#DejaVuSans-30" transform="translate(127.246094 0)"/>
      <use xlink:href="#DejaVuSans-20" transform="translate(190.869141 0)"/>
      <use xlink:href="#DejaVuSans-4f" transform="translate(222.65625 0)"/>
      <use xlink:href="#DejaVuSans-62" transform="translate(301.367188 0)"/>
      <use xlink:href="#DejaVuSans-6a" transform="translate(364.84375 0)"/>
     </g>
    </g>
   </g>
  </g>
 </g>
 <defs>
  <clipPath id="p04a92f8c3e">
   <rect x="123.584375" y="18.597656" width="652.03" height="363.16"/>
  </clipPath>
 </defs>
</svg>
