<?xml version="1.0" encoding="utf-8" standalone="no"?>
<!DOCTYPE svg PUBLIC "-//W3C//DTD SVG 1.1//EN"
  "http://www.w3.org/Graphics/SVG/1.1/DTD/svg11.dtd">
<svg xmlns:xlink="http://www.w3.org/1999/xlink" width="800.809489pt" height="458.026406pt" viewBox="0 0 800.809489 458.026406" xmlns="http://www.w3.org/2000/svg" version="1.1">
 <metadata>
  <rdf:RDF xmlns:dc="http://purl.org/dc/elements/1.1/" xmlns:cc="http://creativecommons.org/ns#" xmlns:rdf="http://www.w3.org/1999/02/22-rdf-syntax-ns#">
   <cc:Work>
    <dc:type rdf:resource="http://purl.org/dc/dcmitype/StillImage"/>
    <dc:date>2025-09-14T16:04:34.464331</dc:date>
    <dc:format>image/svg+xml</dc:format>
    <dc:creator>
     <cc:Agent>
      <dc:title>Matplotlib v3.10.3, https://matplotlib.org/</dc:title>
     </cc:Agent>
    </dc:creator>
   </cc:Work>
  </rdf:RDF>
 </metadata>
 <defs>
  <style type="text/css">*{stroke-linejoin: round; stroke-linecap: butt}</style>
 </defs>
 <g id="figure_1">
  <g id="patch_1">
   <path d="M 0 458.026406 
L 800.809489 458.026406 
L 800.809489 0 
L 0 0 
z
" style="fill: #ffffff"/>
  </g>
  <g id="axes_1">
   <g id="patch_2">
    <path d="M 123.584375 381.757656 
L 775.524375 381.757656 
L 775.524375 18.597656 
L 123.584375 18.597656 
z
" style="fill: #ffffff"/>
   </g>
   <g id="matplotlib.axis_1">
    <g id="xtick_1">
     <g id="line2d_1">
      <path d="M 153.218011 381.757656 
L 153.218011 18.597656 
" clip-path="url(#p57cd370b65)" style="fill: none; stroke: #b0b0b0; stroke-width: 0.8; stroke-linecap: square"/>
     </g>
     <g id="line2d_2">
      <defs>
       <path id="m91be51e084" d="M 0 0 
L 0 3.5 
" style="stroke: #000000; stroke-width: 0.8"/>
      </defs>
      <g>
       <use xlink:href="#m91be51e084" x="153.218011" y="381.757656" style="stroke: #000000; stroke-width: 0.8"/>
      </g>
     </g>
     <g id="text_1">
      <!-- 0 -->
      <g transform="translate(143.674261 411.552969) scale(0.3 -0.3)">
       <defs>
        <path id="DejaVuSans-30" d="M 2034 4250 
Q 1547 4250 1301 3770 
Q 1056 3291 1056 2328 
Q 1056 1369 1301 889 
Q 1547 409 2034 409 
Q 2525 409 2770 889 
Q 3016 1369 3016 2328 
Q 3016 3291 2770 3770 
Q 2525 4250 2034 4250 
z
M 2034 4750 
Q 2819 4750 3233 4129 
Q 3647 3509 3647 2328 
Q 3647 1150 3233 529 
Q 2819 -91 2034 -91 
Q 1250 -91 836 529 
Q 422 1150 422 2328 
Q 422 3509 836 4129 
Q 1250 4750 2034 4750 
z
" transform="scale(0.015625)"/>
       </defs>
       <use xlink:href="#DejaVuSans-30"/>
      </g>
     </g>
    </g>
    <g id="xtick_2">
     <g id="line2d_3">
      <path d="M 271.752557 381.757656 
L 271.752557 18.597656 
" clip-path="url(#p57cd370b65)" style="fill: none; stroke: #b0b0b0; stroke-width: 0.8; stroke-linecap: square"/>
     </g>
     <g id="line2d_4">
      <g>
       <use xlink:href="#m91be51e084" x="271.752557" y="381.757656" style="stroke: #000000; stroke-width: 0.8"/>
      </g>
     </g>
     <g id="text_2">
      <!-- 3000 -->
      <g transform="translate(233.577557 411.552969) scale(0.3 -0.3)">
       <defs>
        <path id="DejaVuSans-33" d="M 2597 2516 
Q 3050 2419 3304 2112 
Q 3559 1806 3559 1356 
Q 3559 666 3084 287 
Q 2609 -91 1734 -91 
Q 1441 -91 1130 -33 
Q 819 25 488 141 
L 488 750 
Q 750 597 1062 519 
Q 1375 441 1716 441 
Q 2309 441 2620 675 
Q 2931 909 2931 1356 
Q 2931 1769 2642 2001 
Q 2353 2234 1838 2234 
L 1294 2234 
L 1294 2753 
L 1863 2753 
Q 2328 2753 2575 2939 
Q 2822 3125 2822 3475 
Q 2822 3834 2567 4026 
Q 2313 4219 1838 4219 
Q 1578 4219 1281 4162 
Q 984 4106 628 3988 
L 628 4550 
Q 988 4650 1302 4700 
Q 1616 4750 1894 4750 
Q 2613 4750 3031 4423 
Q 3450 4097 3450 3541 
Q 3450 3153 3228 2886 
Q 3006 2619 2597 2516 
z
" transform="scale(0.015625)"/>
       </defs>
       <use xlink:href="#DejaVuSans-33"/>
       <use xlink:href="#DejaVuSans-30" transform="translate(63.623047 0)"/>
       <use xlink:href="#DejaVuSans-30" transform="translate(127.246094 0)"/>
       <use xlink:href="#DejaVuSans-30" transform="translate(190.869141 0)"/>
      </g>
     </g>
    </g>
    <g id="xtick_3">
     <g id="line2d_5">
      <path d="M 390.287102 381.757656 
L 390.287102 18.597656 
" clip-path="url(#p57cd370b65)" style="fill: none; stroke: #b0b0b0; stroke-width: 0.8; stroke-linecap: square"/>
     </g>
     <g id="line2d_6">
      <g>
       <use xlink:href="#m91be51e084" x="390.287102" y="381.757656" style="stroke: #000000; stroke-width: 0.8"/>
      </g>
     </g>
     <g id="text_3">
      <!-- 6000 -->
      <g transform="translate(352.112102 411.552969) scale(0.3 -0.3)">
       <defs>
        <path id="DejaVuSans-36" d="M 2113 2584 
Q 1688 2584 1439 2293 
Q 1191 2003 1191 1497 
Q 1191 994 1439 701 
Q 1688 409 2113 409 
Q 2538 409 2786 701 
Q 3034 994 3034 1497 
Q 3034 2003 2786 2293 
Q 2538 2584 2113 2584 
z
M 3366 4563 
L 3366 3988 
Q 3128 4100 2886 4159 
Q 2644 4219 2406 4219 
Q 1781 4219 1451 3797 
Q 1122 3375 1075 2522 
Q 1259 2794 1537 2939 
Q 1816 3084 2150 3084 
Q 2853 3084 3261 2657 
Q 3669 2231 3669 1497 
Q 3669 778 3244 343 
Q 2819 -91 2113 -91 
Q 1303 -91 875 529 
Q 447 1150 447 2328 
Q 447 3434 972 4092 
Q 1497 4750 2381 4750 
Q 2619 4750 2861 4703 
Q 3103 4656 3366 4563 
z
" transform="scale(0.015625)"/>
       </defs>
       <use xlink:href="#DejaVuSans-36"/>
       <use xlink:href="#DejaVuSans-30" transform="translate(63.623047 0)"/>
       <use xlink:href="#DejaVuSans-30" transform="translate(127.246094 0)"/>
       <use xlink:href="#DejaVuSans-30" transform="translate(190.869141 0)"/>
      </g>
     </g>
    </g>
    <g id="xtick_4">
     <g id="line2d_7">
      <path d="M 508.821648 381.757656 
L 508.821648 18.597656 
" clip-path="url(#p57cd370b65)" style="fill: none; stroke: #b0b0b0; stroke-width: 0.8; stroke-linecap: square"/>
     </g>
     <g id="line2d_8">
      <g>
       <use xlink:href="#m91be51e084" x="508.821648" y="381.757656" style="stroke: #000000; stroke-width: 0.8"/>
      </g>
     </g>
     <g id="text_4">
      <!-- 9000 -->
      <g transform="translate(470.646648 411.552969) scale(0.3 -0.3)">
       <defs>
        <path id="DejaVuSans-39" d="M 703 97 
L 703 672 
Q 941 559 1184 500 
Q 1428 441 1663 441 
Q 2288 441 2617 861 
Q 2947 1281 2994 2138 
Q 2813 1869 2534 1725 
Q 2256 1581 1919 1581 
Q 1219 1581 811 2004 
Q 403 2428 403 3163 
Q 403 3881 828 4315 
Q 1253 4750 1959 4750 
Q 2769 4750 3195 4129 
Q 3622 3509 3622 2328 
Q 3622 1225 3098 567 
Q 2575 -91 1691 -91 
Q 1453 -91 1209 -44 
Q 966 3 703 97 
z
M 1959 2075 
Q 2384 2075 2632 2365 
Q 2881 2656 2881 3163 
Q 2881 3666 2632 3958 
Q 2384 4250 1959 4250 
Q 1534 4250 1286 3958 
Q 1038 3666 1038 3163 
Q 1038 2656 1286 2365 
Q 1534 2075 1959 2075 
z
" transform="scale(0.015625)"/>
       </defs>
       <use xlink:href="#DejaVuSans-39"/>
       <use xlink:href="#DejaVuSans-30" transform="translate(63.623047 0)"/>
       <use xlink:href="#DejaVuSans-30" transform="translate(127.246094 0)"/>
       <use xlink:href="#DejaVuSans-30" transform="translate(190.869141 0)"/>
      </g>
     </g>
    </g>
    <g id="xtick_5">
     <g id="line2d_9">
      <path d="M 627.356193 381.757656 
L 627.356193 18.597656 
" clip-path="url(#p57cd370b65)" style="fill: none; stroke: #b0b0b0; stroke-width: 0.8; stroke-linecap: square"/>
     </g>
     <g id="line2d_10">
      <g>
       <use xlink:href="#m91be51e084" x="627.356193" y="381.757656" style="stroke: #000000; stroke-width: 0.8"/>
      </g>
     </g>
     <g id="text_5">
      <!-- 12000 -->
      <g transform="translate(579.637443 411.552969) scale(0.3 -0.3)">
       <defs>
        <path id="DejaVuSans-31" d="M 794 531 
L 1825 531 
L 1825 4091 
L 703 3866 
L 703 4441 
L 1819 4666 
L 2450 4666 
L 2450 531 
L 3481 531 
L 3481 0 
L 794 0 
L 794 531 
z
" transform="scale(0.015625)"/>
        <path id="DejaVuSans-32" d="M 1228 531 
L 3431 531 
L 3431 0 
L 469 0 
L 469 531 
Q 828 903 1448 1529 
Q 2069 2156 2228 2338 
Q 2531 2678 2651 2914 
Q 2772 3150 2772 3378 
Q 2772 3750 2511 3984 
Q 2250 4219 1831 4219 
Q 1534 4219 1204 4116 
Q 875 4013 500 3803 
L 500 4441 
Q 881 4594 1212 4672 
Q 1544 4750 1819 4750 
Q 2544 4750 2975 4387 
Q 3406 4025 3406 3419 
Q 3406 3131 3298 2873 
Q 3191 2616 2906 2266 
Q 2828 2175 2409 1742 
Q 1991 1309 1228 531 
z
" transform="scale(0.015625)"/>
       </defs>
       <use xlink:href="#DejaVuSans-31"/>
       <use xlink:href="#DejaVuSans-32" transform="translate(63.623047 0)"/>
       <use xlink:href="#DejaVuSans-30" transform="translate(127.246094 0)"/>
       <use xlink:href="#DejaVuSans-30" transform="translate(190.869141 0)"/>
       <use xlink:href="#DejaVuSans-30" transform="translate(254.492188 0)"/>
      </g>
     </g>
    </g>
    <g id="xtick_6">
     <g id="line2d_11">
      <path d="M 745.890739 381.757656 
L 745.890739 18.597656 
" clip-path="url(#p57cd370b65)" style="fill: none; stroke: #b0b0b0; stroke-width: 0.8; stroke-linecap: square"/>
     </g>
     <g id="line2d_12">
      <g>
       <use xlink:href="#m91be51e084" x="745.890739" y="381.757656" style="stroke: #000000; stroke-width: 0.8"/>
      </g>
     </g>
     <g id="text_6">
      <!-- 15000 -->
      <g transform="translate(698.171989 411.552969) scale(0.3 -0.3)">
       <defs>
        <path id="DejaVuSans-35" d="M 691 4666 
L 3169 4666 
L 3169 4134 
L 1269 4134 
L 1269 2991 
Q 1406 3038 1543 3061 
Q 1681 3084 1819 3084 
Q 2600 3084 3056 2656 
Q 3513 2228 3513 1497 
Q 3513 744 3044 326 
Q 2575 -91 1722 -91 
Q 1428 -91 1123 -41 
Q 819 9 494 109 
L 494 744 
Q 775 591 1075 516 
Q 1375 441 1709 441 
Q 2250 441 2565 725 
Q 2881 1009 2881 1497 
Q 2881 1984 2565 2268 
Q 2250 2553 1709 2553 
Q 1456 2553 1204 2497 
Q 953 2441 691 2322 
L 691 4666 
z
" transform="scale(0.015625)"/>
       </defs>
       <use xlink:href="#DejaVuSans-31"/>
       <use xlink:href="#DejaVuSans-35" transform="translate(63.623047 0)"/>
       <use xlink:href="#DejaVuSans-30" transform="translate(127.246094 0)"/>
       <use xlink:href="#DejaVuSans-30" transform="translate(190.869141 0)"/>
       <use xlink:href="#DejaVuSans-30" transform="translate(254.492188 0)"/>
      </g>
     </g>
    </g>
    <g id="text_7">
     <!-- Time Step -->
     <g transform="translate(373.930937 444.587344) scale(0.3 -0.3)">
      <defs>
       <path id="DejaVuSans-54" d="M -19 4666 
L 3928 4666 
L 3928 4134 
L 2272 4134 
L 2272 0 
L 1638 0 
L 1638 4134 
L -19 4134 
L -19 4666 
z
" transform="scale(0.015625)"/>
       <path id="DejaVuSans-69" d="M 603 3500 
L 1178 3500 
L 1178 0 
L 603 0 
L 603 3500 
z
M 603 4863 
L 1178 4863 
L 1178 4134 
L 603 4134 
L 603 4863 
z
" transform="scale(0.015625)"/>
       <path id="DejaVuSans-6d" d="M 3328 2828 
Q 3544 3216 3844 3400 
Q 4144 3584 4550 3584 
Q 5097 3584 5394 3201 
Q 5691 2819 5691 2113 
L 5691 0 
L 5113 0 
L 5113 2094 
Q 5113 2597 4934 2840 
Q 4756 3084 4391 3084 
Q 3944 3084 3684 2787 
Q 3425 2491 3425 1978 
L 3425 0 
L 2847 0 
L 2847 2094 
Q 2847 2600 2669 2842 
Q 2491 3084 2119 3084 
Q 1678 3084 1418 2786 
Q 1159 2488 1159 1978 
L 1159 0 
L 581 0 
L 581 3500 
L 1159 3500 
L 1159 2956 
Q 1356 3278 1631 3431 
Q 1906 3584 2284 3584 
Q 2666 3584 2933 3390 
Q 3200 3197 3328 2828 
z
" transform="scale(0.015625)"/>
       <path id="DejaVuSans-65" d="M 3597 1894 
L 3597 1613 
L 953 1613 
Q 991 1019 1311 708 
Q 1631 397 2203 397 
Q 2534 397 2845 478 
Q 3156 559 3463 722 
L 3463 178 
Q 3153 47 2828 -22 
Q 2503 -91 2169 -91 
Q 1331 -91 842 396 
Q 353 884 353 1716 
Q 353 2575 817 3079 
Q 1281 3584 2069 3584 
Q 2775 3584 3186 3129 
Q 3597 2675 3597 1894 
z
M 3022 2063 
Q 3016 2534 2758 2815 
Q 2500 3097 2075 3097 
Q 1594 3097 1305 2825 
Q 1016 2553 972 2059 
L 3022 2063 
z
" transform="scale(0.015625)"/>
       <path id="DejaVuSans-20" transform="scale(0.015625)"/>
       <path id="DejaVuSans-53" d="M 3425 4513 
L 3425 3897 
Q 3066 4069 2747 4153 
Q 2428 4238 2131 4238 
Q 1616 4238 1336 4038 
Q 1056 3838 1056 3469 
Q 1056 3159 1242 3001 
Q 1428 2844 1947 2747 
L 2328 2669 
Q 3034 2534 3370 2195 
Q 3706 1856 3706 1288 
Q 3706 609 3251 259 
Q 2797 -91 1919 -91 
Q 1588 -91 1214 -16 
Q 841 59 441 206 
L 441 856 
Q 825 641 1194 531 
Q 1563 422 1919 422 
Q 2459 422 2753 634 
Q 3047 847 3047 1241 
Q 3047 1584 2836 1778 
Q 2625 1972 2144 2069 
L 1759 2144 
Q 1053 2284 737 2584 
Q 422 2884 422 3419 
Q 422 4038 858 4394 
Q 1294 4750 2059 4750 
Q 2388 4750 2728 4690 
Q 3069 4631 3425 4513 
z
" transform="scale(0.015625)"/>
       <path id="DejaVuSans-74" d="M 1172 4494 
L 1172 3500 
L 2356 3500 
L 2356 3053 
L 1172 3053 
L 1172 1153 
Q 1172 725 1289 603 
Q 1406 481 1766 481 
L 2356 481 
L 2356 0 
L 1766 0 
Q 1100 0 847 248 
Q 594 497 594 1153 
L 594 3053 
L 172 3053 
L 172 3500 
L 594 3500 
L 594 4494 
L 1172 4494 
z
" transform="scale(0.015625)"/>
       <path id="DejaVuSans-70" d="M 1159 525 
L 1159 -1331 
L 581 -1331 
L 581 3500 
L 1159 3500 
L 1159 2969 
Q 1341 3281 1617 3432 
Q 1894 3584 2278 3584 
Q 2916 3584 3314 3078 
Q 3713 2572 3713 1747 
Q 3713 922 3314 415 
Q 2916 -91 2278 -91 
Q 1894 -91 1617 61 
Q 1341 213 1159 525 
z
M 3116 1747 
Q 3116 2381 2855 2742 
Q 2594 3103 2138 3103 
Q 1681 3103 1420 2742 
Q 1159 2381 1159 1747 
Q 1159 1113 1420 752 
Q 1681 391 2138 391 
Q 2594 391 2855 752 
Q 3116 1113 3116 1747 
z
" transform="scale(0.015625)"/>
      </defs>
      <use xlink:href="#DejaVuSans-54"/>
      <use xlink:href="#DejaVuSans-69" transform="translate(57.958984 0)"/>
      <use xlink:href="#DejaVuSans-6d" transform="translate(85.742188 0)"/>
      <use xlink:href="#DejaVuSans-65" transform="translate(183.154297 0)"/>
      <use xlink:href="#DejaVuSans-20" transform="translate(244.677734 0)"/>
      <use xlink:href="#DejaVuSans-53" transform="translate(276.464844 0)"/>
      <use xlink:href="#DejaVuSans-74" transform="translate(339.941406 0)"/>
      <use xlink:href="#DejaVuSans-65" transform="translate(379.150391 0)"/>
      <use xlink:href="#DejaVuSans-70" transform="translate(440.673828 0)"/>
     </g>
    </g>
   </g>
   <g id="matplotlib.axis_2">
    <g id="ytick_1">
     <g id="line2d_13">
      <path d="M 123.584375 321.23099 
L 775.524375 321.23099 
" clip-path="url(#p57cd370b65)" style="fill: none; stroke: #b0b0b0; stroke-width: 0.8; stroke-linecap: square"/>
     </g>
     <g id="line2d_14">
      <defs>
       <path id="m0fee14b7b3" d="M 0 0 
L -3.5 0 
" style="stroke: #000000; stroke-width: 0.8"/>
      </defs>
      <g>
       <use xlink:href="#m0fee14b7b3" x="123.584375" y="321.23099" style="stroke: #000000; stroke-width: 0.8"/>
      </g>
     </g>
     <g id="text_8">
      <!-- 500 -->
      <g transform="translate(59.321875 332.628646) scale(0.3 -0.3)">
       <use xlink:href="#DejaVuSans-35"/>
       <use xlink:href="#DejaVuSans-30" transform="translate(63.623047 0)"/>
       <use xlink:href="#DejaVuSans-30" transform="translate(127.246094 0)"/>
      </g>
     </g>
    </g>
    <g id="ytick_2">
     <g id="line2d_15">
      <path d="M 123.584375 245.572656 
L 775.524375 245.572656 
" clip-path="url(#p57cd370b65)" style="fill: none; stroke: #b0b0b0; stroke-width: 0.8; stroke-linecap: square"/>
     </g>
     <g id="line2d_16">
      <g>
       <use xlink:href="#m0fee14b7b3" x="123.584375" y="245.572656" style="stroke: #000000; stroke-width: 0.8"/>
      </g>
     </g>
     <g id="text_9">
      <!-- 1000 -->
      <g transform="translate(40.234375 256.970312) scale(0.3 -0.3)">
       <use xlink:href="#DejaVuSans-31"/>
       <use xlink:href="#DejaVuSans-30" transform="translate(63.623047 0)"/>
       <use xlink:href="#DejaVuSans-30" transform="translate(127.246094 0)"/>
       <use xlink:href="#DejaVuSans-30" transform="translate(190.869141 0)"/>
      </g>
     </g>
    </g>
    <g id="ytick_3">
     <g id="line2d_17">
      <path d="M 123.584375 169.914323 
L 775.524375 169.914323 
" clip-path="url(#p57cd370b65)" style="fill: none; stroke: #b0b0b0; stroke-width: 0.8; stroke-linecap: square"/>
     </g>
     <g id="line2d_18">
      <g>
       <use xlink:href="#m0fee14b7b3" x="123.584375" y="169.914323" style="stroke: #000000; stroke-width: 0.8"/>
      </g>
     </g>
     <g id="text_10">
      <!-- 1500 -->
      <g transform="translate(40.234375 181.311979) scale(0.3 -0.3)">
       <use xlink:href="#DejaVuSans-31"/>
       <use xlink:href="#DejaVuSans-35" transform="translate(63.623047 0)"/>
       <use xlink:href="#DejaVuSans-30" transform="translate(127.246094 0)"/>
       <use xlink:href="#DejaVuSans-30" transform="translate(190.869141 0)"/>
      </g>
     </g>
    </g>
    <g id="ytick_4">
     <g id="line2d_19">
      <path d="M 123.584375 94.25599 
L 775.524375 94.25599 
" clip-path="url(#p57cd370b65)" style="fill: none; stroke: #b0b0b0; stroke-width: 0.8; stroke-linecap: square"/>
     </g>
     <g id="line2d_20">
      <g>
       <use xlink:href="#m0fee14b7b3" x="123.584375" y="94.25599" style="stroke: #000000; stroke-width: 0.8"/>
      </g>
     </g>
     <g id="text_11">
      <!-- 2000 -->
      <g transform="translate(40.234375 105.653646) scale(0.3 -0.3)">
       <use xlink:href="#DejaVuSans-32"/>
       <use xlink:href="#DejaVuSans-30" transform="translate(63.623047 0)"/>
       <use xlink:href="#DejaVuSans-30" transform="translate(127.246094 0)"/>
       <use xlink:href="#DejaVuSans-30" transform="translate(190.869141 0)"/>
      </g>
     </g>
    </g>
    <g id="ytick_5">
     <g id="line2d_21">
      <path d="M 123.584375 18.597656 
L 775.524375 18.597656 
" clip-path="url(#p57cd370b65)" style="fill: none; stroke: #b0b0b0; stroke-width: 0.8; stroke-linecap: square"/>
     </g>
     <g id="line2d_22">
      <g>
       <use xlink:href="#m0fee14b7b3" x="123.584375" y="18.597656" style="stroke: #000000; stroke-width: 0.8"/>
      </g>
     </g>
     <g id="text_12">
      <!-- 2500 -->
      <g transform="translate(40.234375 29.995312) scale(0.3 -0.3)">
       <use xlink:href="#DejaVuSans-32"/>
       <use xlink:href="#DejaVuSans-35" transform="translate(63.623047 0)"/>
       <use xlink:href="#DejaVuSans-30" transform="translate(127.246094 0)"/>
       <use xlink:href="#DejaVuSans-30" transform="translate(190.869141 0)"/>
      </g>
     </g>
    </g>
    <g id="text_13">
     <!-- Variance -->
     <g transform="translate(29.995312 264.977656) rotate(-90) scale(0.3 -0.3)">
      <defs>
       <path id="DejaVuSans-56" d="M 1831 0 
L 50 4666 
L 709 4666 
L 2188 738 
L 3669 4666 
L 4325 4666 
L 2547 0 
L 1831 0 
z
" transform="scale(0.015625)"/>
       <path id="DejaVuSans-61" d="M 2194 1759 
Q 1497 1759 1228 1600 
Q 959 1441 959 1056 
Q 959 750 1161 570 
Q 1363 391 1709 391 
Q 2188 391 2477 730 
Q 2766 1069 2766 1631 
L 2766 1759 
L 2194 1759 
z
M 3341 1997 
L 3341 0 
L 2766 0 
L 2766 531 
Q 2569 213 2275 61 
Q 1981 -91 1556 -91 
Q 1019 -91 701 211 
Q 384 513 384 1019 
Q 384 1609 779 1909 
Q 1175 2209 1959 2209 
L 2766 2209 
L 2766 2266 
Q 2766 2663 2505 2880 
Q 2244 3097 1772 3097 
Q 1472 3097 1187 3025 
Q 903 2953 641 2809 
L 641 3341 
Q 956 3463 1253 3523 
Q 1550 3584 1831 3584 
Q 2591 3584 2966 3190 
Q 3341 2797 3341 1997 
z
" transform="scale(0.015625)"/>
       <path id="DejaVuSans-72" d="M 2631 2963 
Q 2534 3019 2420 3045 
Q 2306 3072 2169 3072 
Q 1681 3072 1420 2755 
Q 1159 2438 1159 1844 
L 1159 0 
L 581 0 
L 581 3500 
L 1159 3500 
L 1159 2956 
Q 1341 3275 1631 3429 
Q 1922 3584 2338 3584 
Q 2397 3584 2469 3576 
Q 2541 3569 2628 3553 
L 2631 2963 
z
" transform="scale(0.015625)"/>
       <path id="DejaVuSans-6e" d="M 3513 2113 
L 3513 0 
L 2938 0 
L 2938 2094 
Q 2938 2591 2744 2837 
Q 2550 3084 2163 3084 
Q 1697 3084 1428 2787 
Q 1159 2491 1159 1978 
L 1159 0 
L 581 0 
L 581 3500 
L 1159 3500 
L 1159 2956 
Q 1366 3272 1645 3428 
Q 1925 3584 2291 3584 
Q 2894 3584 3203 3211 
Q 3513 2838 3513 2113 
z
" transform="scale(0.015625)"/>
       <path id="DejaVuSans-63" d="M 3122 3366 
L 3122 2828 
Q 2878 2963 2633 3030 
Q 2388 3097 2138 3097 
Q 1578 3097 1268 2742 
Q 959 2388 959 1747 
Q 959 1106 1268 751 
Q 1578 397 2138 397 
Q 2388 397 2633 464 
Q 2878 531 3122 666 
L 3122 134 
Q 2881 22 2623 -34 
Q 2366 -91 2075 -91 
Q 1284 -91 818 406 
Q 353 903 353 1747 
Q 353 2603 823 3093 
Q 1294 3584 2113 3584 
Q 2378 3584 2631 3529 
Q 2884 3475 3122 3366 
z
" transform="scale(0.015625)"/>
      </defs>
      <use xlink:href="#DejaVuSans-56"/>
      <use xlink:href="#DejaVuSans-61" transform="translate(60.658203 0)"/>
      <use xlink:href="#DejaVuSans-72" transform="translate(121.9375 0)"/>
      <use xlink:href="#DejaVuSans-69" transform="translate(163.050781 0)"/>
      <use xlink:href="#DejaVuSans-61" transform="translate(190.833984 0)"/>
      <use xlink:href="#DejaVuSans-6e" transform="translate(252.113281 0)"/>
      <use xlink:href="#DejaVuSans-63" transform="translate(315.492188 0)"/>
      <use xlink:href="#DejaVuSans-65" transform="translate(370.472656 0)"/>
     </g>
    </g>
   </g>
   <g id="line2d_23">
    <path d="M 153.218011 347.997626 
L 154.008242 358.733463 
L 154.798472 357.186297 
L 155.588702 358.596715 
L 156.378933 356.884182 
L 157.169163 353.602803 
L 157.959393 352.137421 
L 158.749623 351.523007 
L 159.539854 351.362687 
L 160.330084 350.149661 
L 161.910545 344.943267 
L 162.700775 343.533702 
L 165.071466 337.749312 
L 166.651927 334.380086 
L 167.442157 332.894286 
L 169.022617 329.032327 
L 170.603078 325.886452 
L 172.183539 322.582567 
L 172.973769 319.873495 
L 175.34446 308.464894 
L 176.92492 301.169301 
L 180.085842 285.83007 
L 183.246763 274.441628 
L 184.827223 269.546546 
L 187.197914 263.050439 
L 188.778375 260.252493 
L 190.358836 257.377396 
L 191.149066 256.020406 
L 191.939296 254.892683 
L 192.729527 253.978156 
L 194.309987 252.852497 
L 195.100217 252.977931 
L 196.680678 252.608139 
L 197.470908 252.51857 
L 199.051369 252.008335 
L 200.63183 252.076817 
L 202.21229 252.536973 
L 203.00252 252.474658 
L 203.792751 252.116572 
L 204.582981 252.300423 
L 205.373211 251.715335 
L 206.163442 251.341117 
L 206.953672 251.127918 
L 210.904823 246.7844 
L 211.695054 245.984672 
L 212.485284 245.587139 
L 214.065745 244.295827 
L 214.855975 243.330604 
L 216.436436 242.338732 
L 217.226666 241.738727 
L 218.807127 240.795148 
L 220.387587 239.797021 
L 221.177817 239.199183 
L 222.758278 237.568489 
L 223.548508 237.17015 
L 224.338739 235.887278 
L 225.128969 235.292413 
L 227.49966 232.804145 
L 228.28989 231.961424 
L 231.450811 229.338451 
L 233.031272 227.346732 
L 233.821502 226.228027 
L 236.192193 223.407976 
L 240.933575 215.69839 
L 241.723805 213.986623 
L 243.304266 211.860825 
L 244.884727 210.016438 
L 246.465187 208.002569 
L 247.255417 207.255919 
L 248.045648 207.092339 
L 248.835878 207.180226 
L 249.626108 207.485597 
L 251.206569 207.080262 
L 251.996799 206.655717 
L 252.78703 206.429439 
L 254.36749 206.569633 
L 255.15772 206.276157 
L 255.947951 206.208529 
L 256.738181 206.718342 
L 257.528411 207.398517 
L 258.318642 207.618994 
L 259.108872 207.32807 
L 259.899102 207.168138 
L 261.479563 207.622637 
L 262.269793 207.567608 
L 263.060023 207.270655 
L 263.850254 207.485122 
L 265.430714 208.713301 
L 266.220945 208.841813 
L 267.011175 209.23684 
L 267.801405 208.970443 
L 268.591636 207.96063 
L 270.172096 205.602108 
L 270.962327 204.748169 
L 272.542787 202.371881 
L 273.333017 200.975904 
L 274.123248 199.929338 
L 275.703708 198.240354 
L 276.493939 196.974024 
L 277.284169 195.463506 
L 278.074399 194.389449 
L 280.44509 192.767424 
L 281.23532 192.209512 
L 282.815781 190.037817 
L 283.606011 188.515625 
L 285.186472 184.71264 
L 287.557163 180.650905 
L 288.347393 180.368968 
L 289.927854 180.307538 
L 290.718084 179.877334 
L 291.508314 179.758773 
L 293.088775 179.874293 
L 300.200848 180.268973 
L 300.991078 180.53378 
L 302.571539 182.322646 
L 303.361769 183.242875 
L 304.94223 185.600181 
L 305.73246 186.496382 
L 306.52269 187.110014 
L 307.31292 187.934447 
L 308.103151 188.352324 
L 308.893381 188.968894 
L 310.473842 190.805444 
L 312.054302 192.688691 
L 312.844533 193.803942 
L 314.424993 195.394801 
L 316.795684 198.939912 
L 318.376145 200.396675 
L 319.166375 201.134434 
L 320.746836 202.19587 
L 321.537066 202.4901 
L 322.327296 202.577491 
L 323.117527 202.908226 
L 325.488217 203.364026 
L 327.068678 203.85054 
L 327.858908 203.971567 
L 331.01983 202.944267 
L 331.81006 202.640423 
L 332.60029 201.86522 
L 334.970981 200.715223 
L 335.761211 199.893666 
L 338.922133 198.687271 
L 339.712363 198.825327 
L 340.502593 198.691195 
L 341.292823 198.165177 
L 342.083054 198.288227 
L 342.873284 197.653894 
L 343.663514 197.530859 
L 344.453745 197.595887 
L 346.034205 196.930859 
L 347.614666 195.801122 
L 349.985357 194.214688 
L 350.775587 193.509183 
L 351.565817 192.048606 
L 353.146278 190.101548 
L 354.726739 187.813808 
L 355.516969 187.014492 
L 357.09743 184.285053 
L 358.67789 181.190527 
L 359.46812 179.640738 
L 360.258351 178.462313 
L 363.419272 174.713381 
L 364.209502 173.536425 
L 364.999733 172.761564 
L 365.789963 171.586572 
L 366.580193 170.688979 
L 367.370423 169.609853 
L 368.950884 168.013984 
L 370.531345 167.082759 
L 372.111805 167.631268 
L 372.902036 167.185579 
L 374.482496 165.348917 
L 375.272727 164.560292 
L 376.062957 164.052882 
L 380.014108 163.054271 
L 380.804339 162.635156 
L 382.384799 162.167602 
L 383.96526 161.1203 
L 384.75549 160.562814 
L 385.54572 160.727441 
L 387.126181 160.839241 
L 387.916411 160.308017 
L 388.706642 160.055042 
L 389.496872 159.622708 
L 391.077333 159.128574 
L 391.867563 159.123089 
L 392.657793 159.74813 
L 393.448023 160.778566 
L 394.238254 161.443401 
L 395.028484 162.372551 
L 395.818714 162.769364 
L 396.608945 163.553531 
L 397.399175 163.853699 
L 398.189405 163.939825 
L 398.979636 164.369207 
L 399.769866 164.426207 
L 400.560096 164.808622 
L 401.350327 164.860077 
L 402.140557 165.165895 
L 403.721017 167.067899 
L 405.301478 169.224688 
L 406.091708 169.997069 
L 406.881939 171.095474 
L 407.672169 172.551467 
L 410.04286 175.818467 
L 410.83309 176.032733 
L 412.413551 176.304969 
L 413.203781 176.490911 
L 414.784242 177.340896 
L 415.574472 178.051483 
L 417.154933 180.196423 
L 417.945163 181.44458 
L 418.735393 181.784698 
L 419.525623 182.452038 
L 421.106084 183.34091 
L 421.896314 183.948286 
L 423.476775 183.849317 
L 424.267005 183.579988 
L 426.637696 181.669858 
L 428.218157 179.999703 
L 429.798617 178.478169 
L 431.379078 177.712591 
L 433.749769 175.980224 
L 434.539999 175.163612 
L 435.33023 174.703394 
L 436.12046 173.85941 
L 436.91069 173.443277 
L 437.70092 172.52834 
L 438.491151 172.078574 
L 439.281381 171.340365 
L 440.861842 170.391307 
L 443.232533 168.407285 
L 444.812993 167.469464 
L 447.183684 166.300541 
L 447.973914 166.303021 
L 448.764145 165.853129 
L 449.554375 165.969285 
L 451.134836 166.728856 
L 451.925066 166.533641 
L 452.715296 166.482425 
L 453.505527 166.177377 
L 454.295757 165.580631 
L 455.085987 165.203901 
L 455.876217 164.391578 
L 456.666448 163.262565 
L 459.037139 161.795027 
L 459.827369 161.334185 
L 460.617599 161.315848 
L 461.40783 161.423966 
L 462.19806 161.707659 
L 462.98829 161.81916 
L 463.77852 161.775914 
L 465.358981 162.521637 
L 466.149211 162.93427 
L 466.939442 163.539089 
L 467.729672 163.513034 
L 468.519902 163.905284 
L 469.310133 163.014231 
L 470.100363 162.741871 
L 470.890593 162.051331 
L 471.680823 162.087182 
L 472.471054 161.94581 
L 473.261284 161.944743 
L 474.051514 161.799456 
L 477.212436 160.526577 
L 478.792896 160.715094 
L 479.583127 160.20635 
L 480.373357 159.186064 
L 481.953817 158.068621 
L 483.534278 157.39294 
L 484.324508 156.644556 
L 485.904969 156.353534 
L 486.695199 156.48216 
L 488.27566 155.711381 
L 489.06589 156.016037 
L 490.646351 155.99023 
L 491.436581 155.933614 
L 493.017042 156.236766 
L 493.807272 156.093156 
L 494.597502 155.805514 
L 495.387733 155.786673 
L 496.177963 155.882377 
L 496.968193 156.134034 
L 499.338884 155.344298 
L 500.129114 155.230364 
L 500.919345 154.459791 
L 501.709575 153.487741 
L 502.499805 152.286575 
L 504.080266 150.928767 
L 504.870496 149.867435 
L 505.660727 148.533742 
L 506.450957 146.895352 
L 508.031417 144.656113 
L 511.982569 138.731764 
L 512.772799 137.177822 
L 513.56303 136.622609 
L 514.35326 135.553496 
L 515.14349 134.177385 
L 516.723951 132.163944 
L 518.304411 129.817494 
L 519.094642 128.987915 
L 519.884872 128.771465 
L 520.675102 128.725139 
L 521.465333 128.331454 
L 522.255563 128.165163 
L 523.045793 128.381143 
L 523.836023 128.100802 
L 524.626254 127.93951 
L 525.416484 127.547144 
L 528.577405 126.634787 
L 529.367636 126.745415 
L 530.157866 126.426288 
L 531.738327 126.875125 
L 532.528557 127.422465 
L 533.318787 127.61846 
L 534.109017 128.213642 
L 535.689478 129.878379 
L 536.479708 130.512968 
L 538.060169 132.185444 
L 538.850399 132.691046 
L 539.64063 132.749718 
L 540.43086 132.61574 
L 542.01132 133.610436 
L 542.801551 133.526891 
L 543.591781 134.210448 
L 544.382011 133.591945 
L 546.752702 132.611203 
L 548.333163 132.81495 
L 549.123393 132.254067 
L 549.913623 132.59625 
L 551.494084 132.564288 
L 553.074545 133.724766 
L 553.864775 134.323386 
L 554.655005 134.633462 
L 555.445236 134.302367 
L 557.815927 133.930627 
L 558.606157 134.101835 
L 559.396387 134.891233 
L 560.976848 136.828861 
L 562.557308 137.500069 
L 563.347539 137.375866 
L 564.927999 139.317601 
L 566.50846 141.182262 
L 567.29869 142.044142 
L 569.669381 145.235679 
L 571.249842 147.055144 
L 572.040072 147.096399 
L 573.620533 146.314494 
L 575.200993 146.500072 
L 576.781454 145.996436 
L 578.361914 146.251082 
L 579.152145 145.619837 
L 579.942375 145.395565 
L 580.732605 144.824455 
L 582.313066 144.750072 
L 583.103296 144.502636 
L 583.893527 144.012605 
L 586.264217 143.094371 
L 587.054448 142.336173 
L 588.634908 141.680925 
L 589.425139 140.779903 
L 591.005599 138.434738 
L 591.79583 137.600154 
L 593.37629 137.20194 
L 596.537211 134.570723 
L 597.327442 133.594278 
L 598.117672 132.941998 
L 598.907902 132.444464 
L 600.488363 130.173951 
L 602.068823 129.129295 
L 603.649284 129.081114 
L 606.810205 130.354235 
L 607.600436 129.966512 
L 609.180896 129.661543 
L 610.761357 130.596253 
L 611.551587 131.00154 
L 613.132048 132.031246 
L 613.922278 133.069267 
L 615.502739 135.638118 
L 617.083199 138.071496 
L 617.87343 138.925814 
L 618.66366 139.484546 
L 619.45389 140.181384 
L 620.24412 141.535088 
L 621.034351 141.762809 
L 621.824581 141.845617 
L 622.614811 141.59701 
L 623.405042 141.59438 
L 624.195272 141.474393 
L 624.985502 141.225522 
L 625.775733 140.833095 
L 627.356193 139.913511 
L 628.936654 139.731025 
L 630.517114 138.781688 
L 631.307345 138.367731 
L 632.097575 137.339904 
L 632.887805 136.682557 
L 633.678036 135.496413 
L 635.258496 133.86702 
L 636.838957 132.426449 
L 638.419417 132.228566 
L 639.209648 132.434883 
L 639.999878 131.833503 
L 641.580339 132.111695 
L 642.370569 132.962149 
L 643.160799 134.085503 
L 643.95103 134.920174 
L 648.692411 140.790756 
L 649.482642 141.717715 
L 652.643563 146.463844 
L 653.433793 147.216721 
L 654.224023 147.505992 
L 655.804484 148.400496 
L 656.594714 148.707489 
L 657.384945 148.860065 
L 658.175175 149.256559 
L 658.965405 149.338267 
L 660.545866 150.149976 
L 661.336096 150.216877 
L 662.126327 149.87454 
L 662.916557 149.339364 
L 664.497017 148.608732 
L 665.287248 148.382574 
L 666.077478 147.43935 
L 666.867708 147.095896 
L 667.657939 146.133177 
L 670.81886 144.048964 
L 671.60909 143.837821 
L 672.39932 144.056659 
L 673.979781 145.149309 
L 674.770011 145.318594 
L 675.560242 145.7287 
L 677.930933 145.921041 
L 678.721163 146.256902 
L 679.511393 146.30285 
L 680.301623 145.582991 
L 681.091854 145.844198 
L 681.882084 146.437511 
L 684.252775 146.975761 
L 685.043005 146.719367 
L 685.833236 147.734457 
L 686.623466 148.144291 
L 687.413696 149.074029 
L 688.203927 149.696635 
L 688.994157 150.10984 
L 690.574617 150.700306 
L 691.364848 151.054583 
L 692.155078 150.599266 
L 692.945308 149.87202 
L 693.735539 149.643127 
L 695.315999 149.56673 
L 696.10623 149.962116 
L 697.68669 149.673683 
L 698.47692 149.675818 
L 699.267151 150.430206 
L 700.057381 151.642579 
L 700.847611 152.214404 
L 702.428072 152.218418 
L 703.218302 152.519268 
L 704.008533 152.530714 
L 704.798763 152.966845 
L 706.379223 152.687368 
L 708.749914 153.012087 
L 710.330375 153.189309 
L 712.701066 152.827705 
L 713.491296 152.350425 
L 714.281527 152.154997 
L 715.071757 152.243679 
L 716.652217 153.068431 
L 718.232678 153.487159 
L 720.603369 153.406432 
L 721.393599 153.76459 
L 722.18383 153.928948 
L 722.97406 153.663323 
L 724.55452 153.72185 
L 726.134981 154.614072 
L 726.925211 154.477149 
L 727.715442 154.066573 
L 728.505672 153.889307 
L 729.295902 153.997417 
L 730.876363 153.61798 
L 731.666593 154.038304 
L 732.456823 154.237538 
L 734.037284 155.33171 
L 734.827514 155.21944 
L 736.407975 154.457867 
L 737.198205 154.524754 
L 737.988436 154.470262 
L 741.149357 153.200385 
L 742.729817 153.607842 
L 743.520048 153.571875 
L 744.310278 153.666876 
L 745.100508 153.342187 
L 745.890739 153.352439 
L 745.890739 153.352439 
" clip-path="url(#p57cd370b65)" style="fill: none; stroke: #1f77b4; stroke-width: 1.5; stroke-linecap: square"/>
   </g>
   <g id="line2d_24">
    <path d="M 153.218011 365.94258 
L 154.008242 363.782811 
L 155.588702 363.02642 
L 156.378933 363.284878 
L 157.169163 363.267845 
L 158.749623 361.636391 
L 159.539854 361.487872 
L 161.120314 359.99587 
L 161.910545 359.8334 
L 162.700775 358.513819 
L 163.491005 356.50454 
L 164.281236 355.045174 
L 165.861696 351.117164 
L 166.651927 348.540053 
L 167.442157 345.273491 
L 172.183539 331.52077 
L 176.13469 310.207206 
L 180.876072 281.779219 
L 182.456533 272.810256 
L 184.827223 262.521484 
L 185.617454 259.80754 
L 186.407684 257.531918 
L 187.197914 255.859612 
L 187.988145 253.677547 
L 191.149066 246.910414 
L 191.939296 246.042517 
L 192.729527 245.645656 
L 193.519757 244.907061 
L 194.309987 244.428763 
L 195.100217 243.549991 
L 195.890448 243.00441 
L 196.680678 242.739373 
L 197.470908 242.320227 
L 198.261139 242.073387 
L 199.051369 242.100894 
L 199.841599 242.295246 
L 200.63183 242.270353 
L 201.42206 242.483761 
L 206.953672 242.653594 
L 210.114593 241.827312 
L 210.904823 241.301159 
L 212.485284 239.969518 
L 213.275514 239.470155 
L 214.065745 239.161902 
L 214.855975 239.018805 
L 215.646205 239.232467 
L 217.226666 238.88314 
L 218.016896 238.991081 
L 218.807127 238.891453 
L 219.597357 238.607969 
L 221.177817 238.436014 
L 221.968048 238.614369 
L 223.548508 238.519206 
L 224.338739 238.525399 
L 225.128969 237.681458 
L 225.919199 236.625629 
L 226.70943 236.443811 
L 229.08012 236.278494 
L 229.870351 235.813791 
L 232.241042 235.476064 
L 233.031272 235.734034 
L 233.821502 235.360681 
L 234.611733 235.33148 
L 235.401963 234.8536 
L 236.192193 234.980157 
L 237.772654 234.266879 
L 238.562884 233.838388 
L 240.143345 231.323282 
L 242.514036 227.25284 
L 244.094496 224.550017 
L 245.674957 222.577995 
L 247.255417 220.016523 
L 248.835878 216.149971 
L 250.416339 212.621794 
L 251.206569 211.127759 
L 252.78703 207.00211 
L 253.57726 205.454089 
L 254.36749 203.53955 
L 256.738181 199.446146 
L 258.318642 197.421296 
L 259.108872 197.504649 
L 259.899102 197.712853 
L 260.689333 197.636657 
L 262.269793 197.120642 
L 263.060023 197.270384 
L 263.850254 196.813517 
L 264.640484 196.964724 
L 265.430714 197.445606 
L 267.011175 197.942884 
L 267.801405 198.62632 
L 271.752557 203.990137 
L 273.333017 206.43294 
L 274.123248 208.370061 
L 276.493939 212.653456 
L 278.86463 215.810046 
L 281.23532 218.139664 
L 282.025551 218.788141 
L 282.815781 218.731612 
L 283.606011 219.095986 
L 284.396242 219.286618 
L 285.186472 219.123999 
L 286.766933 217.777638 
L 288.347393 217.22437 
L 289.927854 217.544114 
L 292.298545 217.366176 
L 293.088775 217.510547 
L 293.879005 217.000746 
L 294.669236 216.660005 
L 296.249696 215.592237 
L 297.830157 214.744194 
L 300.200848 214.490389 
L 301.781308 214.94483 
L 303.361769 216.014226 
L 304.151999 215.996858 
L 304.94223 215.696541 
L 305.73246 216.122768 
L 306.52269 216.732554 
L 307.31292 217.065429 
L 308.103151 217.082722 
L 308.893381 216.627532 
L 309.683611 216.309837 
L 312.054302 215.892563 
L 312.844533 215.376016 
L 314.424993 214.622585 
L 315.215223 214.050801 
L 316.005454 214.01972 
L 316.795684 213.83805 
L 317.585914 214.014629 
L 319.166375 213.96652 
L 319.956605 213.665084 
L 322.327296 212.123412 
L 323.117527 211.738091 
L 323.907757 211.945089 
L 325.488217 213.279377 
L 326.278448 213.41003 
L 327.068678 213.724674 
L 327.858908 214.223387 
L 328.649139 215.140663 
L 329.439369 215.854923 
L 330.229599 216.268807 
L 331.81006 217.754491 
L 332.60029 218.631788 
L 334.180751 219.562391 
L 334.970981 220.387587 
L 336.551442 220.724935 
L 337.341672 220.386231 
L 339.712363 218.698122 
L 340.502593 218.258803 
L 341.292823 218.110737 
L 343.663514 216.796155 
L 345.243975 216.078865 
L 346.034205 216.029408 
L 347.614666 215.225024 
L 348.404896 215.007517 
L 349.195127 214.599019 
L 349.985357 214.534007 
L 350.775587 214.114827 
L 351.565817 213.829118 
L 352.356048 213.695592 
L 353.146278 214.044325 
L 355.516969 214.540403 
L 357.88766 217.279297 
L 360.258351 221.722217 
L 361.838811 223.932304 
L 363.419272 226.089153 
L 364.209502 227.701773 
L 364.999733 228.851393 
L 365.789963 229.63081 
L 366.580193 230.745184 
L 367.370423 232.094724 
L 368.160654 232.738352 
L 368.950884 232.83634 
L 370.531345 232.764177 
L 372.111805 231.40746 
L 372.902036 230.751719 
L 373.692266 230.539693 
L 375.272727 228.341063 
L 376.062957 226.653982 
L 378.433648 222.448103 
L 381.594569 218.36747 
L 382.384799 217.529901 
L 383.17503 216.435562 
L 384.75549 213.190067 
L 385.54572 212.003366 
L 387.126181 208.934375 
L 387.916411 207.609369 
L 390.287102 205.977665 
L 391.867563 206.028472 
L 392.657793 205.820771 
L 393.448023 205.383249 
L 395.028484 206.920575 
L 396.608945 208.512487 
L 398.189405 209.592082 
L 400.560096 210.090568 
L 402.140557 210.507951 
L 402.930787 210.983317 
L 405.301478 213.023552 
L 406.091708 213.885569 
L 407.672169 215.305377 
L 408.462399 216.260241 
L 410.83309 218.411168 
L 413.203781 219.571259 
L 413.994011 219.188245 
L 414.784242 218.665553 
L 415.574472 218.484716 
L 416.364702 218.113069 
L 417.154933 218.222112 
L 417.945163 217.88253 
L 418.735393 217.712686 
L 419.525623 218.127823 
L 420.315854 218.723834 
L 421.106084 218.840379 
L 422.686545 218.867042 
L 424.267005 219.461127 
L 425.057236 219.945362 
L 425.847466 220.646372 
L 427.427927 221.507924 
L 430.588848 221.542935 
L 431.379078 221.75608 
L 432.169308 221.837844 
L 432.959539 222.408618 
L 434.539999 224.275166 
L 435.33023 224.820936 
L 436.12046 225.608453 
L 437.70092 226.497629 
L 438.491151 226.963405 
L 440.071611 226.935606 
L 441.652072 228.044292 
L 442.442302 228.774596 
L 443.232533 228.952041 
L 444.022763 228.966311 
L 445.603223 228.126818 
L 447.183684 227.253312 
L 447.973914 227.340323 
L 448.764145 227.241124 
L 451.925066 228.986853 
L 454.295757 228.187339 
L 455.085987 227.714106 
L 457.456678 226.675682 
L 458.246908 226.645504 
L 459.827369 226.930638 
L 460.617599 226.934379 
L 461.40783 227.065584 
L 462.19806 226.547954 
L 462.98829 226.427776 
L 465.358981 227.23487 
L 466.149211 227.694515 
L 466.939442 228.457065 
L 467.729672 228.434161 
L 468.519902 228.664588 
L 469.310133 228.350226 
L 470.100363 227.596349 
L 470.890593 227.010945 
L 471.680823 226.273964 
L 473.261284 225.055803 
L 474.051514 224.84784 
L 474.841745 224.918049 
L 476.422205 224.519503 
L 478.002666 223.968265 
L 478.792896 223.141461 
L 479.583127 222.590886 
L 480.373357 221.885938 
L 481.953817 220.241167 
L 483.534278 218.950936 
L 484.324508 218.158582 
L 485.904969 217.03449 
L 486.695199 215.931435 
L 488.27566 214.426646 
L 489.06589 213.583684 
L 490.646351 212.778146 
L 491.436581 212.938906 
L 493.017042 214.108417 
L 493.807272 214.453369 
L 494.597502 214.626912 
L 495.387733 214.968125 
L 496.177963 215.133206 
L 496.968193 215.578075 
L 497.758423 215.488866 
L 498.548654 215.657784 
L 500.129114 216.532897 
L 501.709575 217.9965 
L 502.499805 218.175499 
L 503.290036 218.179179 
L 504.080266 218.430462 
L 504.870496 218.359025 
L 505.660727 217.805449 
L 506.450957 217.8879 
L 508.031417 217.37126 
L 508.821648 217.274018 
L 509.611878 216.771123 
L 511.192339 216.185928 
L 511.982569 215.701615 
L 512.772799 214.926085 
L 513.56303 214.534668 
L 515.14349 214.941057 
L 516.723951 215.73446 
L 517.514181 216.417647 
L 518.304411 216.694655 
L 519.094642 215.941821 
L 520.675102 215.087215 
L 521.465333 214.427196 
L 522.255563 214.081812 
L 523.836023 212.771462 
L 524.626254 212.39866 
L 525.416484 212.422212 
L 526.206714 211.823362 
L 526.996945 211.729239 
L 528.577405 212.096904 
L 529.367636 212.840732 
L 530.157866 213.210011 
L 531.738327 213.196371 
L 532.528557 213.643252 
L 533.318787 213.797796 
L 534.109017 213.246969 
L 534.899248 212.540626 
L 537.269939 209.792076 
L 538.060169 209.214499 
L 538.850399 209.197335 
L 540.43086 208.839856 
L 542.01132 209.17515 
L 543.591781 209.76738 
L 544.382011 209.655692 
L 545.172242 209.682873 
L 545.962472 209.82306 
L 546.752702 209.603556 
L 548.333163 209.618792 
L 549.123393 209.308228 
L 549.913623 208.741643 
L 550.703854 208.375956 
L 551.494084 207.687123 
L 553.074545 205.893802 
L 554.655005 204.503693 
L 557.025696 203.051094 
L 557.815927 202.870446 
L 558.606157 202.327991 
L 560.186617 201.620388 
L 560.976848 201.142178 
L 562.557308 199.566166 
L 564.137769 198.714058 
L 565.71823 199.006998 
L 566.50846 199.347521 
L 567.29869 199.272838 
L 569.669381 197.664832 
L 570.459611 197.061393 
L 571.249842 196.867064 
L 572.040072 196.792532 
L 572.830302 197.215158 
L 573.620533 198.02517 
L 574.410763 198.621871 
L 575.991223 199.441406 
L 578.361914 201.638637 
L 579.152145 201.723699 
L 580.732605 201.387731 
L 582.313066 202.239631 
L 583.103296 202.345216 
L 583.893527 202.662124 
L 585.473987 202.05968 
L 586.264217 201.937988 
L 587.844678 201.129665 
L 588.634908 200.823133 
L 590.215369 201.452466 
L 591.005599 201.505451 
L 591.79583 201.68283 
L 594.16652 199.86976 
L 595.746981 199.467154 
L 596.537211 198.826781 
L 597.327442 197.736698 
L 598.117672 197.146208 
L 598.907902 196.764777 
L 599.698133 196.20306 
L 600.488363 196.376369 
L 602.859054 194.831204 
L 604.439514 192.983506 
L 606.019975 191.078867 
L 606.810205 190.591848 
L 607.600436 190.595451 
L 608.390666 190.777965 
L 609.971127 190.496996 
L 610.761357 190.251321 
L 612.341817 190.945524 
L 613.922278 191.6398 
L 614.712508 191.754244 
L 615.502739 191.672082 
L 616.292969 191.751436 
L 617.083199 192.151247 
L 617.87343 192.149829 
L 618.66366 191.758148 
L 619.45389 191.674732 
L 620.24412 191.00941 
L 621.034351 191.019458 
L 622.614811 192.332983 
L 624.195272 194.503647 
L 624.985502 195.896011 
L 625.775733 197.001635 
L 626.565963 197.847204 
L 627.356193 198.416057 
L 628.146423 198.204888 
L 628.936654 198.594176 
L 630.517114 199.581635 
L 632.097575 199.292929 
L 632.887805 198.8153 
L 633.678036 198.119837 
L 635.258496 197.496716 
L 637.629187 196.535902 
L 638.419417 197.172361 
L 639.209648 197.646626 
L 639.999878 198.664505 
L 640.790108 198.827873 
L 641.580339 198.767728 
L 642.370569 198.306528 
L 643.160799 197.183547 
L 643.95103 196.373917 
L 645.53149 194.177131 
L 647.111951 192.876039 
L 648.692411 191.402134 
L 649.482642 190.601062 
L 650.272872 190.300303 
L 651.853333 189.463643 
L 653.433793 188.974956 
L 654.224023 188.573844 
L 656.594714 186.842032 
L 657.384945 186.483729 
L 658.965405 184.863561 
L 659.755636 183.627194 
L 661.336096 182.473547 
L 662.126327 182.390877 
L 662.916557 182.810886 
L 663.706787 182.866137 
L 665.287248 182.408655 
L 666.867708 181.443144 
L 667.657939 181.928032 
L 668.448169 182.249292 
L 669.238399 181.937883 
L 670.02863 181.471749 
L 670.81886 181.22348 
L 672.39932 180.42315 
L 673.979781 180.234841 
L 674.770011 180.45087 
L 675.560242 181.027592 
L 676.350472 181.269948 
L 677.140702 181.877113 
L 679.511393 184.556949 
L 681.882084 185.727813 
L 682.672314 186.026397 
L 683.462545 186.492728 
L 684.252775 187.471734 
L 685.833236 188.97405 
L 686.623466 189.710066 
L 687.413696 189.957603 
L 688.203927 189.901284 
L 688.994157 190.604626 
L 689.784387 191.494894 
L 690.574617 191.687141 
L 691.364848 192.495333 
L 693.735539 194.2556 
L 694.525769 194.68684 
L 696.10623 194.721421 
L 696.89646 194.391326 
L 699.267151 191.211454 
L 700.847611 189.249704 
L 701.637842 188.556187 
L 704.008533 187.154283 
L 706.379223 186.877511 
L 707.169454 186.607021 
L 707.959684 186.639703 
L 708.749914 185.894944 
L 709.540145 184.935245 
L 711.120605 184.775442 
L 713.491296 184.931495 
L 717.442448 186.139445 
L 719.022908 187.087427 
L 719.813139 187.814562 
L 720.603369 188.279518 
L 722.18383 188.795716 
L 726.134981 188.644538 
L 726.925211 188.983473 
L 727.715442 189.156247 
L 730.086133 191.164096 
L 730.876363 191.247433 
L 731.666593 191.174473 
L 732.456823 190.979569 
L 733.247054 191.063216 
L 735.617745 190.318206 
L 736.407975 190.138662 
L 737.198205 189.62753 
L 739.568896 189.813574 
L 741.149357 190.546966 
L 741.939587 190.47246 
L 744.310278 191.58267 
L 745.100508 191.748278 
L 745.890739 192.469942 
L 745.890739 192.469942 
" clip-path="url(#p57cd370b65)" style="fill: none; stroke: #ff7f0e; stroke-width: 1.5; stroke-linecap: square"/>
   </g>
   <g id="line2d_25">
    <path d="M 153.218011 349.916932 
L 154.008242 360.805595 
L 155.588702 362.64605 
L 156.378933 360.988736 
L 157.169163 358.439282 
L 157.959393 357.039117 
L 159.539854 352.981795 
L 160.330084 351.154176 
L 161.910545 345.098298 
L 162.700775 342.920924 
L 163.491005 340.259878 
L 164.281236 338.233434 
L 165.861696 333.703941 
L 169.022617 320.635309 
L 171.393308 309.599848 
L 172.183539 306.336588 
L 172.973769 301.902361 
L 174.55423 291.200852 
L 176.13469 281.101172 
L 178.505381 267.466093 
L 179.295611 263.165179 
L 180.876072 256.33132 
L 184.827223 241.679017 
L 185.617454 238.939232 
L 186.407684 237.134814 
L 187.197914 235.766943 
L 187.988145 234.653414 
L 188.778375 234.145436 
L 189.568605 234.19602 
L 190.358836 234.620697 
L 191.149066 234.823403 
L 193.519757 236.043944 
L 194.309987 236.069822 
L 195.100217 236.516392 
L 195.890448 236.770711 
L 197.470908 238.72041 
L 198.261139 238.942999 
L 199.051369 239.338733 
L 199.841599 239.156391 
L 200.63183 239.764269 
L 201.42206 240.181374 
L 202.21229 240.470035 
L 203.00252 241.338447 
L 204.582981 242.337775 
L 205.373211 243.213815 
L 206.163442 243.7366 
L 206.953672 243.903413 
L 207.743902 243.528736 
L 210.114593 243.307341 
L 213.275514 242.867716 
L 214.065745 243.311428 
L 214.855975 243.122468 
L 215.646205 243.074715 
L 217.226666 241.411869 
L 218.016896 241.150981 
L 218.807127 240.74795 
L 219.597357 240.620036 
L 221.177817 239.85547 
L 221.968048 239.49338 
L 225.128969 236.983355 
L 226.70943 236.916713 
L 227.49966 237.456343 
L 228.28989 237.625073 
L 229.870351 237.395569 
L 231.450811 237.546648 
L 232.241042 237.290308 
L 235.401963 234.584308 
L 238.562884 233.203887 
L 239.353114 232.425419 
L 240.933575 230.324074 
L 241.723805 229.706321 
L 242.514036 229.234559 
L 244.094496 228.660725 
L 244.884727 227.714541 
L 246.465187 226.250634 
L 247.255417 225.833702 
L 248.045648 225.260671 
L 248.835878 224.992096 
L 249.626108 224.975549 
L 251.206569 224.565866 
L 251.996799 224.558315 
L 252.78703 224.802397 
L 253.57726 225.324785 
L 254.36749 226.327072 
L 256.738181 228.357895 
L 258.318642 229.18096 
L 259.108872 229.5201 
L 259.899102 230.249163 
L 260.689333 230.81348 
L 261.479563 231.043316 
L 262.269793 230.931124 
L 263.850254 231.320813 
L 264.640484 232.011619 
L 266.220945 232.605672 
L 268.591636 232.94527 
L 269.381866 232.913357 
L 270.172096 232.619496 
L 270.962327 232.492828 
L 271.752557 232.523041 
L 272.542787 232.74967 
L 273.333017 232.605908 
L 274.913478 231.96091 
L 275.703708 231.507632 
L 277.284169 231.085895 
L 279.65486 230.806131 
L 281.23532 231.175878 
L 282.025551 231.133043 
L 283.606011 230.099125 
L 284.396242 229.542797 
L 285.186472 229.357339 
L 286.766933 229.721149 
L 288.347393 230.833166 
L 289.137623 231.31477 
L 290.718084 232.957074 
L 291.508314 233.300459 
L 292.298545 233.521228 
L 293.879005 233.057551 
L 294.669236 232.661837 
L 295.459466 232.929621 
L 296.249696 233.357268 
L 299.410617 235.853862 
L 300.200848 236.354443 
L 301.781308 237.896682 
L 302.571539 239.269228 
L 303.361769 240.164135 
L 304.94223 241.325233 
L 306.52269 241.555912 
L 307.31292 241.071668 
L 308.893381 240.402275 
L 309.683611 239.922889 
L 312.844533 238.849261 
L 313.634763 238.831433 
L 314.424993 239.140533 
L 315.215223 238.864506 
L 316.795684 238.630745 
L 317.585914 238.366897 
L 318.376145 238.694602 
L 319.166375 238.787775 
L 320.746836 237.873193 
L 321.537066 237.89248 
L 322.327296 237.327627 
L 323.117527 237.2714 
L 323.907757 237.890684 
L 324.697987 238.047734 
L 327.858908 239.667889 
L 328.649139 239.624243 
L 329.439369 239.733328 
L 331.01983 239.713496 
L 332.60029 240.494883 
L 333.39052 240.346438 
L 334.970981 238.925117 
L 337.341672 236.070908 
L 338.922133 233.839396 
L 340.502593 232.689576 
L 342.873284 229.763581 
L 344.453745 227.130927 
L 345.243975 226.075282 
L 346.824436 223.607014 
L 348.404896 222.422824 
L 349.195127 221.964884 
L 350.775587 220.82899 
L 351.565817 219.961092 
L 352.356048 219.421103 
L 353.146278 219.351993 
L 355.516969 221.062496 
L 356.307199 221.124374 
L 357.09743 221.317344 
L 360.258351 221.636528 
L 361.838811 222.146633 
L 363.419272 222.692043 
L 364.999733 222.431831 
L 366.580193 221.618101 
L 367.370423 220.740327 
L 369.741114 219.406775 
L 370.531345 219.022592 
L 372.902036 217.531301 
L 373.692266 217.104958 
L 375.272727 216.994562 
L 376.062957 217.130751 
L 378.433648 216.746861 
L 380.014108 216.352536 
L 380.804339 215.806127 
L 381.594569 215.479199 
L 382.384799 215.290885 
L 383.17503 215.247995 
L 387.916411 216.469264 
L 389.496872 215.763248 
L 391.867563 214.293208 
L 392.657793 213.994166 
L 393.448023 213.241337 
L 394.238254 212.305182 
L 395.818714 211.115436 
L 397.399175 210.352485 
L 399.769866 209.877956 
L 401.350327 210.029349 
L 402.930787 209.779614 
L 403.721017 209.643043 
L 404.511248 209.806542 
L 410.04286 213.054896 
L 411.62332 213.47665 
L 412.413551 213.555137 
L 413.994011 214.370323 
L 414.784242 214.601564 
L 415.574472 214.627927 
L 416.364702 214.52021 
L 417.154933 214.667318 
L 419.525623 215.699471 
L 421.106084 217.005502 
L 421.896314 217.76616 
L 424.267005 218.8471 
L 426.637696 219.424525 
L 427.427927 219.210951 
L 429.008387 218.991472 
L 429.798617 218.580855 
L 430.588848 218.533269 
L 431.379078 218.261036 
L 432.959539 217.98864 
L 433.749769 217.843251 
L 434.539999 217.384769 
L 435.33023 217.105334 
L 436.12046 217.070329 
L 439.281381 216.162821 
L 440.071611 215.666016 
L 440.861842 215.015989 
L 442.442302 214.463831 
L 443.232533 214.006055 
L 444.022763 213.832013 
L 445.603223 213.865137 
L 446.393454 213.952582 
L 447.183684 214.283227 
L 447.973914 214.349555 
L 448.764145 214.793582 
L 449.554375 215.783953 
L 450.344605 216.59226 
L 451.134836 217.63392 
L 452.715296 218.786417 
L 453.505527 219.243845 
L 455.085987 221.054587 
L 456.666448 222.07051 
L 457.456678 222.407228 
L 458.246908 222.502991 
L 459.827369 223.278305 
L 460.617599 224.198872 
L 462.19806 225.148771 
L 462.98829 225.782259 
L 463.77852 226.075742 
L 464.568751 225.897773 
L 465.358981 225.443729 
L 466.939442 224.844389 
L 467.729672 225.049055 
L 469.310133 224.757886 
L 470.100363 224.980098 
L 472.471054 224.146904 
L 474.841745 224.22447 
L 475.631975 224.471719 
L 476.422205 224.585914 
L 477.212436 224.886999 
L 478.792896 224.128218 
L 480.373357 222.203775 
L 481.163587 221.029344 
L 483.534278 218.387011 
L 484.324508 217.975389 
L 485.904969 217.373261 
L 486.695199 216.872381 
L 488.27566 216.569536 
L 489.06589 216.291186 
L 489.85612 215.495849 
L 492.226811 214.304866 
L 493.017042 213.664466 
L 494.597502 212.109911 
L 495.387733 211.509034 
L 496.177963 211.205434 
L 496.968193 210.671366 
L 497.758423 210.598292 
L 498.548654 210.661078 
L 499.338884 211.202237 
L 500.129114 211.112403 
L 500.919345 211.310669 
L 502.499805 211.497929 
L 503.290036 211.252053 
L 504.870496 210.313174 
L 505.660727 209.964997 
L 506.450957 209.805021 
L 507.241187 209.269251 
L 508.031417 209.061298 
L 510.402108 207.348566 
L 511.192339 206.683531 
L 511.982569 206.388616 
L 512.772799 206.312739 
L 518.304411 206.816997 
L 519.094642 206.750781 
L 519.884872 207.216309 
L 520.675102 207.519081 
L 522.255563 208.496481 
L 523.045793 208.985264 
L 523.836023 209.872379 
L 525.416484 211.146967 
L 526.996945 211.725716 
L 527.787175 211.902996 
L 529.367636 213.452535 
L 530.157866 214.60857 
L 531.738327 216.229123 
L 532.528557 216.430341 
L 534.109017 216.525833 
L 535.689478 215.938892 
L 536.479708 215.499521 
L 537.269939 215.339454 
L 538.060169 215.29833 
L 538.850399 215.556334 
L 539.64063 215.342815 
L 540.43086 215.402821 
L 541.22109 215.073807 
L 542.01132 214.390039 
L 542.801551 214.112172 
L 543.591781 213.666058 
L 544.382011 213.503188 
L 545.172242 213.131406 
L 545.962472 212.895277 
L 546.752702 212.006489 
L 549.913623 209.753628 
L 550.703854 209.481919 
L 552.284314 209.500395 
L 553.864775 209.483279 
L 556.235466 211.152934 
L 558.606157 211.834352 
L 559.396387 211.709933 
L 563.347539 211.699546 
L 564.137769 211.145592 
L 564.927999 210.825572 
L 565.71823 210.723659 
L 566.50846 211.254898 
L 567.29869 211.362659 
L 568.879151 211.404567 
L 572.040072 212.325528 
L 572.830302 212.780913 
L 573.620533 212.941549 
L 574.410763 212.945158 
L 575.200993 213.079224 
L 575.991223 213.077863 
L 576.781454 213.449267 
L 577.571684 213.466316 
L 578.361914 213.19443 
L 579.152145 213.625595 
L 579.942375 213.644633 
L 580.732605 213.895057 
L 581.522836 214.292239 
L 582.313066 214.173749 
L 583.103296 214.213338 
L 583.893527 214.597952 
L 585.473987 215.148711 
L 586.264217 215.54367 
L 587.844678 216.90472 
L 588.634908 217.375469 
L 589.425139 217.62522 
L 591.79583 218.633818 
L 596.537211 219.767812 
L 598.117672 220.481979 
L 598.907902 220.589354 
L 600.488363 221.224357 
L 602.859054 222.815337 
L 604.439514 222.861939 
L 606.019975 222.419572 
L 606.810205 222.138466 
L 607.600436 221.440977 
L 609.971127 219.939518 
L 611.551587 219.477156 
L 612.341817 219.13547 
L 613.132048 218.667866 
L 613.922278 217.980322 
L 614.712508 217.538471 
L 615.502739 216.882223 
L 616.292969 216.012552 
L 617.083199 214.96326 
L 617.87343 213.691671 
L 618.66366 212.8601 
L 619.45389 211.693932 
L 620.24412 210.234329 
L 621.824581 207.00449 
L 624.195272 202.442106 
L 625.775733 200.214544 
L 626.565963 198.663551 
L 627.356193 197.725408 
L 628.146423 197.11831 
L 628.936654 196.269272 
L 630.517114 193.751541 
L 632.097575 192.229674 
L 632.887805 191.754264 
L 633.678036 191.481907 
L 634.468266 190.832549 
L 635.258496 190.437649 
L 636.048727 190.20069 
L 637.629187 190.545934 
L 638.419417 190.521404 
L 639.209648 190.333529 
L 639.999878 190.410263 
L 640.790108 190.746098 
L 642.370569 191.842131 
L 643.160799 192.773146 
L 643.95103 194.030327 
L 644.74126 194.785881 
L 645.53149 195.704794 
L 646.32172 197.062699 
L 647.902181 198.922022 
L 648.692411 199.362562 
L 649.482642 199.954318 
L 650.272872 200.849755 
L 652.643563 201.26578 
L 653.433793 201.511321 
L 655.014254 202.299948 
L 655.804484 202.437286 
L 656.594714 202.095973 
L 657.384945 201.895838 
L 658.175175 201.454451 
L 659.755636 201.09306 
L 660.545866 201.058788 
L 662.126327 200.670873 
L 662.916557 200.644568 
L 663.706787 200.370121 
L 666.077478 199.218888 
L 666.867708 199.371819 
L 667.657939 199.20113 
L 669.238399 199.212794 
L 670.02863 198.401989 
L 670.81886 198.164852 
L 671.60909 197.526415 
L 672.39932 197.089648 
L 673.979781 195.876887 
L 674.770011 195.314466 
L 675.560242 194.985296 
L 677.930933 195.607433 
L 678.721163 196.004574 
L 679.511393 196.227618 
L 681.091854 196.340636 
L 682.672314 196.752868 
L 683.462545 197.227407 
L 684.252775 197.997742 
L 685.833236 198.856495 
L 687.413696 199.173003 
L 688.203927 199.601707 
L 688.994157 199.696567 
L 692.945308 204.779714 
L 694.525769 206.126161 
L 695.315999 207.193121 
L 696.10623 207.954863 
L 699.267151 210.144411 
L 701.637842 212.272445 
L 702.428072 212.823592 
L 704.008533 212.785754 
L 704.798763 213.013808 
L 707.169454 213.019512 
L 708.749914 213.799206 
L 710.330375 213.618915 
L 711.120605 213.704423 
L 711.910836 213.529828 
L 713.491296 214.852247 
L 714.281527 215.024555 
L 715.071757 214.570771 
L 715.861987 214.40519 
L 718.232678 214.397499 
L 719.022908 214.238519 
L 720.603369 213.547688 
L 721.393599 213.394217 
L 722.18383 212.890752 
L 725.344751 212.848991 
L 726.925211 213.205504 
L 727.715442 213.13112 
L 728.505672 213.174218 
L 730.086133 214.327628 
L 730.876363 215.087824 
L 731.666593 215.634765 
L 733.247054 215.515522 
L 734.037284 215.576942 
L 735.617745 216.39464 
L 737.198205 217.662086 
L 738.778666 219.786755 
L 740.359127 222.228476 
L 741.149357 222.784412 
L 741.939587 223.517589 
L 744.310278 224.894115 
L 745.100508 225.774443 
L 745.890739 226.039515 
L 745.890739 226.039515 
" clip-path="url(#p57cd370b65)" style="fill: none; stroke: #2ca02c; stroke-width: 1.5; stroke-linecap: square"/>
   </g>
   <g id="line2d_26">
    <path d="M 153.218011 366.17407 
L 154.008242 368.244189 
L 154.798472 368.264444 
L 155.588702 368.124745 
L 156.378933 369.162293 
L 157.169163 368.578848 
L 157.959393 367.197204 
L 158.749623 366.187783 
L 159.539854 363.640339 
L 160.330084 360.711946 
L 161.120314 358.613927 
L 162.700775 353.44427 
L 163.491005 350.875977 
L 164.281236 347.863703 
L 165.071466 345.363822 
L 168.232387 333.233296 
L 169.812848 328.758858 
L 172.183539 323.588394 
L 174.55423 311.659836 
L 175.34446 307.643111 
L 176.92492 299.009037 
L 178.505381 290.479664 
L 182.456533 273.367259 
L 183.246763 270.371265 
L 184.036993 267.867631 
L 184.827223 264.957631 
L 187.988145 256.880281 
L 189.568605 253.414043 
L 191.149066 249.428662 
L 193.519757 244.983095 
L 195.100217 242.66213 
L 197.470908 240.395962 
L 199.051369 239.330414 
L 199.841599 239.041248 
L 200.63183 238.934956 
L 203.00252 237.83759 
L 203.792751 237.59559 
L 204.582981 237.698119 
L 205.373211 237.514438 
L 206.953672 237.8683 
L 207.743902 237.574117 
L 208.534133 237.144465 
L 210.114593 236.6404 
L 210.904823 236.292294 
L 211.695054 235.616338 
L 213.275514 235.109805 
L 214.065745 234.692891 
L 214.855975 234.592296 
L 215.646205 234.027047 
L 218.016896 230.819512 
L 218.807127 229.195816 
L 219.597357 228.2241 
L 220.387587 226.722901 
L 221.177817 226.033919 
L 222.758278 225.456391 
L 223.548508 224.559086 
L 227.49966 217.573969 
L 228.28989 216.454003 
L 229.870351 213.46243 
L 231.450811 210.949836 
L 232.241042 209.970437 
L 233.031272 209.375249 
L 233.821502 208.290692 
L 234.611733 206.653296 
L 235.401963 205.368614 
L 236.192193 204.644029 
L 236.982423 204.24286 
L 237.772654 203.605203 
L 238.562884 203.632182 
L 239.353114 203.200854 
L 240.143345 202.920677 
L 240.933575 202.319523 
L 242.514036 200.543297 
L 243.304266 200.625044 
L 244.094496 201.241683 
L 244.884727 201.698826 
L 245.674957 202.414334 
L 246.465187 203.435621 
L 247.255417 204.668581 
L 248.045648 205.171311 
L 248.835878 206.102179 
L 249.626108 206.848602 
L 250.416339 207.272778 
L 251.996799 208.930089 
L 252.78703 209.505257 
L 253.57726 210.451464 
L 254.36749 211.808953 
L 255.15772 213.452761 
L 257.528411 217.53724 
L 259.899102 220.830766 
L 261.479563 223.268666 
L 262.269793 224.38344 
L 264.640484 226.957019 
L 265.430714 227.974468 
L 267.011175 229.195287 
L 267.801405 230.229448 
L 268.591636 231.018203 
L 270.962327 234.341996 
L 273.333017 236.681548 
L 274.123248 237.48806 
L 275.703708 238.592222 
L 276.493939 238.930627 
L 277.284169 238.785084 
L 278.86463 240.042717 
L 282.025551 241.808746 
L 283.606011 242.561104 
L 284.396242 242.619995 
L 285.186472 242.983553 
L 285.976702 244.090146 
L 291.508314 249.680378 
L 292.298545 250.699383 
L 293.088775 251.451473 
L 294.669236 252.557304 
L 295.459466 252.849193 
L 296.249696 253.296157 
L 297.039927 253.918343 
L 298.620387 254.180923 
L 299.410617 254.31616 
L 300.991078 255.060148 
L 301.781308 255.220877 
L 303.361769 255.737208 
L 304.151999 255.950352 
L 305.73246 255.689406 
L 307.31292 256.410842 
L 308.103151 256.909726 
L 308.893381 257.157186 
L 311.264072 257.522944 
L 312.054302 257.460722 
L 312.844533 257.265921 
L 314.424993 258.155647 
L 315.215223 258.91559 
L 321.537066 267.431259 
L 323.117527 268.759532 
L 324.697987 270.566653 
L 325.488217 270.774349 
L 327.068678 269.890851 
L 327.858908 269.329005 
L 328.649139 269.208234 
L 330.229599 269.568223 
L 332.60029 270.840244 
L 333.39052 271.05757 
L 334.970981 271.017624 
L 335.761211 270.663535 
L 336.551442 270.592208 
L 337.341672 270.744503 
L 338.922133 270.75186 
L 340.502593 270.551424 
L 342.083054 270.466673 
L 343.663514 270.309357 
L 344.453745 270.322642 
L 345.243975 270.738682 
L 346.034205 271.656634 
L 348.404896 273.258236 
L 349.985357 273.347812 
L 350.775587 273.145444 
L 351.565817 272.675787 
L 352.356048 272.628134 
L 353.146278 272.044629 
L 353.936508 271.651834 
L 354.726739 271.533843 
L 355.516969 271.271291 
L 357.88766 269.942631 
L 359.46812 269.350258 
L 361.048581 268.203079 
L 361.838811 267.996537 
L 362.629042 267.645116 
L 364.209502 267.37572 
L 365.789963 266.645497 
L 366.580193 266.783408 
L 368.160654 266.24914 
L 368.950884 266.526739 
L 369.741114 266.56079 
L 370.531345 266.92143 
L 371.321575 267.501425 
L 374.482496 267.695561 
L 375.272727 268.044485 
L 376.062957 268.246571 
L 377.643417 268.144914 
L 378.433648 267.926862 
L 379.223878 267.933386 
L 380.014108 268.32775 
L 380.804339 268.953327 
L 381.594569 269.249717 
L 382.384799 270.042976 
L 384.75549 271.577175 
L 385.54572 271.650223 
L 387.126181 271.596186 
L 387.916411 271.644343 
L 388.706642 271.538523 
L 389.496872 271.622882 
L 390.287102 271.829744 
L 391.077333 271.807301 
L 392.657793 272.290696 
L 393.448023 272.780249 
L 394.238254 272.669876 
L 395.028484 272.704354 
L 396.608945 273.039788 
L 398.189405 273.846975 
L 398.979636 274.158953 
L 401.350327 274.319586 
L 403.721017 273.492408 
L 405.301478 273.693017 
L 406.881939 274.11622 
L 408.462399 274.173004 
L 409.25263 274.071331 
L 410.04286 273.384222 
L 411.62332 272.80523 
L 412.413551 272.669484 
L 413.203781 272.371669 
L 413.994011 272.601112 
L 415.574472 272.38562 
L 416.364702 272.137962 
L 417.154933 271.412181 
L 417.945163 270.907432 
L 418.735393 270.196246 
L 421.106084 269.710495 
L 422.686545 269.788866 
L 423.476775 269.679025 
L 425.847466 268.73398 
L 429.008387 267.332984 
L 429.798617 267.248456 
L 430.588848 267.017015 
L 431.379078 266.648034 
L 433.749769 266.599784 
L 436.12046 267.886713 
L 436.91069 268.675087 
L 437.70092 269.09828 
L 440.861842 269.452497 
L 442.442302 269.332698 
L 443.232533 269.261155 
L 444.022763 269.345347 
L 445.603223 269.165493 
L 446.393454 269.126787 
L 447.183684 269.222225 
L 448.764145 269.726911 
L 450.344605 270.073388 
L 451.134836 269.966139 
L 451.925066 269.298726 
L 453.505527 267.030588 
L 455.876217 262.238344 
L 457.456678 259.462635 
L 458.246908 258.583501 
L 459.827369 256.049429 
L 460.617599 254.966942 
L 462.19806 253.697864 
L 463.77852 252.723044 
L 465.358981 252.569354 
L 466.149211 252.728638 
L 467.729672 252.713578 
L 469.310133 252.513998 
L 470.100363 252.327128 
L 470.890593 252.503601 
L 471.680823 253.08538 
L 472.471054 253.867008 
L 473.261284 254.42523 
L 474.841745 256.525315 
L 475.631975 257.605373 
L 478.002666 260.219574 
L 478.792896 261.369375 
L 480.373357 263.022478 
L 481.953817 263.895357 
L 482.744048 264.371301 
L 483.534278 264.625985 
L 485.114739 264.596606 
L 485.904969 264.375218 
L 488.27566 263.054013 
L 489.06589 262.934916 
L 489.85612 262.983414 
L 491.436581 262.541808 
L 492.226811 262.535566 
L 493.017042 262.709295 
L 493.807272 262.501061 
L 496.968193 262.255006 
L 497.758423 262.405734 
L 499.338884 261.915591 
L 500.129114 261.55375 
L 500.919345 261.331843 
L 501.709575 260.980668 
L 502.499805 260.279288 
L 503.290036 259.73976 
L 504.870496 259.050091 
L 505.660727 258.987163 
L 507.241187 259.154603 
L 508.031417 259.217525 
L 508.821648 259.138928 
L 509.611878 258.90526 
L 511.982569 258.835629 
L 514.35326 259.273431 
L 515.14349 259.217233 
L 519.094642 260.114455 
L 522.255563 262.012232 
L 523.836023 263.203904 
L 524.626254 263.873977 
L 526.996945 265.476906 
L 530.157866 268.025449 
L 530.948096 268.650887 
L 531.738327 269.129131 
L 533.318787 269.569352 
L 539.64063 271.871856 
L 540.43086 272.131424 
L 542.801551 272.505915 
L 545.962472 272.060216 
L 546.752702 272.115681 
L 548.333163 271.905603 
L 549.913623 272.162744 
L 551.494084 272.221489 
L 552.284314 272.480507 
L 555.445236 271.836911 
L 557.025696 271.928211 
L 557.815927 272.064823 
L 560.976848 273.356767 
L 561.767078 273.723525 
L 563.347539 273.943234 
L 565.71823 274.984671 
L 566.50846 275.039479 
L 568.879151 275.483755 
L 569.669381 275.389823 
L 572.040072 274.100592 
L 573.620533 273.985397 
L 574.410763 274.20005 
L 575.200993 274.286405 
L 575.991223 274.166444 
L 576.781454 274.164714 
L 579.152145 273.571212 
L 579.942375 273.504296 
L 580.732605 273.279567 
L 581.522836 273.408761 
L 582.313066 273.305664 
L 583.103296 273.37807 
L 583.893527 273.022089 
L 585.473987 271.85011 
L 587.844678 271.129596 
L 588.634908 270.871126 
L 589.425139 270.764422 
L 591.005599 271.358172 
L 593.37629 271.939665 
L 596.537211 271.312821 
L 598.117672 270.808218 
L 599.698133 270.282531 
L 600.488363 270.237637 
L 601.278593 269.916496 
L 603.649284 269.824123 
L 605.229745 269.828589 
L 606.019975 269.643831 
L 608.390666 268.73192 
L 609.971127 267.745706 
L 610.761357 267.471419 
L 612.341817 266.596976 
L 613.132048 265.986937 
L 617.87343 261.30361 
L 620.24412 258.132029 
L 621.824581 256.430756 
L 622.614811 255.582561 
L 623.405042 254.999058 
L 624.195272 254.649101 
L 624.985502 254.561804 
L 625.775733 254.59599 
L 627.356193 254.337976 
L 628.146423 254.356506 
L 629.726884 254.794588 
L 631.307345 254.637059 
L 632.887805 254.856819 
L 634.468266 255.605733 
L 635.258496 256.236593 
L 636.838957 257.034493 
L 638.419417 257.159962 
L 639.209648 257.161599 
L 640.790108 256.864553 
L 643.95103 254.800882 
L 648.692411 249.707875 
L 649.482642 249.047282 
L 651.063102 248.170545 
L 651.853333 247.568109 
L 652.643563 246.687874 
L 654.224023 244.366704 
L 655.014254 242.464213 
L 655.804484 241.492015 
L 656.594714 240.860978 
L 658.175175 240.354904 
L 659.755636 240.314965 
L 660.545866 240.457587 
L 661.336096 240.801517 
L 662.126327 241.293327 
L 666.077478 242.818611 
L 666.867708 242.630337 
L 667.657939 242.704535 
L 669.238399 241.686796 
L 670.02863 241.05677 
L 671.60909 240.257475 
L 673.979781 240.394004 
L 674.770011 240.966931 
L 676.350472 241.326278 
L 677.140702 241.203774 
L 677.930933 240.903945 
L 678.721163 240.312244 
L 680.301623 239.850128 
L 681.091854 239.971543 
L 681.882084 239.957675 
L 682.672314 239.498977 
L 684.252775 238.826876 
L 685.833236 238.102141 
L 686.623466 238.27638 
L 687.413696 237.863111 
L 688.994157 237.892025 
L 690.574617 237.618143 
L 692.155078 236.81997 
L 692.945308 237.076913 
L 693.735539 237.467711 
L 694.525769 237.650457 
L 695.315999 237.658471 
L 696.10623 237.550243 
L 697.68669 237.697783 
L 698.47692 237.782303 
L 700.057381 237.338552 
L 701.637842 235.804026 
L 704.008533 235.193898 
L 707.959684 233.146732 
L 708.749914 232.967496 
L 709.540145 232.998733 
L 710.330375 233.217573 
L 711.910836 234.026126 
L 713.491296 233.560098 
L 715.071757 233.887431 
L 715.861987 233.86441 
L 716.652217 233.640728 
L 717.442448 233.578559 
L 719.022908 234.056308 
L 720.603369 233.903256 
L 722.18383 233.696429 
L 722.97406 233.885391 
L 723.76429 234.209384 
L 725.344751 235.189609 
L 727.715442 236.594791 
L 729.295902 237.488568 
L 730.086133 237.414383 
L 730.876363 237.457455 
L 732.456823 237.150045 
L 733.247054 236.745684 
L 734.037284 236.117605 
L 735.617745 234.618084 
L 736.407975 234.357135 
L 737.198205 233.927861 
L 737.988436 233.658551 
L 738.778666 233.17642 
L 740.359127 232.892169 
L 741.149357 232.855733 
L 741.939587 232.669746 
L 743.520048 231.456617 
L 744.310278 230.749706 
L 745.890739 229.757179 
L 745.890739 229.757179 
" clip-path="url(#p57cd370b65)" style="fill: none; stroke: #d62728; stroke-width: 1.5; stroke-linecap: square"/>
   </g>
   <g id="patch_3">
    <path d="M 123.584375 381.757656 
L 123.584375 18.597656 
" style="fill: none; stroke: #000000; stroke-width: 0.8; stroke-linejoin: miter; stroke-linecap: square"/>
   </g>
   <g id="patch_4">
    <path d="M 775.524375 381.757656 
L 775.524375 18.597656 
" style="fill: none; stroke: #000000; stroke-width: 0.8; stroke-linejoin: miter; stroke-linecap: square"/>
   </g>
   <g id="patch_5">
    <path d="M 123.584375 381.757656 
L 775.524375 381.757656 
" style="fill: none; stroke: #000000; stroke-width: 0.8; stroke-linejoin: miter; stroke-linecap: square"/>
   </g>
   <g id="patch_6">
    <path d="M 123.584375 18.597656 
L 775.524375 18.597656 
" style="fill: none; stroke: #000000; stroke-width: 0.8; stroke-linejoin: miter; stroke-linecap: square"/>
   </g>
   <g id="legend_1">
    <g id="patch_7">
     <path d="M 587.690625 178.707656 
L 758.724375 178.707656 
Q 763.524375 178.707656 763.524375 173.907656 
L 763.524375 35.397656 
Q 763.524375 30.597656 758.724375 30.597656 
L 587.690625 30.597656 
Q 582.890625 30.597656 582.890625 35.397656 
L 582.890625 173.907656 
Q 582.890625 178.707656 587.690625 178.707656 
z
" style="fill: #ffffff; opacity: 0.8; stroke: #cccccc; stroke-linejoin: miter"/>
    </g>
    <g id="line2d_27">
     <path d="M 592.490625 50.033906 
L 616.490625 50.033906 
L 640.490625 50.033906 
" style="fill: none; stroke: #1f77b4; stroke-width: 1.5; stroke-linecap: square"/>
    </g>
    <g id="text_14">
     <!-- 25 Obj -->
     <g transform="translate(659.690625 58.433906) scale(0.24 -0.24)">
      <defs>
       <path id="DejaVuSans-4f" d="M 2522 4238 
Q 1834 4238 1429 3725 
Q 1025 3213 1025 2328 
Q 1025 1447 1429 934 
Q 1834 422 2522 422 
Q 3209 422 3611 934 
Q 4013 1447 4013 2328 
Q 4013 3213 3611 3725 
Q 3209 4238 2522 4238 
z
M 2522 4750 
Q 3503 4750 4090 4092 
Q 4678 3434 4678 2328 
Q 4678 1225 4090 567 
Q 3503 -91 2522 -91 
Q 1538 -91 948 565 
Q 359 1222 359 2328 
Q 359 3434 948 4092 
Q 1538 4750 2522 4750 
z
" transform="scale(0.015625)"/>
       <path id="DejaVuSans-62" d="M 3116 1747 
Q 3116 2381 2855 2742 
Q 2594 3103 2138 3103 
Q 1681 3103 1420 2742 
Q 1159 2381 1159 1747 
Q 1159 1113 1420 752 
Q 1681 391 2138 391 
Q 2594 391 2855 752 
Q 3116 1113 3116 1747 
z
M 1159 2969 
Q 1341 3281 1617 3432 
Q 1894 3584 2278 3584 
Q 2916 3584 3314 3078 
Q 3713 2572 3713 1747 
Q 3713 922 3314 415 
Q 2916 -91 2278 -91 
Q 1894 -91 1617 61 
Q 1341 213 1159 525 
L 1159 0 
L 581 0 
L 581 4863 
L 1159 4863 
L 1159 2969 
z
" transform="scale(0.015625)"/>
       <path id="DejaVuSans-6a" d="M 603 3500 
L 1178 3500 
L 1178 -63 
Q 1178 -731 923 -1031 
Q 669 -1331 103 -1331 
L -116 -1331 
L -116 -844 
L 38 -844 
Q 366 -844 484 -692 
Q 603 -541 603 -63 
L 603 3500 
z
M 603 4863 
L 1178 4863 
L 1178 4134 
L 603 4134 
L 603 4863 
z
" transform="scale(0.015625)"/>
      </defs>
      <use xlink:href="#DejaVuSans-32"/>
      <use xlink:href="#DejaVuSans-35" transform="translate(63.623047 0)"/>
      <use xlink:href="#DejaVuSans-20" transform="translate(127.246094 0)"/>
      <use xlink:href="#DejaVuSans-4f" transform="translate(159.033203 0)"/>
      <use xlink:href="#DejaVuSans-62" transform="translate(237.744141 0)"/>
      <use xlink:href="#DejaVuSans-6a" transform="translate(301.220703 0)"/>
     </g>
    </g>
    <g id="line2d_28">
     <path d="M 592.490625 85.261406 
L 616.490625 85.261406 
L 640.490625 85.261406 
" style="fill: none; stroke: #ff7f0e; stroke-width: 1.5; stroke-linecap: square"/>
    </g>
    <g id="text_15">
     <!-- 50 Obj -->
     <g transform="translate(659.690625 93.661406) scale(0.24 -0.24)">
      <use xlink:href="#DejaVuSans-35"/>
      <use xlink:href="#DejaVuSans-30" transform="translate(63.623047 0)"/>
      <use xlink:href="#DejaVuSans-20" transform="translate(127.246094 0)"/>
      <use xlink:href="#DejaVuSans-4f" transform="translate(159.033203 0)"/>
      <use xlink:href="#DejaVuSans-62" transform="translate(237.744141 0)"/>
      <use xlink:href="#DejaVuSans-6a" transform="translate(301.220703 0)"/>
     </g>
    </g>
    <g id="line2d_29">
     <path d="M 592.490625 120.488906 
L 616.490625 120.488906 
L 640.490625 120.488906 
" style="fill: none; stroke: #2ca02c; stroke-width: 1.5; stroke-linecap: square"/>
    </g>
    <g id="text_16">
     <!-- 75 Obj -->
     <g transform="translate(659.690625 128.888906) scale(0.24 -0.24)">
      <defs>
       <path id="DejaVuSans-37" d="M 525 4666 
L 3525 4666 
L 3525 4397 
L 1831 0 
L 1172 0 
L 2766 4134 
L 525 4134 
L 525 4666 
z
" transform="scale(0.015625)"/>
      </defs>
      <use xlink:href="#DejaVuSans-37"/>
      <use xlink:href="#DejaVuSans-35" transform="translate(63.623047 0)"/>
      <use xlink:href="#DejaVuSans-20" transform="translate(127.246094 0)"/>
      <use xlink:href="#DejaVuSans-4f" transform="translate(159.033203 0)"/>
      <use xlink:href="#DejaVuSans-62" transform="translate(237.744141 0)"/>
      <use xlink:href="#DejaVuSans-6a" transform="translate(301.220703 0)"/>
     </g>
    </g>
    <g id="line2d_30">
     <path d="M 592.490625 155.716406 
L 616.490625 155.716406 
L 640.490625 155.716406 
" style="fill: none; stroke: #d62728; stroke-width: 1.5; stroke-linecap: square"/>
    </g>
    <g id="text_17">
     <!-- 100 Obj -->
     <g transform="translate(659.690625 164.116406) scale(0.24 -0.24)">
      <use xlink:href="#DejaVuSans-31"/>
      <use xlink:href="#DejaVuSans-30" transform="translate(63.623047 0)"/>
      <use xlink:href="#DejaVuSans-30" transform="translate(127.246094 0)"/>
      <use xlink:href="#DejaVuSans-20" transform="translate(190.869141 0)"/>
      <use xlink:href="#DejaVuSans-4f" transform="translate(222.65625 0)"/>
      <use xlink:href="#DejaVuSans-62" transform="translate(301.367188 0)"/>
      <use xlink:href="#DejaVuSans-6a" transform="translate(364.84375 0)"/>
     </g>
    </g>
   </g>
  </g>
 </g>
 <defs>
  <clipPath id="p57cd370b65">
   <rect x="123.584375" y="18.597656" width="651.94" height="363.16"/>
  </clipPath>
 </defs>
</svg>
