<?xml version="1.0" encoding="utf-8" standalone="no"?>
<!DOCTYPE svg PUBLIC "-//W3C//DTD SVG 1.1//EN"
  "http://www.w3.org/Graphics/SVG/1.1/DTD/svg11.dtd">
<svg xmlns:xlink="http://www.w3.org/1999/xlink" width="793.881562pt" height="446.62875pt" viewBox="0 0 793.881562 446.62875" xmlns="http://www.w3.org/2000/svg" version="1.1">
 <metadata>
  <rdf:RDF xmlns:dc="http://purl.org/dc/elements/1.1/" xmlns:cc="http://creativecommons.org/ns#" xmlns:rdf="http://www.w3.org/1999/02/22-rdf-syntax-ns#">
   <cc:Work>
    <dc:type rdf:resource="http://purl.org/dc/dcmitype/StillImage"/>
    <dc:date>2025-09-08T09:49:16.575952</dc:date>
    <dc:format>image/svg+xml</dc:format>
    <dc:creator>
     <cc:Agent>
      <dc:title>Matplotlib v3.10.3, https://matplotlib.org/</dc:title>
     </cc:Agent>
    </dc:creator>
   </cc:Work>
  </rdf:RDF>
 </metadata>
 <defs>
  <style type="text/css">*{stroke-linejoin: round; stroke-linecap: butt}</style>
 </defs>
 <g id="figure_1">
  <g id="patch_1">
   <path d="M 0 446.62875 
L 793.881562 446.62875 
L 793.881562 -0 
L 0 -0 
z
" style="fill: #ffffff"/>
  </g>
  <g id="axes_1">
   <g id="patch_2">
    <path d="M 104.496875 370.36 
L 762.826875 370.36 
L 762.826875 7.2 
L 104.496875 7.2 
z
" style="fill: #ffffff"/>
   </g>
   <g id="FillBetweenPolyCollection_1">
    <defs>
     <path id="mc225b40b0e" d="M 104.496875 -388.646521 
L 104.496875 -388.646521 
L 113.274608 -394.315595 
L 122.052342 -403.897062 
L 130.830075 -403.961888 
L 139.607808 -393.087337 
L 148.385542 -395.699436 
L 157.163275 -371.106692 
L 165.941008 -375.319687 
L 174.718742 -364.288918 
L 183.496475 -345.414522 
L 192.274208 -341.910686 
L 201.051942 -342.681151 
L 209.829675 -327.993177 
L 218.607408 -324.815956 
L 227.385142 -321.46196 
L 236.162875 -320.703255 
L 244.940608 -285.395535 
L 253.718342 -293.365553 
L 262.496075 -274.280518 
L 271.273808 -266.358271 
L 280.051542 -255.753956 
L 288.829275 -240.905318 
L 297.607008 -238.67011 
L 306.384742 -223.792527 
L 315.162475 -203.367839 
L 323.940208 -195.846385 
L 332.717942 -184.81197 
L 341.495675 -171.767316 
L 350.273408 -169.861644 
L 359.051142 -143.271322 
L 367.828875 -133.681554 
L 376.606608 -132.299783 
L 385.384342 -127.479988 
L 394.162075 -125.93336 
L 402.939808 -126.283847 
L 411.717542 -117.640951 
L 420.495275 -114.499637 
L 429.273008 -123.707876 
L 438.050742 -120.446511 
L 446.828475 -111.882384 
L 455.606208 -112.950846 
L 464.383942 -118.176939 
L 473.161675 -119.502118 
L 481.939408 -126.50658 
L 490.717142 -128.282533 
L 499.494875 -122.386146 
L 508.272608 -117.584868 
L 517.050342 -115.924038 
L 525.828075 -115.14118 
L 534.605808 -119.799061 
L 543.383542 -124.099313 
L 552.161275 -120.870459 
L 560.939008 -118.01743 
L 569.716742 -110.899955 
L 578.494475 -113.058609 
L 587.272208 -111.380513 
L 596.049942 -112.543672 
L 604.827675 -109.465259 
L 613.605408 -114.815943 
L 622.383142 -115.685838 
L 631.160875 -112.436708 
L 639.938608 -111.2392 
L 648.716342 -112.994806 
L 657.494075 -112.459006 
L 666.271808 -113.314695 
L 675.049542 -113.640829 
L 683.827275 -113.497914 
L 692.605008 -111.547036 
L 701.382742 -117.732051 
L 710.160475 -123.298919 
L 718.938208 -117.410745 
L 727.715942 -120.588486 
L 736.493675 -117.234584 
L 745.271408 -118.014338 
L 754.049142 -123.566122 
L 762.826875 -112.268169 
L 762.826875 -137.168796 
L 762.826875 -137.168796 
L 754.049142 -139.020697 
L 745.271408 -141.654082 
L 736.493675 -138.363503 
L 727.715942 -143.349031 
L 718.938208 -149.9377 
L 710.160475 -144.370464 
L 701.382742 -136.127915 
L 692.605008 -135.856294 
L 683.827275 -134.927097 
L 675.049542 -134.104096 
L 666.271808 -141.038838 
L 657.494075 -135.664949 
L 648.716342 -134.255852 
L 639.938608 -132.080158 
L 631.160875 -139.851943 
L 622.383142 -140.318202 
L 613.605408 -140.785763 
L 604.827675 -141.471771 
L 596.049942 -147.303166 
L 587.272208 -145.55361 
L 578.494475 -144.71628 
L 569.716742 -141.109076 
L 560.939008 -151.110568 
L 552.161275 -159.179228 
L 543.383542 -168.529981 
L 534.605808 -171.650692 
L 525.828075 -173.078556 
L 517.050342 -173.618332 
L 508.272608 -171.586842 
L 499.494875 -173.365881 
L 490.717142 -175.587142 
L 481.939408 -173.795289 
L 473.161675 -178.21777 
L 464.383942 -178.85823 
L 455.606208 -180.114443 
L 446.828475 -183.184633 
L 438.050742 -193.965336 
L 429.273008 -196.378674 
L 420.495275 -201.244806 
L 411.717542 -206.969259 
L 402.939808 -213.118044 
L 394.162075 -214.590135 
L 385.384342 -230.453013 
L 376.606608 -246.783685 
L 367.828875 -247.607786 
L 359.051142 -265.133314 
L 350.273408 -250.605059 
L 341.495675 -262.816276 
L 332.717942 -276.887926 
L 323.940208 -288.693381 
L 315.162475 -293.130681 
L 306.384742 -295.828114 
L 297.607008 -320.290053 
L 288.829275 -326.390962 
L 280.051542 -333.072426 
L 271.273808 -334.829843 
L 262.496075 -344.661883 
L 253.718342 -341.349734 
L 244.940608 -335.646555 
L 236.162875 -349.626325 
L 227.385142 -357.57237 
L 218.607408 -359.734493 
L 209.829675 -356.292907 
L 201.051942 -371.625813 
L 192.274208 -385.560467 
L 183.496475 -374.922634 
L 174.718742 -381.258462 
L 165.941008 -390.800676 
L 157.163275 -400.860558 
L 148.385542 -411.839564 
L 139.607808 -412.800021 
L 130.830075 -417.324468 
L 122.052342 -420.308622 
L 113.274608 -412.759528 
L 104.496875 -388.646521 
z
" style="stroke: #1f77b4; stroke-opacity: 0.2"/>
    </defs>
    <g clip-path="url(#p779439ce16)">
     <use xlink:href="#mc225b40b0e" x="0" y="446.62875" style="fill: #1f77b4; fill-opacity: 0.2; stroke: #1f77b4; stroke-opacity: 0.2"/>
    </g>
   </g>
   <g id="FillBetweenPolyCollection_2">
    <defs>
     <path id="m9f100032c0" d="M 104.496875 -388.646521 
L 104.496875 -388.646521 
L 113.274608 -390.888843 
L 122.052342 -405.403357 
L 130.830075 -401.700916 
L 139.607808 -382.604639 
L 148.385542 -382.992065 
L 157.163275 -364.012801 
L 165.941008 -364.007318 
L 174.718742 -334.33896 
L 183.496475 -309.653805 
L 192.274208 -324.336675 
L 201.051942 -318.888564 
L 209.829675 -309.287763 
L 218.607408 -297.213524 
L 227.385142 -291.10598 
L 236.162875 -293.548337 
L 244.940608 -280.753267 
L 253.718342 -273.588057 
L 262.496075 -255.757133 
L 271.273808 -229.895835 
L 280.051542 -215.264304 
L 288.829275 -214.671532 
L 297.607008 -213.176954 
L 306.384742 -207.114615 
L 315.162475 -183.041152 
L 323.940208 -165.630911 
L 332.717942 -159.027118 
L 341.495675 -144.075911 
L 350.273408 -144.01039 
L 359.051142 -127.979729 
L 367.828875 -117.057924 
L 376.606608 -115.432038 
L 385.384342 -106.539808 
L 394.162075 -106.180256 
L 402.939808 -98.755714 
L 411.717542 -105.058307 
L 420.495275 -94.918368 
L 429.273008 -92.776023 
L 438.050742 -99.177121 
L 446.828475 -96.918298 
L 455.606208 -101.800018 
L 464.383942 -101.111492 
L 473.161675 -101.205385 
L 481.939408 -117.377184 
L 490.717142 -114.085489 
L 499.494875 -115.942937 
L 508.272608 -110.098421 
L 517.050342 -114.232449 
L 525.828075 -110.503064 
L 534.605808 -110.063233 
L 543.383542 -104.727872 
L 552.161275 -103.845375 
L 560.939008 -105.017826 
L 569.716742 -98.626471 
L 578.494475 -105.033323 
L 587.272208 -116.750331 
L 596.049942 -107.424018 
L 604.827675 -110.353285 
L 613.605408 -109.851018 
L 622.383142 -110.345611 
L 631.160875 -112.09443 
L 639.938608 -110.146581 
L 648.716342 -107.274814 
L 657.494075 -110.062314 
L 666.271808 -111.896924 
L 675.049542 -112.327492 
L 683.827275 -110.507362 
L 692.605008 -105.069459 
L 701.382742 -115.937195 
L 710.160475 -111.241592 
L 718.938208 -109.138205 
L 727.715942 -111.156362 
L 736.493675 -113.000591 
L 745.271408 -115.5227 
L 754.049142 -115.738133 
L 762.826875 -107.899036 
L 762.826875 -138.412023 
L 762.826875 -138.412023 
L 754.049142 -135.063974 
L 745.271408 -137.458561 
L 736.493675 -137.319471 
L 727.715942 -144.395084 
L 718.938208 -144.79919 
L 710.160475 -148.750716 
L 701.382742 -141.545149 
L 692.605008 -149.54697 
L 683.827275 -143.346996 
L 675.049542 -143.020366 
L 666.271808 -148.78985 
L 657.494075 -153.778068 
L 648.716342 -157.358558 
L 639.938608 -146.994722 
L 631.160875 -152.055444 
L 622.383142 -161.750572 
L 613.605408 -153.045183 
L 604.827675 -152.531318 
L 596.049942 -160.773709 
L 587.272208 -155.652637 
L 578.494475 -161.031719 
L 569.716742 -161.034254 
L 560.939008 -163.487122 
L 552.161275 -178.370429 
L 543.383542 -177.203833 
L 534.605808 -168.835097 
L 525.828075 -164.061317 
L 517.050342 -171.856737 
L 508.272608 -171.545435 
L 499.494875 -166.451767 
L 490.717142 -170.063216 
L 481.939408 -168.421019 
L 473.161675 -181.972601 
L 464.383942 -188.355281 
L 455.606208 -189.675568 
L 446.828475 -200.099896 
L 438.050742 -215.538904 
L 429.273008 -228.379224 
L 420.495275 -218.50975 
L 411.717542 -221.150807 
L 402.939808 -240.101444 
L 394.162075 -236.556572 
L 385.384342 -237.436314 
L 376.606608 -244.604279 
L 367.828875 -243.585027 
L 359.051142 -245.455937 
L 350.273408 -244.478457 
L 341.495675 -254.29864 
L 332.717942 -266.600674 
L 323.940208 -270.92962 
L 315.162475 -276.630613 
L 306.384742 -284.064924 
L 297.607008 -297.956608 
L 288.829275 -305.591385 
L 280.051542 -328.099118 
L 271.273808 -335.915681 
L 262.496075 -321.105832 
L 253.718342 -317.367719 
L 244.940608 -311.217796 
L 236.162875 -330.823716 
L 227.385142 -330.567323 
L 218.607408 -338.207406 
L 209.829675 -340.267297 
L 201.051942 -355.649404 
L 192.274208 -355.276484 
L 183.496475 -357.529369 
L 174.718742 -382.579086 
L 165.941008 -393.157365 
L 157.163275 -395.01214 
L 148.385542 -409.603111 
L 139.607808 -415.793329 
L 130.830075 -422.921477 
L 122.052342 -421.182478 
L 113.274608 -410.175825 
L 104.496875 -388.646521 
z
" style="stroke: #ff7f0e; stroke-opacity: 0.2"/>
    </defs>
    <g clip-path="url(#p779439ce16)">
     <use xlink:href="#m9f100032c0" x="0" y="446.62875" style="fill: #ff7f0e; fill-opacity: 0.2; stroke: #ff7f0e; stroke-opacity: 0.2"/>
    </g>
   </g>
   <g id="FillBetweenPolyCollection_3">
    <defs>
     <path id="mfde18dd077" d="M 104.496875 -388.646521 
L 104.496875 -388.646521 
L 113.274608 -399.616849 
L 122.052342 -410.005932 
L 130.830075 -408.794791 
L 139.607808 -397.723594 
L 148.385542 -388.376129 
L 157.163275 -371.273208 
L 165.941008 -363.215408 
L 174.718742 -344.32076 
L 183.496475 -319.401413 
L 192.274208 -332.573054 
L 201.051942 -325.265164 
L 209.829675 -322.813311 
L 218.607408 -311.61004 
L 227.385142 -299.083396 
L 236.162875 -297.892092 
L 244.940608 -283.034166 
L 253.718342 -276.521457 
L 262.496075 -272.183569 
L 271.273808 -268.892716 
L 280.051542 -255.628295 
L 288.829275 -242.871965 
L 297.607008 -239.821093 
L 306.384742 -232.104812 
L 315.162475 -221.247052 
L 323.940208 -201.923205 
L 332.717942 -201.497316 
L 341.495675 -184.663183 
L 350.273408 -172.43368 
L 359.051142 -164.348934 
L 367.828875 -162.864326 
L 376.606608 -155.017013 
L 385.384342 -128.57272 
L 394.162075 -123.953786 
L 402.939808 -117.023811 
L 411.717542 -107.206315 
L 420.495275 -108.238956 
L 429.273008 -113.888756 
L 438.050742 -110.795383 
L 446.828475 -101.293641 
L 455.606208 -112.892813 
L 464.383942 -108.914059 
L 473.161675 -109.711412 
L 481.939408 -105.678429 
L 490.717142 -105.859214 
L 499.494875 -113.055341 
L 508.272608 -122.242441 
L 517.050342 -112.546693 
L 525.828075 -113.587291 
L 534.605808 -115.855021 
L 543.383542 -124.427124 
L 552.161275 -126.205953 
L 560.939008 -112.202478 
L 569.716742 -114.779937 
L 578.494475 -110.579655 
L 587.272208 -118.778702 
L 596.049942 -112.590566 
L 604.827675 -109.948477 
L 613.605408 -112.453435 
L 622.383142 -121.540958 
L 631.160875 -115.931217 
L 639.938608 -117.934711 
L 648.716342 -112.563186 
L 657.494075 -112.083503 
L 666.271808 -116.896165 
L 675.049542 -114.283415 
L 683.827275 -121.429682 
L 692.605008 -114.608216 
L 701.382742 -116.098582 
L 710.160475 -120.89781 
L 718.938208 -118.167787 
L 727.715942 -113.396372 
L 736.493675 -112.043761 
L 745.271408 -110.88407 
L 754.049142 -112.845993 
L 762.826875 -113.300277 
L 762.826875 -137.516737 
L 762.826875 -137.516737 
L 754.049142 -134.937435 
L 745.271408 -140.930334 
L 736.493675 -136.584211 
L 727.715942 -139.728991 
L 718.938208 -135.516105 
L 710.160475 -135.788352 
L 701.382742 -135.949086 
L 692.605008 -136.653392 
L 683.827275 -135.564266 
L 675.049542 -141.041623 
L 666.271808 -139.829924 
L 657.494075 -147.844631 
L 648.716342 -147.305167 
L 639.938608 -139.519226 
L 631.160875 -147.242243 
L 622.383142 -147.994082 
L 613.605408 -150.198966 
L 604.827675 -153.626393 
L 596.049942 -155.038498 
L 587.272208 -157.110964 
L 578.494475 -159.814023 
L 569.716742 -150.579285 
L 560.939008 -162.422834 
L 552.161275 -164.427289 
L 543.383542 -162.473491 
L 534.605808 -169.622736 
L 525.828075 -169.381722 
L 517.050342 -178.383946 
L 508.272608 -180.55453 
L 499.494875 -188.27505 
L 490.717142 -200.873393 
L 481.939408 -201.785059 
L 473.161675 -200.409184 
L 464.383942 -209.760292 
L 455.606208 -212.845737 
L 446.828475 -231.542496 
L 438.050742 -240.790174 
L 429.273008 -244.848205 
L 420.495275 -249.690231 
L 411.717542 -263.813298 
L 402.939808 -265.24108 
L 394.162075 -262.304287 
L 385.384342 -265.069456 
L 376.606608 -262.964359 
L 367.828875 -259.603548 
L 359.051142 -270.307755 
L 350.273408 -276.297504 
L 341.495675 -278.150859 
L 332.717942 -281.064923 
L 323.940208 -287.904262 
L 315.162475 -274.084387 
L 306.384742 -292.352839 
L 297.607008 -305.671318 
L 288.829275 -306.942435 
L 280.051542 -311.06374 
L 271.273808 -313.837613 
L 262.496075 -320.978998 
L 253.718342 -335.936973 
L 244.940608 -326.488623 
L 236.162875 -328.480453 
L 227.385142 -334.242095 
L 218.607408 -346.572873 
L 209.829675 -339.602407 
L 201.051942 -359.469434 
L 192.274208 -359.500645 
L 183.496475 -370.070204 
L 174.718742 -384.016706 
L 165.941008 -392.798621 
L 157.163275 -386.971355 
L 148.385542 -408.633423 
L 139.607808 -409.193432 
L 130.830075 -415.468349 
L 122.052342 -417.421963 
L 113.274608 -405.467909 
L 104.496875 -388.646521 
z
" style="stroke: #2ca02c; stroke-opacity: 0.2"/>
    </defs>
    <g clip-path="url(#p779439ce16)">
     <use xlink:href="#mfde18dd077" x="0" y="446.62875" style="fill: #2ca02c; fill-opacity: 0.2; stroke: #2ca02c; stroke-opacity: 0.2"/>
    </g>
   </g>
   <g id="matplotlib.axis_1">
    <g id="xtick_1">
     <g id="line2d_1">
      <path d="M 104.496875 370.36 
L 104.496875 7.2 
" clip-path="url(#p779439ce16)" style="fill: none; stroke: #b0b0b0; stroke-width: 0.8; stroke-linecap: square"/>
     </g>
     <g id="line2d_2">
      <defs>
       <path id="m6565ac436b" d="M 0 0 
L 0 3.5 
" style="stroke: #000000; stroke-width: 0.8"/>
      </defs>
      <g>
       <use xlink:href="#m6565ac436b" x="104.496875" y="370.36" style="stroke: #000000; stroke-width: 0.8"/>
      </g>
     </g>
     <g id="text_1">
      <!-- 0.0 -->
      <g transform="translate(80.642187 400.155312) scale(0.3 -0.3)">
       <defs>
        <path id="DejaVuSans-30" d="M 2034 4250 
Q 1547 4250 1301 3770 
Q 1056 3291 1056 2328 
Q 1056 1369 1301 889 
Q 1547 409 2034 409 
Q 2525 409 2770 889 
Q 3016 1369 3016 2328 
Q 3016 3291 2770 3770 
Q 2525 4250 2034 4250 
z
M 2034 4750 
Q 2819 4750 3233 4129 
Q 3647 3509 3647 2328 
Q 3647 1150 3233 529 
Q 2819 -91 2034 -91 
Q 1250 -91 836 529 
Q 422 1150 422 2328 
Q 422 3509 836 4129 
Q 1250 4750 2034 4750 
z
" transform="scale(0.015625)"/>
        <path id="DejaVuSans-2e" d="M 684 794 
L 1344 794 
L 1344 0 
L 684 0 
L 684 794 
z
" transform="scale(0.015625)"/>
       </defs>
       <use xlink:href="#DejaVuSans-30"/>
       <use xlink:href="#DejaVuSans-2e" transform="translate(63.623047 0)"/>
       <use xlink:href="#DejaVuSans-30" transform="translate(95.410156 0)"/>
      </g>
     </g>
    </g>
    <g id="xtick_2">
     <g id="line2d_3">
      <path d="M 236.162875 370.36 
L 236.162875 7.2 
" clip-path="url(#p779439ce16)" style="fill: none; stroke: #b0b0b0; stroke-width: 0.8; stroke-linecap: square"/>
     </g>
     <g id="line2d_4">
      <g>
       <use xlink:href="#m6565ac436b" x="236.162875" y="370.36" style="stroke: #000000; stroke-width: 0.8"/>
      </g>
     </g>
     <g id="text_2">
      <!-- 0.2 -->
      <g transform="translate(212.308187 400.155312) scale(0.3 -0.3)">
       <defs>
        <path id="DejaVuSans-32" d="M 1228 531 
L 3431 531 
L 3431 0 
L 469 0 
L 469 531 
Q 828 903 1448 1529 
Q 2069 2156 2228 2338 
Q 2531 2678 2651 2914 
Q 2772 3150 2772 3378 
Q 2772 3750 2511 3984 
Q 2250 4219 1831 4219 
Q 1534 4219 1204 4116 
Q 875 4013 500 3803 
L 500 4441 
Q 881 4594 1212 4672 
Q 1544 4750 1819 4750 
Q 2544 4750 2975 4387 
Q 3406 4025 3406 3419 
Q 3406 3131 3298 2873 
Q 3191 2616 2906 2266 
Q 2828 2175 2409 1742 
Q 1991 1309 1228 531 
z
" transform="scale(0.015625)"/>
       </defs>
       <use xlink:href="#DejaVuSans-30"/>
       <use xlink:href="#DejaVuSans-2e" transform="translate(63.623047 0)"/>
       <use xlink:href="#DejaVuSans-32" transform="translate(95.410156 0)"/>
      </g>
     </g>
    </g>
    <g id="xtick_3">
     <g id="line2d_5">
      <path d="M 367.828875 370.36 
L 367.828875 7.2 
" clip-path="url(#p779439ce16)" style="fill: none; stroke: #b0b0b0; stroke-width: 0.8; stroke-linecap: square"/>
     </g>
     <g id="line2d_6">
      <g>
       <use xlink:href="#m6565ac436b" x="367.828875" y="370.36" style="stroke: #000000; stroke-width: 0.8"/>
      </g>
     </g>
     <g id="text_3">
      <!-- 0.4 -->
      <g transform="translate(343.974187 400.155312) scale(0.3 -0.3)">
       <defs>
        <path id="DejaVuSans-34" d="M 2419 4116 
L 825 1625 
L 2419 1625 
L 2419 4116 
z
M 2253 4666 
L 3047 4666 
L 3047 1625 
L 3713 1625 
L 3713 1100 
L 3047 1100 
L 3047 0 
L 2419 0 
L 2419 1100 
L 313 1100 
L 313 1709 
L 2253 4666 
z
" transform="scale(0.015625)"/>
       </defs>
       <use xlink:href="#DejaVuSans-30"/>
       <use xlink:href="#DejaVuSans-2e" transform="translate(63.623047 0)"/>
       <use xlink:href="#DejaVuSans-34" transform="translate(95.410156 0)"/>
      </g>
     </g>
    </g>
    <g id="xtick_4">
     <g id="line2d_7">
      <path d="M 499.494875 370.36 
L 499.494875 7.2 
" clip-path="url(#p779439ce16)" style="fill: none; stroke: #b0b0b0; stroke-width: 0.8; stroke-linecap: square"/>
     </g>
     <g id="line2d_8">
      <g>
       <use xlink:href="#m6565ac436b" x="499.494875" y="370.36" style="stroke: #000000; stroke-width: 0.8"/>
      </g>
     </g>
     <g id="text_4">
      <!-- 0.6 -->
      <g transform="translate(475.640187 400.155312) scale(0.3 -0.3)">
       <defs>
        <path id="DejaVuSans-36" d="M 2113 2584 
Q 1688 2584 1439 2293 
Q 1191 2003 1191 1497 
Q 1191 994 1439 701 
Q 1688 409 2113 409 
Q 2538 409 2786 701 
Q 3034 994 3034 1497 
Q 3034 2003 2786 2293 
Q 2538 2584 2113 2584 
z
M 3366 4563 
L 3366 3988 
Q 3128 4100 2886 4159 
Q 2644 4219 2406 4219 
Q 1781 4219 1451 3797 
Q 1122 3375 1075 2522 
Q 1259 2794 1537 2939 
Q 1816 3084 2150 3084 
Q 2853 3084 3261 2657 
Q 3669 2231 3669 1497 
Q 3669 778 3244 343 
Q 2819 -91 2113 -91 
Q 1303 -91 875 529 
Q 447 1150 447 2328 
Q 447 3434 972 4092 
Q 1497 4750 2381 4750 
Q 2619 4750 2861 4703 
Q 3103 4656 3366 4563 
z
" transform="scale(0.015625)"/>
       </defs>
       <use xlink:href="#DejaVuSans-30"/>
       <use xlink:href="#DejaVuSans-2e" transform="translate(63.623047 0)"/>
       <use xlink:href="#DejaVuSans-36" transform="translate(95.410156 0)"/>
      </g>
     </g>
    </g>
    <g id="xtick_5">
     <g id="line2d_9">
      <path d="M 631.160875 370.36 
L 631.160875 7.2 
" clip-path="url(#p779439ce16)" style="fill: none; stroke: #b0b0b0; stroke-width: 0.8; stroke-linecap: square"/>
     </g>
     <g id="line2d_10">
      <g>
       <use xlink:href="#m6565ac436b" x="631.160875" y="370.36" style="stroke: #000000; stroke-width: 0.8"/>
      </g>
     </g>
     <g id="text_5">
      <!-- 0.8 -->
      <g transform="translate(607.306188 400.155312) scale(0.3 -0.3)">
       <defs>
        <path id="DejaVuSans-38" d="M 2034 2216 
Q 1584 2216 1326 1975 
Q 1069 1734 1069 1313 
Q 1069 891 1326 650 
Q 1584 409 2034 409 
Q 2484 409 2743 651 
Q 3003 894 3003 1313 
Q 3003 1734 2745 1975 
Q 2488 2216 2034 2216 
z
M 1403 2484 
Q 997 2584 770 2862 
Q 544 3141 544 3541 
Q 544 4100 942 4425 
Q 1341 4750 2034 4750 
Q 2731 4750 3128 4425 
Q 3525 4100 3525 3541 
Q 3525 3141 3298 2862 
Q 3072 2584 2669 2484 
Q 3125 2378 3379 2068 
Q 3634 1759 3634 1313 
Q 3634 634 3220 271 
Q 2806 -91 2034 -91 
Q 1263 -91 848 271 
Q 434 634 434 1313 
Q 434 1759 690 2068 
Q 947 2378 1403 2484 
z
M 1172 3481 
Q 1172 3119 1398 2916 
Q 1625 2713 2034 2713 
Q 2441 2713 2670 2916 
Q 2900 3119 2900 3481 
Q 2900 3844 2670 4047 
Q 2441 4250 2034 4250 
Q 1625 4250 1398 4047 
Q 1172 3844 1172 3481 
z
" transform="scale(0.015625)"/>
       </defs>
       <use xlink:href="#DejaVuSans-30"/>
       <use xlink:href="#DejaVuSans-2e" transform="translate(63.623047 0)"/>
       <use xlink:href="#DejaVuSans-38" transform="translate(95.410156 0)"/>
      </g>
     </g>
    </g>
    <g id="xtick_6">
     <g id="line2d_11">
      <path d="M 762.826875 370.36 
L 762.826875 7.2 
" clip-path="url(#p779439ce16)" style="fill: none; stroke: #b0b0b0; stroke-width: 0.8; stroke-linecap: square"/>
     </g>
     <g id="line2d_12">
      <g>
       <use xlink:href="#m6565ac436b" x="762.826875" y="370.36" style="stroke: #000000; stroke-width: 0.8"/>
      </g>
     </g>
     <g id="text_6">
      <!-- 1.0 -->
      <g transform="translate(738.972188 400.155312) scale(0.3 -0.3)">
       <defs>
        <path id="DejaVuSans-31" d="M 794 531 
L 1825 531 
L 1825 4091 
L 703 3866 
L 703 4441 
L 1819 4666 
L 2450 4666 
L 2450 531 
L 3481 531 
L 3481 0 
L 794 0 
L 794 531 
z
" transform="scale(0.015625)"/>
       </defs>
       <use xlink:href="#DejaVuSans-31"/>
       <use xlink:href="#DejaVuSans-2e" transform="translate(63.623047 0)"/>
       <use xlink:href="#DejaVuSans-30" transform="translate(95.410156 0)"/>
      </g>
     </g>
    </g>
    <g id="text_7">
     <!-- Time Step (Normalized) -->
     <g transform="translate(256.500156 433.189687) scale(0.3 -0.3)">
      <defs>
       <path id="DejaVuSans-54" d="M -19 4666 
L 3928 4666 
L 3928 4134 
L 2272 4134 
L 2272 0 
L 1638 0 
L 1638 4134 
L -19 4134 
L -19 4666 
z
" transform="scale(0.015625)"/>
       <path id="DejaVuSans-69" d="M 603 3500 
L 1178 3500 
L 1178 0 
L 603 0 
L 603 3500 
z
M 603 4863 
L 1178 4863 
L 1178 4134 
L 603 4134 
L 603 4863 
z
" transform="scale(0.015625)"/>
       <path id="DejaVuSans-6d" d="M 3328 2828 
Q 3544 3216 3844 3400 
Q 4144 3584 4550 3584 
Q 5097 3584 5394 3201 
Q 5691 2819 5691 2113 
L 5691 0 
L 5113 0 
L 5113 2094 
Q 5113 2597 4934 2840 
Q 4756 3084 4391 3084 
Q 3944 3084 3684 2787 
Q 3425 2491 3425 1978 
L 3425 0 
L 2847 0 
L 2847 2094 
Q 2847 2600 2669 2842 
Q 2491 3084 2119 3084 
Q 1678 3084 1418 2786 
Q 1159 2488 1159 1978 
L 1159 0 
L 581 0 
L 581 3500 
L 1159 3500 
L 1159 2956 
Q 1356 3278 1631 3431 
Q 1906 3584 2284 3584 
Q 2666 3584 2933 3390 
Q 3200 3197 3328 2828 
z
" transform="scale(0.015625)"/>
       <path id="DejaVuSans-65" d="M 3597 1894 
L 3597 1613 
L 953 1613 
Q 991 1019 1311 708 
Q 1631 397 2203 397 
Q 2534 397 2845 478 
Q 3156 559 3463 722 
L 3463 178 
Q 3153 47 2828 -22 
Q 2503 -91 2169 -91 
Q 1331 -91 842 396 
Q 353 884 353 1716 
Q 353 2575 817 3079 
Q 1281 3584 2069 3584 
Q 2775 3584 3186 3129 
Q 3597 2675 3597 1894 
z
M 3022 2063 
Q 3016 2534 2758 2815 
Q 2500 3097 2075 3097 
Q 1594 3097 1305 2825 
Q 1016 2553 972 2059 
L 3022 2063 
z
" transform="scale(0.015625)"/>
       <path id="DejaVuSans-20" transform="scale(0.015625)"/>
       <path id="DejaVuSans-53" d="M 3425 4513 
L 3425 3897 
Q 3066 4069 2747 4153 
Q 2428 4238 2131 4238 
Q 1616 4238 1336 4038 
Q 1056 3838 1056 3469 
Q 1056 3159 1242 3001 
Q 1428 2844 1947 2747 
L 2328 2669 
Q 3034 2534 3370 2195 
Q 3706 1856 3706 1288 
Q 3706 609 3251 259 
Q 2797 -91 1919 -91 
Q 1588 -91 1214 -16 
Q 841 59 441 206 
L 441 856 
Q 825 641 1194 531 
Q 1563 422 1919 422 
Q 2459 422 2753 634 
Q 3047 847 3047 1241 
Q 3047 1584 2836 1778 
Q 2625 1972 2144 2069 
L 1759 2144 
Q 1053 2284 737 2584 
Q 422 2884 422 3419 
Q 422 4038 858 4394 
Q 1294 4750 2059 4750 
Q 2388 4750 2728 4690 
Q 3069 4631 3425 4513 
z
" transform="scale(0.015625)"/>
       <path id="DejaVuSans-74" d="M 1172 4494 
L 1172 3500 
L 2356 3500 
L 2356 3053 
L 1172 3053 
L 1172 1153 
Q 1172 725 1289 603 
Q 1406 481 1766 481 
L 2356 481 
L 2356 0 
L 1766 0 
Q 1100 0 847 248 
Q 594 497 594 1153 
L 594 3053 
L 172 3053 
L 172 3500 
L 594 3500 
L 594 4494 
L 1172 4494 
z
" transform="scale(0.015625)"/>
       <path id="DejaVuSans-70" d="M 1159 525 
L 1159 -1331 
L 581 -1331 
L 581 3500 
L 1159 3500 
L 1159 2969 
Q 1341 3281 1617 3432 
Q 1894 3584 2278 3584 
Q 2916 3584 3314 3078 
Q 3713 2572 3713 1747 
Q 3713 922 3314 415 
Q 2916 -91 2278 -91 
Q 1894 -91 1617 61 
Q 1341 213 1159 525 
z
M 3116 1747 
Q 3116 2381 2855 2742 
Q 2594 3103 2138 3103 
Q 1681 3103 1420 2742 
Q 1159 2381 1159 1747 
Q 1159 1113 1420 752 
Q 1681 391 2138 391 
Q 2594 391 2855 752 
Q 3116 1113 3116 1747 
z
" transform="scale(0.015625)"/>
       <path id="DejaVuSans-28" d="M 1984 4856 
Q 1566 4138 1362 3434 
Q 1159 2731 1159 2009 
Q 1159 1288 1364 580 
Q 1569 -128 1984 -844 
L 1484 -844 
Q 1016 -109 783 600 
Q 550 1309 550 2009 
Q 550 2706 781 3412 
Q 1013 4119 1484 4856 
L 1984 4856 
z
" transform="scale(0.015625)"/>
       <path id="DejaVuSans-4e" d="M 628 4666 
L 1478 4666 
L 3547 763 
L 3547 4666 
L 4159 4666 
L 4159 0 
L 3309 0 
L 1241 3903 
L 1241 0 
L 628 0 
L 628 4666 
z
" transform="scale(0.015625)"/>
       <path id="DejaVuSans-6f" d="M 1959 3097 
Q 1497 3097 1228 2736 
Q 959 2375 959 1747 
Q 959 1119 1226 758 
Q 1494 397 1959 397 
Q 2419 397 2687 759 
Q 2956 1122 2956 1747 
Q 2956 2369 2687 2733 
Q 2419 3097 1959 3097 
z
M 1959 3584 
Q 2709 3584 3137 3096 
Q 3566 2609 3566 1747 
Q 3566 888 3137 398 
Q 2709 -91 1959 -91 
Q 1206 -91 779 398 
Q 353 888 353 1747 
Q 353 2609 779 3096 
Q 1206 3584 1959 3584 
z
" transform="scale(0.015625)"/>
       <path id="DejaVuSans-72" d="M 2631 2963 
Q 2534 3019 2420 3045 
Q 2306 3072 2169 3072 
Q 1681 3072 1420 2755 
Q 1159 2438 1159 1844 
L 1159 0 
L 581 0 
L 581 3500 
L 1159 3500 
L 1159 2956 
Q 1341 3275 1631 3429 
Q 1922 3584 2338 3584 
Q 2397 3584 2469 3576 
Q 2541 3569 2628 3553 
L 2631 2963 
z
" transform="scale(0.015625)"/>
       <path id="DejaVuSans-61" d="M 2194 1759 
Q 1497 1759 1228 1600 
Q 959 1441 959 1056 
Q 959 750 1161 570 
Q 1363 391 1709 391 
Q 2188 391 2477 730 
Q 2766 1069 2766 1631 
L 2766 1759 
L 2194 1759 
z
M 3341 1997 
L 3341 0 
L 2766 0 
L 2766 531 
Q 2569 213 2275 61 
Q 1981 -91 1556 -91 
Q 1019 -91 701 211 
Q 384 513 384 1019 
Q 384 1609 779 1909 
Q 1175 2209 1959 2209 
L 2766 2209 
L 2766 2266 
Q 2766 2663 2505 2880 
Q 2244 3097 1772 3097 
Q 1472 3097 1187 3025 
Q 903 2953 641 2809 
L 641 3341 
Q 956 3463 1253 3523 
Q 1550 3584 1831 3584 
Q 2591 3584 2966 3190 
Q 3341 2797 3341 1997 
z
" transform="scale(0.015625)"/>
       <path id="DejaVuSans-6c" d="M 603 4863 
L 1178 4863 
L 1178 0 
L 603 0 
L 603 4863 
z
" transform="scale(0.015625)"/>
       <path id="DejaVuSans-7a" d="M 353 3500 
L 3084 3500 
L 3084 2975 
L 922 459 
L 3084 459 
L 3084 0 
L 275 0 
L 275 525 
L 2438 3041 
L 353 3041 
L 353 3500 
z
" transform="scale(0.015625)"/>
       <path id="DejaVuSans-64" d="M 2906 2969 
L 2906 4863 
L 3481 4863 
L 3481 0 
L 2906 0 
L 2906 525 
Q 2725 213 2448 61 
Q 2172 -91 1784 -91 
Q 1150 -91 751 415 
Q 353 922 353 1747 
Q 353 2572 751 3078 
Q 1150 3584 1784 3584 
Q 2172 3584 2448 3432 
Q 2725 3281 2906 2969 
z
M 947 1747 
Q 947 1113 1208 752 
Q 1469 391 1925 391 
Q 2381 391 2643 752 
Q 2906 1113 2906 1747 
Q 2906 2381 2643 2742 
Q 2381 3103 1925 3103 
Q 1469 3103 1208 2742 
Q 947 2381 947 1747 
z
" transform="scale(0.015625)"/>
       <path id="DejaVuSans-29" d="M 513 4856 
L 1013 4856 
Q 1481 4119 1714 3412 
Q 1947 2706 1947 2009 
Q 1947 1309 1714 600 
Q 1481 -109 1013 -844 
L 513 -844 
Q 928 -128 1133 580 
Q 1338 1288 1338 2009 
Q 1338 2731 1133 3434 
Q 928 4138 513 4856 
z
" transform="scale(0.015625)"/>
      </defs>
      <use xlink:href="#DejaVuSans-54"/>
      <use xlink:href="#DejaVuSans-69" transform="translate(57.958984 0)"/>
      <use xlink:href="#DejaVuSans-6d" transform="translate(85.742188 0)"/>
      <use xlink:href="#DejaVuSans-65" transform="translate(183.154297 0)"/>
      <use xlink:href="#DejaVuSans-20" transform="translate(244.677734 0)"/>
      <use xlink:href="#DejaVuSans-53" transform="translate(276.464844 0)"/>
      <use xlink:href="#DejaVuSans-74" transform="translate(339.941406 0)"/>
      <use xlink:href="#DejaVuSans-65" transform="translate(379.150391 0)"/>
      <use xlink:href="#DejaVuSans-70" transform="translate(440.673828 0)"/>
      <use xlink:href="#DejaVuSans-20" transform="translate(504.150391 0)"/>
      <use xlink:href="#DejaVuSans-28" transform="translate(535.9375 0)"/>
      <use xlink:href="#DejaVuSans-4e" transform="translate(574.951172 0)"/>
      <use xlink:href="#DejaVuSans-6f" transform="translate(649.755859 0)"/>
      <use xlink:href="#DejaVuSans-72" transform="translate(710.9375 0)"/>
      <use xlink:href="#DejaVuSans-6d" transform="translate(750.300781 0)"/>
      <use xlink:href="#DejaVuSans-61" transform="translate(847.712891 0)"/>
      <use xlink:href="#DejaVuSans-6c" transform="translate(908.992188 0)"/>
      <use xlink:href="#DejaVuSans-69" transform="translate(936.775391 0)"/>
      <use xlink:href="#DejaVuSans-7a" transform="translate(964.558594 0)"/>
      <use xlink:href="#DejaVuSans-65" transform="translate(1017.048828 0)"/>
      <use xlink:href="#DejaVuSans-64" transform="translate(1078.572266 0)"/>
      <use xlink:href="#DejaVuSans-29" transform="translate(1142.048828 0)"/>
     </g>
    </g>
   </g>
   <g id="matplotlib.axis_2">
    <g id="ytick_1">
     <g id="line2d_13">
      <path d="M 104.496875 352.768676 
L 762.826875 352.768676 
" clip-path="url(#p779439ce16)" style="fill: none; stroke: #b0b0b0; stroke-width: 0.8; stroke-linecap: square"/>
     </g>
     <g id="line2d_14">
      <defs>
       <path id="m7d9cb8f95d" d="M 0 0 
L -3.5 0 
" style="stroke: #000000; stroke-width: 0.8"/>
      </defs>
      <g>
       <use xlink:href="#m7d9cb8f95d" x="104.496875" y="352.768676" style="stroke: #000000; stroke-width: 0.8"/>
      </g>
     </g>
     <g id="text_8">
      <!-- 0 -->
      <g transform="translate(78.409375 364.166332) scale(0.3 -0.3)">
       <use xlink:href="#DejaVuSans-30"/>
      </g>
     </g>
    </g>
    <g id="ytick_2">
     <g id="line2d_15">
      <path d="M 104.496875 311.826113 
L 762.826875 311.826113 
" clip-path="url(#p779439ce16)" style="fill: none; stroke: #b0b0b0; stroke-width: 0.8; stroke-linecap: square"/>
     </g>
     <g id="line2d_16">
      <g>
       <use xlink:href="#m7d9cb8f95d" x="104.496875" y="311.826113" style="stroke: #000000; stroke-width: 0.8"/>
      </g>
     </g>
     <g id="text_9">
      <!-- 25 -->
      <g transform="translate(59.321875 323.22377) scale(0.3 -0.3)">
       <defs>
        <path id="DejaVuSans-35" d="M 691 4666 
L 3169 4666 
L 3169 4134 
L 1269 4134 
L 1269 2991 
Q 1406 3038 1543 3061 
Q 1681 3084 1819 3084 
Q 2600 3084 3056 2656 
Q 3513 2228 3513 1497 
Q 3513 744 3044 326 
Q 2575 -91 1722 -91 
Q 1428 -91 1123 -41 
Q 819 9 494 109 
L 494 744 
Q 775 591 1075 516 
Q 1375 441 1709 441 
Q 2250 441 2565 725 
Q 2881 1009 2881 1497 
Q 2881 1984 2565 2268 
Q 2250 2553 1709 2553 
Q 1456 2553 1204 2497 
Q 953 2441 691 2322 
L 691 4666 
z
" transform="scale(0.015625)"/>
       </defs>
       <use xlink:href="#DejaVuSans-32"/>
       <use xlink:href="#DejaVuSans-35" transform="translate(63.623047 0)"/>
      </g>
     </g>
    </g>
    <g id="ytick_3">
     <g id="line2d_17">
      <path d="M 104.496875 270.883551 
L 762.826875 270.883551 
" clip-path="url(#p779439ce16)" style="fill: none; stroke: #b0b0b0; stroke-width: 0.8; stroke-linecap: square"/>
     </g>
     <g id="line2d_18">
      <g>
       <use xlink:href="#m7d9cb8f95d" x="104.496875" y="270.883551" style="stroke: #000000; stroke-width: 0.8"/>
      </g>
     </g>
     <g id="text_10">
      <!-- 50 -->
      <g transform="translate(59.321875 282.281208) scale(0.3 -0.3)">
       <use xlink:href="#DejaVuSans-35"/>
       <use xlink:href="#DejaVuSans-30" transform="translate(63.623047 0)"/>
      </g>
     </g>
    </g>
    <g id="ytick_4">
     <g id="line2d_19">
      <path d="M 104.496875 229.940989 
L 762.826875 229.940989 
" clip-path="url(#p779439ce16)" style="fill: none; stroke: #b0b0b0; stroke-width: 0.8; stroke-linecap: square"/>
     </g>
     <g id="line2d_20">
      <g>
       <use xlink:href="#m7d9cb8f95d" x="104.496875" y="229.940989" style="stroke: #000000; stroke-width: 0.8"/>
      </g>
     </g>
     <g id="text_11">
      <!-- 75 -->
      <g transform="translate(59.321875 241.338646) scale(0.3 -0.3)">
       <defs>
        <path id="DejaVuSans-37" d="M 525 4666 
L 3525 4666 
L 3525 4397 
L 1831 0 
L 1172 0 
L 2766 4134 
L 525 4134 
L 525 4666 
z
" transform="scale(0.015625)"/>
       </defs>
       <use xlink:href="#DejaVuSans-37"/>
       <use xlink:href="#DejaVuSans-35" transform="translate(63.623047 0)"/>
      </g>
     </g>
    </g>
    <g id="ytick_5">
     <g id="line2d_21">
      <path d="M 104.496875 188.998427 
L 762.826875 188.998427 
" clip-path="url(#p779439ce16)" style="fill: none; stroke: #b0b0b0; stroke-width: 0.8; stroke-linecap: square"/>
     </g>
     <g id="line2d_22">
      <g>
       <use xlink:href="#m7d9cb8f95d" x="104.496875" y="188.998427" style="stroke: #000000; stroke-width: 0.8"/>
      </g>
     </g>
     <g id="text_12">
      <!-- 100 -->
      <g transform="translate(40.234375 200.396084) scale(0.3 -0.3)">
       <use xlink:href="#DejaVuSans-31"/>
       <use xlink:href="#DejaVuSans-30" transform="translate(63.623047 0)"/>
       <use xlink:href="#DejaVuSans-30" transform="translate(127.246094 0)"/>
      </g>
     </g>
    </g>
    <g id="ytick_6">
     <g id="line2d_23">
      <path d="M 104.496875 148.055865 
L 762.826875 148.055865 
" clip-path="url(#p779439ce16)" style="fill: none; stroke: #b0b0b0; stroke-width: 0.8; stroke-linecap: square"/>
     </g>
     <g id="line2d_24">
      <g>
       <use xlink:href="#m7d9cb8f95d" x="104.496875" y="148.055865" style="stroke: #000000; stroke-width: 0.8"/>
      </g>
     </g>
     <g id="text_13">
      <!-- 125 -->
      <g transform="translate(40.234375 159.453522) scale(0.3 -0.3)">
       <use xlink:href="#DejaVuSans-31"/>
       <use xlink:href="#DejaVuSans-32" transform="translate(63.623047 0)"/>
       <use xlink:href="#DejaVuSans-35" transform="translate(127.246094 0)"/>
      </g>
     </g>
    </g>
    <g id="ytick_7">
     <g id="line2d_25">
      <path d="M 104.496875 107.113303 
L 762.826875 107.113303 
" clip-path="url(#p779439ce16)" style="fill: none; stroke: #b0b0b0; stroke-width: 0.8; stroke-linecap: square"/>
     </g>
     <g id="line2d_26">
      <g>
       <use xlink:href="#m7d9cb8f95d" x="104.496875" y="107.113303" style="stroke: #000000; stroke-width: 0.8"/>
      </g>
     </g>
     <g id="text_14">
      <!-- 150 -->
      <g transform="translate(40.234375 118.51096) scale(0.3 -0.3)">
       <use xlink:href="#DejaVuSans-31"/>
       <use xlink:href="#DejaVuSans-35" transform="translate(63.623047 0)"/>
       <use xlink:href="#DejaVuSans-30" transform="translate(127.246094 0)"/>
      </g>
     </g>
    </g>
    <g id="ytick_8">
     <g id="line2d_27">
      <path d="M 104.496875 66.170741 
L 762.826875 66.170741 
" clip-path="url(#p779439ce16)" style="fill: none; stroke: #b0b0b0; stroke-width: 0.8; stroke-linecap: square"/>
     </g>
     <g id="line2d_28">
      <g>
       <use xlink:href="#m7d9cb8f95d" x="104.496875" y="66.170741" style="stroke: #000000; stroke-width: 0.8"/>
      </g>
     </g>
     <g id="text_15">
      <!-- 175 -->
      <g transform="translate(40.234375 77.568398) scale(0.3 -0.3)">
       <use xlink:href="#DejaVuSans-31"/>
       <use xlink:href="#DejaVuSans-37" transform="translate(63.623047 0)"/>
       <use xlink:href="#DejaVuSans-35" transform="translate(127.246094 0)"/>
      </g>
     </g>
    </g>
    <g id="ytick_9">
     <g id="line2d_29">
      <path d="M 104.496875 25.228179 
L 762.826875 25.228179 
" clip-path="url(#p779439ce16)" style="fill: none; stroke: #b0b0b0; stroke-width: 0.8; stroke-linecap: square"/>
     </g>
     <g id="line2d_30">
      <g>
       <use xlink:href="#m7d9cb8f95d" x="104.496875" y="25.228179" style="stroke: #000000; stroke-width: 0.8"/>
      </g>
     </g>
     <g id="text_16">
      <!-- 200 -->
      <g transform="translate(40.234375 36.625836) scale(0.3 -0.3)">
       <use xlink:href="#DejaVuSans-32"/>
       <use xlink:href="#DejaVuSans-30" transform="translate(63.623047 0)"/>
       <use xlink:href="#DejaVuSans-30" transform="translate(127.246094 0)"/>
      </g>
     </g>
    </g>
    <g id="text_17">
     <!-- abs(error) (degrees) -->
     <g transform="translate(29.995312 340.169844) rotate(-90) scale(0.3 -0.3)">
      <defs>
       <path id="DejaVuSans-62" d="M 3116 1747 
Q 3116 2381 2855 2742 
Q 2594 3103 2138 3103 
Q 1681 3103 1420 2742 
Q 1159 2381 1159 1747 
Q 1159 1113 1420 752 
Q 1681 391 2138 391 
Q 2594 391 2855 752 
Q 3116 1113 3116 1747 
z
M 1159 2969 
Q 1341 3281 1617 3432 
Q 1894 3584 2278 3584 
Q 2916 3584 3314 3078 
Q 3713 2572 3713 1747 
Q 3713 922 3314 415 
Q 2916 -91 2278 -91 
Q 1894 -91 1617 61 
Q 1341 213 1159 525 
L 1159 0 
L 581 0 
L 581 4863 
L 1159 4863 
L 1159 2969 
z
" transform="scale(0.015625)"/>
       <path id="DejaVuSans-73" d="M 2834 3397 
L 2834 2853 
Q 2591 2978 2328 3040 
Q 2066 3103 1784 3103 
Q 1356 3103 1142 2972 
Q 928 2841 928 2578 
Q 928 2378 1081 2264 
Q 1234 2150 1697 2047 
L 1894 2003 
Q 2506 1872 2764 1633 
Q 3022 1394 3022 966 
Q 3022 478 2636 193 
Q 2250 -91 1575 -91 
Q 1294 -91 989 -36 
Q 684 19 347 128 
L 347 722 
Q 666 556 975 473 
Q 1284 391 1588 391 
Q 1994 391 2212 530 
Q 2431 669 2431 922 
Q 2431 1156 2273 1281 
Q 2116 1406 1581 1522 
L 1381 1569 
Q 847 1681 609 1914 
Q 372 2147 372 2553 
Q 372 3047 722 3315 
Q 1072 3584 1716 3584 
Q 2034 3584 2315 3537 
Q 2597 3491 2834 3397 
z
" transform="scale(0.015625)"/>
       <path id="DejaVuSans-67" d="M 2906 1791 
Q 2906 2416 2648 2759 
Q 2391 3103 1925 3103 
Q 1463 3103 1205 2759 
Q 947 2416 947 1791 
Q 947 1169 1205 825 
Q 1463 481 1925 481 
Q 2391 481 2648 825 
Q 2906 1169 2906 1791 
z
M 3481 434 
Q 3481 -459 3084 -895 
Q 2688 -1331 1869 -1331 
Q 1566 -1331 1297 -1286 
Q 1028 -1241 775 -1147 
L 775 -588 
Q 1028 -725 1275 -790 
Q 1522 -856 1778 -856 
Q 2344 -856 2625 -561 
Q 2906 -266 2906 331 
L 2906 616 
Q 2728 306 2450 153 
Q 2172 0 1784 0 
Q 1141 0 747 490 
Q 353 981 353 1791 
Q 353 2603 747 3093 
Q 1141 3584 1784 3584 
Q 2172 3584 2450 3431 
Q 2728 3278 2906 2969 
L 2906 3500 
L 3481 3500 
L 3481 434 
z
" transform="scale(0.015625)"/>
      </defs>
      <use xlink:href="#DejaVuSans-61"/>
      <use xlink:href="#DejaVuSans-62" transform="translate(61.279297 0)"/>
      <use xlink:href="#DejaVuSans-73" transform="translate(124.755859 0)"/>
      <use xlink:href="#DejaVuSans-28" transform="translate(176.855469 0)"/>
      <use xlink:href="#DejaVuSans-65" transform="translate(215.869141 0)"/>
      <use xlink:href="#DejaVuSans-72" transform="translate(277.392578 0)"/>
      <use xlink:href="#DejaVuSans-72" transform="translate(316.755859 0)"/>
      <use xlink:href="#DejaVuSans-6f" transform="translate(355.619141 0)"/>
      <use xlink:href="#DejaVuSans-72" transform="translate(416.800781 0)"/>
      <use xlink:href="#DejaVuSans-29" transform="translate(457.914062 0)"/>
      <use xlink:href="#DejaVuSans-20" transform="translate(496.927734 0)"/>
      <use xlink:href="#DejaVuSans-28" transform="translate(528.714844 0)"/>
      <use xlink:href="#DejaVuSans-64" transform="translate(567.728516 0)"/>
      <use xlink:href="#DejaVuSans-65" transform="translate(631.205078 0)"/>
      <use xlink:href="#DejaVuSans-67" transform="translate(692.728516 0)"/>
      <use xlink:href="#DejaVuSans-72" transform="translate(756.205078 0)"/>
      <use xlink:href="#DejaVuSans-65" transform="translate(795.068359 0)"/>
      <use xlink:href="#DejaVuSans-65" transform="translate(856.591797 0)"/>
      <use xlink:href="#DejaVuSans-73" transform="translate(918.115234 0)"/>
      <use xlink:href="#DejaVuSans-29" transform="translate(970.214844 0)"/>
     </g>
    </g>
   </g>
   <g id="line2d_31">
    <path d="M 104.496875 57.982229 
L 113.274608 43.091188 
L 122.052342 34.525908 
L 130.830075 35.985572 
L 139.607808 43.685071 
L 148.385542 42.85925 
L 157.163275 60.645125 
L 165.941008 63.568569 
L 174.718742 73.85506 
L 183.496475 86.460172 
L 192.274208 82.893173 
L 201.051942 89.475268 
L 209.829675 104.485708 
L 218.607408 104.353526 
L 227.385142 107.111585 
L 236.162875 111.46396 
L 244.940608 136.107705 
L 253.718342 129.271106 
L 262.496075 137.15755 
L 271.273808 146.034693 
L 280.051542 152.215559 
L 288.829275 162.98061 
L 297.607008 167.148668 
L 306.384742 186.818429 
L 315.162475 198.37949 
L 323.940208 204.358867 
L 332.717942 215.778802 
L 341.495675 229.336954 
L 350.273408 236.395398 
L 359.051142 242.426432 
L 367.828875 255.98408 
L 376.606608 257.087016 
L 385.384342 267.66225 
L 394.162075 276.367002 
L 402.939808 276.927804 
L 411.717542 284.323645 
L 420.495275 288.756529 
L 429.273008 286.585475 
L 438.050742 289.422826 
L 446.828475 299.095242 
L 455.606208 300.096105 
L 464.383942 298.111166 
L 473.161675 297.768806 
L 481.939408 296.477815 
L 490.717142 294.693912 
L 499.494875 298.752737 
L 508.272608 302.042895 
L 517.050342 301.857565 
L 525.828075 302.518882 
L 534.605808 300.903873 
L 543.383542 300.314103 
L 552.161275 306.603907 
L 560.939008 312.064751 
L 569.716742 320.624235 
L 578.494475 317.741305 
L 587.272208 318.161689 
L 596.049942 316.705331 
L 604.827675 321.160235 
L 613.605408 318.827897 
L 622.383142 318.62673 
L 631.160875 320.484425 
L 639.938608 324.969071 
L 648.716342 323.003421 
L 657.494075 322.566772 
L 666.271808 319.451983 
L 675.049542 322.756288 
L 683.827275 322.416244 
L 692.605008 322.927085 
L 701.382742 319.698767 
L 710.160475 312.794059 
L 718.938208 312.954528 
L 727.715942 314.659991 
L 736.493675 318.829707 
L 745.271408 316.79454 
L 754.049142 315.33534 
L 762.826875 321.910268 
" clip-path="url(#p779439ce16)" style="fill: none; stroke: #1f77b4; stroke-width: 1.5; stroke-linecap: square"/>
   </g>
   <g id="line2d_32">
    <path d="M 104.496875 57.982229 
L 113.274608 46.096416 
L 122.052342 33.335832 
L 130.830075 34.317553 
L 139.607808 47.429766 
L 148.385542 50.331162 
L 157.163275 67.11628 
L 165.941008 68.046409 
L 174.718742 88.169727 
L 183.496475 113.037163 
L 192.274208 106.822171 
L 201.051942 109.359766 
L 209.829675 121.85122 
L 218.607408 128.918285 
L 227.385142 135.792099 
L 236.162875 134.442724 
L 244.940608 150.643218 
L 253.718342 151.150862 
L 262.496075 158.197268 
L 271.273808 163.722992 
L 280.051542 174.947039 
L 288.829275 186.497292 
L 297.607008 191.061969 
L 306.384742 201.038981 
L 315.162475 216.792867 
L 323.940208 228.348485 
L 332.717942 233.814854 
L 341.495675 247.441474 
L 350.273408 252.384327 
L 359.051142 259.910917 
L 367.828875 266.307274 
L 376.606608 266.610592 
L 385.384342 274.640689 
L 394.162075 275.260336 
L 402.939808 277.200171 
L 411.717542 283.524193 
L 420.495275 289.914691 
L 429.273008 286.051127 
L 438.050742 289.270738 
L 446.828475 298.119653 
L 455.606208 300.890957 
L 464.383942 301.895364 
L 473.161675 305.039757 
L 481.939408 303.729648 
L 490.717142 304.554397 
L 499.494875 305.431398 
L 508.272608 305.806822 
L 517.050342 303.584157 
L 525.828075 309.34656 
L 534.605808 307.179585 
L 543.383542 305.662898 
L 552.161275 305.520848 
L 560.939008 312.376276 
L 569.716742 316.798387 
L 578.494475 313.596229 
L 587.272208 310.427266 
L 596.049942 312.529887 
L 604.827675 315.186448 
L 613.605408 315.18065 
L 622.383142 310.580659 
L 631.160875 314.553813 
L 639.938608 318.058098 
L 648.716342 314.312064 
L 657.494075 314.708559 
L 666.271808 316.285363 
L 675.049542 318.954821 
L 683.827275 319.701571 
L 692.605008 319.320535 
L 701.382742 317.887578 
L 710.160475 316.632596 
L 718.938208 319.660052 
L 727.715942 318.853027 
L 736.493675 321.468719 
L 745.271408 320.138119 
L 754.049142 321.227696 
L 762.826875 323.47322 
" clip-path="url(#p779439ce16)" style="fill: none; stroke: #ff7f0e; stroke-width: 1.5; stroke-linecap: square"/>
   </g>
   <g id="line2d_33">
    <path d="M 104.496875 57.982229 
L 113.274608 44.086371 
L 122.052342 32.914803 
L 130.830075 34.49718 
L 139.607808 43.170237 
L 148.385542 48.123974 
L 157.163275 67.506468 
L 165.941008 68.621735 
L 174.718742 82.460017 
L 183.496475 101.892941 
L 192.274208 100.5919 
L 201.051942 104.261451 
L 209.829675 115.420891 
L 218.607408 117.537293 
L 227.385142 129.966004 
L 236.162875 133.442478 
L 244.940608 141.867355 
L 253.718342 140.399535 
L 262.496075 150.047466 
L 271.273808 155.263585 
L 280.051542 163.282732 
L 288.829275 171.72155 
L 297.607008 173.882544 
L 306.384742 184.399925 
L 315.162475 198.963031 
L 323.940208 201.715017 
L 332.717942 205.347631 
L 341.495675 215.221729 
L 350.273408 222.263158 
L 359.051142 229.300406 
L 367.828875 235.394813 
L 376.606608 237.638064 
L 385.384342 249.807662 
L 394.162075 253.499713 
L 402.939808 255.496304 
L 411.717542 261.118943 
L 420.495275 267.664157 
L 429.273008 267.26027 
L 438.050742 270.835971 
L 446.828475 280.210682 
L 455.606208 283.759475 
L 464.383942 287.291574 
L 473.161675 291.568452 
L 481.939408 292.897006 
L 490.717142 293.262447 
L 499.494875 295.963555 
L 508.272608 295.230264 
L 517.050342 301.163431 
L 525.828075 305.144243 
L 534.605808 303.889872 
L 543.383542 303.178443 
L 552.161275 301.312129 
L 560.939008 309.316094 
L 569.716742 313.949139 
L 578.494475 311.431911 
L 587.272208 308.683917 
L 596.049942 312.814218 
L 604.827675 314.841315 
L 613.605408 315.302549 
L 622.383142 311.86123 
L 631.160875 315.04202 
L 639.938608 317.901782 
L 648.716342 316.694573 
L 657.494075 316.664683 
L 666.271808 318.265706 
L 675.049542 318.966231 
L 683.827275 318.131776 
L 692.605008 320.997946 
L 701.382742 320.604916 
L 710.160475 318.285669 
L 718.938208 319.786804 
L 727.715942 320.066068 
L 736.493675 322.314764 
L 745.271408 320.721548 
L 754.049142 322.737036 
L 762.826875 321.220243 
" clip-path="url(#p779439ce16)" style="fill: none; stroke: #2ca02c; stroke-width: 1.5; stroke-linecap: square"/>
   </g>
   <g id="patch_3">
    <path d="M 104.496875 370.36 
L 104.496875 7.2 
" style="fill: none; stroke: #000000; stroke-width: 0.8; stroke-linejoin: miter; stroke-linecap: square"/>
   </g>
   <g id="patch_4">
    <path d="M 762.826875 370.36 
L 762.826875 7.2 
" style="fill: none; stroke: #000000; stroke-width: 0.8; stroke-linejoin: miter; stroke-linecap: square"/>
   </g>
   <g id="patch_5">
    <path d="M 104.496875 370.36 
L 762.826875 370.36 
" style="fill: none; stroke: #000000; stroke-width: 0.8; stroke-linejoin: miter; stroke-linecap: square"/>
   </g>
   <g id="patch_6">
    <path d="M 104.496875 7.2 
L 762.826875 7.2 
" style="fill: none; stroke: #000000; stroke-width: 0.8; stroke-linejoin: miter; stroke-linecap: square"/>
   </g>
   <g id="legend_1">
    <g id="patch_7">
     <path d="M 575.289375 132.0825 
L 746.026875 132.0825 
Q 750.826875 132.0825 750.826875 127.2825 
L 750.826875 24 
Q 750.826875 19.2 746.026875 19.2 
L 575.289375 19.2 
Q 570.489375 19.2 570.489375 24 
L 570.489375 127.2825 
Q 570.489375 132.0825 575.289375 132.0825 
z
" style="fill: #ffffff; opacity: 0.8; stroke: #cccccc; stroke-linejoin: miter"/>
    </g>
    <g id="line2d_34">
     <path d="M 580.089375 38.63625 
L 604.089375 38.63625 
L 628.089375 38.63625 
" style="fill: none; stroke: #1f77b4; stroke-width: 1.5; stroke-linecap: square"/>
    </g>
    <g id="text_18">
     <!-- Agent 1 -->
     <g transform="translate(647.289375 47.03625) scale(0.24 -0.24)">
      <defs>
       <path id="DejaVuSans-41" d="M 2188 4044 
L 1331 1722 
L 3047 1722 
L 2188 4044 
z
M 1831 4666 
L 2547 4666 
L 4325 0 
L 3669 0 
L 3244 1197 
L 1141 1197 
L 716 0 
L 50 0 
L 1831 4666 
z
" transform="scale(0.015625)"/>
       <path id="DejaVuSans-6e" d="M 3513 2113 
L 3513 0 
L 2938 0 
L 2938 2094 
Q 2938 2591 2744 2837 
Q 2550 3084 2163 3084 
Q 1697 3084 1428 2787 
Q 1159 2491 1159 1978 
L 1159 0 
L 581 0 
L 581 3500 
L 1159 3500 
L 1159 2956 
Q 1366 3272 1645 3428 
Q 1925 3584 2291 3584 
Q 2894 3584 3203 3211 
Q 3513 2838 3513 2113 
z
" transform="scale(0.015625)"/>
      </defs>
      <use xlink:href="#DejaVuSans-41"/>
      <use xlink:href="#DejaVuSans-67" transform="translate(68.408203 0)"/>
      <use xlink:href="#DejaVuSans-65" transform="translate(131.884766 0)"/>
      <use xlink:href="#DejaVuSans-6e" transform="translate(193.408203 0)"/>
      <use xlink:href="#DejaVuSans-74" transform="translate(256.787109 0)"/>
      <use xlink:href="#DejaVuSans-20" transform="translate(295.996094 0)"/>
      <use xlink:href="#DejaVuSans-31" transform="translate(327.783203 0)"/>
     </g>
    </g>
    <g id="line2d_35">
     <path d="M 580.089375 73.86375 
L 604.089375 73.86375 
L 628.089375 73.86375 
" style="fill: none; stroke: #ff7f0e; stroke-width: 1.5; stroke-linecap: square"/>
    </g>
    <g id="text_19">
     <!-- Agent 2 -->
     <g transform="translate(647.289375 82.26375) scale(0.24 -0.24)">
      <use xlink:href="#DejaVuSans-41"/>
      <use xlink:href="#DejaVuSans-67" transform="translate(68.408203 0)"/>
      <use xlink:href="#DejaVuSans-65" transform="translate(131.884766 0)"/>
      <use xlink:href="#DejaVuSans-6e" transform="translate(193.408203 0)"/>
      <use xlink:href="#DejaVuSans-74" transform="translate(256.787109 0)"/>
      <use xlink:href="#DejaVuSans-20" transform="translate(295.996094 0)"/>
      <use xlink:href="#DejaVuSans-32" transform="translate(327.783203 0)"/>
     </g>
    </g>
    <g id="line2d_36">
     <path d="M 580.089375 109.09125 
L 604.089375 109.09125 
L 628.089375 109.09125 
" style="fill: none; stroke: #2ca02c; stroke-width: 1.5; stroke-linecap: square"/>
    </g>
    <g id="text_20">
     <!-- Agent 3 -->
     <g transform="translate(647.289375 117.49125) scale(0.24 -0.24)">
      <defs>
       <path id="DejaVuSans-33" d="M 2597 2516 
Q 3050 2419 3304 2112 
Q 3559 1806 3559 1356 
Q 3559 666 3084 287 
Q 2609 -91 1734 -91 
Q 1441 -91 1130 -33 
Q 819 25 488 141 
L 488 750 
Q 750 597 1062 519 
Q 1375 441 1716 441 
Q 2309 441 2620 675 
Q 2931 909 2931 1356 
Q 2931 1769 2642 2001 
Q 2353 2234 1838 2234 
L 1294 2234 
L 1294 2753 
L 1863 2753 
Q 2328 2753 2575 2939 
Q 2822 3125 2822 3475 
Q 2822 3834 2567 4026 
Q 2313 4219 1838 4219 
Q 1578 4219 1281 4162 
Q 984 4106 628 3988 
L 628 4550 
Q 988 4650 1302 4700 
Q 1616 4750 1894 4750 
Q 2613 4750 3031 4423 
Q 3450 4097 3450 3541 
Q 3450 3153 3228 2886 
Q 3006 2619 2597 2516 
z
" transform="scale(0.015625)"/>
      </defs>
      <use xlink:href="#DejaVuSans-41"/>
      <use xlink:href="#DejaVuSans-67" transform="translate(68.408203 0)"/>
      <use xlink:href="#DejaVuSans-65" transform="translate(131.884766 0)"/>
      <use xlink:href="#DejaVuSans-6e" transform="translate(193.408203 0)"/>
      <use xlink:href="#DejaVuSans-74" transform="translate(256.787109 0)"/>
      <use xlink:href="#DejaVuSans-20" transform="translate(295.996094 0)"/>
      <use xlink:href="#DejaVuSans-33" transform="translate(327.783203 0)"/>
     </g>
    </g>
   </g>
  </g>
 </g>
 <defs>
  <clipPath id="p779439ce16">
   <rect x="104.496875" y="7.2" width="658.33" height="363.16"/>
  </clipPath>
 </defs>
</svg>
