<?xml version="1.0" encoding="utf-8" standalone="no"?>
<!DOCTYPE svg PUBLIC "-//W3C//DTD SVG 1.1//EN"
  "http://www.w3.org/Graphics/SVG/1.1/DTD/svg11.dtd">
<svg xmlns:xlink="http://www.w3.org/1999/xlink" width="795.414375pt" height="458.026406pt" viewBox="0 0 795.414375 458.026406" xmlns="http://www.w3.org/2000/svg" version="1.1">
 <metadata>
  <rdf:RDF xmlns:dc="http://purl.org/dc/elements/1.1/" xmlns:cc="http://creativecommons.org/ns#" xmlns:rdf="http://www.w3.org/1999/02/22-rdf-syntax-ns#">
   <cc:Work>
    <dc:type rdf:resource="http://purl.org/dc/dcmitype/StillImage"/>
    <dc:date>2025-09-03T15:32:47.775969</dc:date>
    <dc:format>image/svg+xml</dc:format>
    <dc:creator>
     <cc:Agent>
      <dc:title>Matplotlib v3.10.3, https://matplotlib.org/</dc:title>
     </cc:Agent>
    </dc:creator>
   </cc:Work>
  </rdf:RDF>
 </metadata>
 <defs>
  <style type="text/css">*{stroke-linejoin: round; stroke-linecap: butt}</style>
 </defs>
 <g id="figure_1">
  <g id="patch_1">
   <path d="M 0 458.026406 
L 795.414375 458.026406 
L 795.414375 0 
L 0 0 
z
" style="fill: #ffffff"/>
  </g>
  <g id="axes_1">
   <g id="patch_2">
    <path d="M 85.409375 381.757656 
L 750.039375 381.757656 
L 750.039375 18.597656 
L 85.409375 18.597656 
z
" style="fill: #ffffff"/>
   </g>
   <g id="matplotlib.axis_1">
    <g id="xtick_1">
     <g id="line2d_1">
      <path d="M 85.409375 381.757656 
L 85.409375 18.597656 
" clip-path="url(#p7c180aa1d7)" style="fill: none; stroke: #b0b0b0; stroke-width: 0.8; stroke-linecap: square"/>
     </g>
     <g id="line2d_2">
      <defs>
       <path id="m9994863c5a" d="M 0 0 
L 0 3.5 
" style="stroke: #000000; stroke-width: 0.8"/>
      </defs>
      <g>
       <use xlink:href="#m9994863c5a" x="85.409375" y="381.757656" style="stroke: #000000; stroke-width: 0.8"/>
      </g>
     </g>
     <g id="text_1">
      <!-- 0 -->
      <g transform="translate(75.865625 411.552969) scale(0.3 -0.3)">
       <defs>
        <path id="DejaVuSans-30" d="M 2034 4250 
Q 1547 4250 1301 3770 
Q 1056 3291 1056 2328 
Q 1056 1369 1301 889 
Q 1547 409 2034 409 
Q 2525 409 2770 889 
Q 3016 1369 3016 2328 
Q 3016 3291 2770 3770 
Q 2525 4250 2034 4250 
z
M 2034 4750 
Q 2819 4750 3233 4129 
Q 3647 3509 3647 2328 
Q 3647 1150 3233 529 
Q 2819 -91 2034 -91 
Q 1250 -91 836 529 
Q 422 1150 422 2328 
Q 422 3509 836 4129 
Q 1250 4750 2034 4750 
z
" transform="scale(0.015625)"/>
       </defs>
       <use xlink:href="#DejaVuSans-30"/>
      </g>
     </g>
    </g>
    <g id="xtick_2">
     <g id="line2d_3">
      <path d="M 218.335375 381.757656 
L 218.335375 18.597656 
" clip-path="url(#p7c180aa1d7)" style="fill: none; stroke: #b0b0b0; stroke-width: 0.8; stroke-linecap: square"/>
     </g>
     <g id="line2d_4">
      <g>
       <use xlink:href="#m9994863c5a" x="218.335375" y="381.757656" style="stroke: #000000; stroke-width: 0.8"/>
      </g>
     </g>
     <g id="text_2">
      <!-- 1000 -->
      <g transform="translate(180.160375 411.552969) scale(0.3 -0.3)">
       <defs>
        <path id="DejaVuSans-31" d="M 794 531 
L 1825 531 
L 1825 4091 
L 703 3866 
L 703 4441 
L 1819 4666 
L 2450 4666 
L 2450 531 
L 3481 531 
L 3481 0 
L 794 0 
L 794 531 
z
" transform="scale(0.015625)"/>
       </defs>
       <use xlink:href="#DejaVuSans-31"/>
       <use xlink:href="#DejaVuSans-30" transform="translate(63.623047 0)"/>
       <use xlink:href="#DejaVuSans-30" transform="translate(127.246094 0)"/>
       <use xlink:href="#DejaVuSans-30" transform="translate(190.869141 0)"/>
      </g>
     </g>
    </g>
    <g id="xtick_3">
     <g id="line2d_5">
      <path d="M 351.261375 381.757656 
L 351.261375 18.597656 
" clip-path="url(#p7c180aa1d7)" style="fill: none; stroke: #b0b0b0; stroke-width: 0.8; stroke-linecap: square"/>
     </g>
     <g id="line2d_6">
      <g>
       <use xlink:href="#m9994863c5a" x="351.261375" y="381.757656" style="stroke: #000000; stroke-width: 0.8"/>
      </g>
     </g>
     <g id="text_3">
      <!-- 2000 -->
      <g transform="translate(313.086375 411.552969) scale(0.3 -0.3)">
       <defs>
        <path id="DejaVuSans-32" d="M 1228 531 
L 3431 531 
L 3431 0 
L 469 0 
L 469 531 
Q 828 903 1448 1529 
Q 2069 2156 2228 2338 
Q 2531 2678 2651 2914 
Q 2772 3150 2772 3378 
Q 2772 3750 2511 3984 
Q 2250 4219 1831 4219 
Q 1534 4219 1204 4116 
Q 875 4013 500 3803 
L 500 4441 
Q 881 4594 1212 4672 
Q 1544 4750 1819 4750 
Q 2544 4750 2975 4387 
Q 3406 4025 3406 3419 
Q 3406 3131 3298 2873 
Q 3191 2616 2906 2266 
Q 2828 2175 2409 1742 
Q 1991 1309 1228 531 
z
" transform="scale(0.015625)"/>
       </defs>
       <use xlink:href="#DejaVuSans-32"/>
       <use xlink:href="#DejaVuSans-30" transform="translate(63.623047 0)"/>
       <use xlink:href="#DejaVuSans-30" transform="translate(127.246094 0)"/>
       <use xlink:href="#DejaVuSans-30" transform="translate(190.869141 0)"/>
      </g>
     </g>
    </g>
    <g id="xtick_4">
     <g id="line2d_7">
      <path d="M 484.187375 381.757656 
L 484.187375 18.597656 
" clip-path="url(#p7c180aa1d7)" style="fill: none; stroke: #b0b0b0; stroke-width: 0.8; stroke-linecap: square"/>
     </g>
     <g id="line2d_8">
      <g>
       <use xlink:href="#m9994863c5a" x="484.187375" y="381.757656" style="stroke: #000000; stroke-width: 0.8"/>
      </g>
     </g>
     <g id="text_4">
      <!-- 3000 -->
      <g transform="translate(446.012375 411.552969) scale(0.3 -0.3)">
       <defs>
        <path id="DejaVuSans-33" d="M 2597 2516 
Q 3050 2419 3304 2112 
Q 3559 1806 3559 1356 
Q 3559 666 3084 287 
Q 2609 -91 1734 -91 
Q 1441 -91 1130 -33 
Q 819 25 488 141 
L 488 750 
Q 750 597 1062 519 
Q 1375 441 1716 441 
Q 2309 441 2620 675 
Q 2931 909 2931 1356 
Q 2931 1769 2642 2001 
Q 2353 2234 1838 2234 
L 1294 2234 
L 1294 2753 
L 1863 2753 
Q 2328 2753 2575 2939 
Q 2822 3125 2822 3475 
Q 2822 3834 2567 4026 
Q 2313 4219 1838 4219 
Q 1578 4219 1281 4162 
Q 984 4106 628 3988 
L 628 4550 
Q 988 4650 1302 4700 
Q 1616 4750 1894 4750 
Q 2613 4750 3031 4423 
Q 3450 4097 3450 3541 
Q 3450 3153 3228 2886 
Q 3006 2619 2597 2516 
z
" transform="scale(0.015625)"/>
       </defs>
       <use xlink:href="#DejaVuSans-33"/>
       <use xlink:href="#DejaVuSans-30" transform="translate(63.623047 0)"/>
       <use xlink:href="#DejaVuSans-30" transform="translate(127.246094 0)"/>
       <use xlink:href="#DejaVuSans-30" transform="translate(190.869141 0)"/>
      </g>
     </g>
    </g>
    <g id="xtick_5">
     <g id="line2d_9">
      <path d="M 617.113375 381.757656 
L 617.113375 18.597656 
" clip-path="url(#p7c180aa1d7)" style="fill: none; stroke: #b0b0b0; stroke-width: 0.8; stroke-linecap: square"/>
     </g>
     <g id="line2d_10">
      <g>
       <use xlink:href="#m9994863c5a" x="617.113375" y="381.757656" style="stroke: #000000; stroke-width: 0.8"/>
      </g>
     </g>
     <g id="text_5">
      <!-- 4000 -->
      <g transform="translate(578.938375 411.552969) scale(0.3 -0.3)">
       <defs>
        <path id="DejaVuSans-34" d="M 2419 4116 
L 825 1625 
L 2419 1625 
L 2419 4116 
z
M 2253 4666 
L 3047 4666 
L 3047 1625 
L 3713 1625 
L 3713 1100 
L 3047 1100 
L 3047 0 
L 2419 0 
L 2419 1100 
L 313 1100 
L 313 1709 
L 2253 4666 
z
" transform="scale(0.015625)"/>
       </defs>
       <use xlink:href="#DejaVuSans-34"/>
       <use xlink:href="#DejaVuSans-30" transform="translate(63.623047 0)"/>
       <use xlink:href="#DejaVuSans-30" transform="translate(127.246094 0)"/>
       <use xlink:href="#DejaVuSans-30" transform="translate(190.869141 0)"/>
      </g>
     </g>
    </g>
    <g id="xtick_6">
     <g id="line2d_11">
      <path d="M 750.039375 381.757656 
L 750.039375 18.597656 
" clip-path="url(#p7c180aa1d7)" style="fill: none; stroke: #b0b0b0; stroke-width: 0.8; stroke-linecap: square"/>
     </g>
     <g id="line2d_12">
      <g>
       <use xlink:href="#m9994863c5a" x="750.039375" y="381.757656" style="stroke: #000000; stroke-width: 0.8"/>
      </g>
     </g>
     <g id="text_6">
      <!-- 5000 -->
      <g transform="translate(711.864375 411.552969) scale(0.3 -0.3)">
       <defs>
        <path id="DejaVuSans-35" d="M 691 4666 
L 3169 4666 
L 3169 4134 
L 1269 4134 
L 1269 2991 
Q 1406 3038 1543 3061 
Q 1681 3084 1819 3084 
Q 2600 3084 3056 2656 
Q 3513 2228 3513 1497 
Q 3513 744 3044 326 
Q 2575 -91 1722 -91 
Q 1428 -91 1123 -41 
Q 819 9 494 109 
L 494 744 
Q 775 591 1075 516 
Q 1375 441 1709 441 
Q 2250 441 2565 725 
Q 2881 1009 2881 1497 
Q 2881 1984 2565 2268 
Q 2250 2553 1709 2553 
Q 1456 2553 1204 2497 
Q 953 2441 691 2322 
L 691 4666 
z
" transform="scale(0.015625)"/>
       </defs>
       <use xlink:href="#DejaVuSans-35"/>
       <use xlink:href="#DejaVuSans-30" transform="translate(63.623047 0)"/>
       <use xlink:href="#DejaVuSans-30" transform="translate(127.246094 0)"/>
       <use xlink:href="#DejaVuSans-30" transform="translate(190.869141 0)"/>
      </g>
     </g>
    </g>
    <g id="text_7">
     <!-- Time Step -->
     <g transform="translate(342.100938 444.587344) scale(0.3 -0.3)">
      <defs>
       <path id="DejaVuSans-54" d="M -19 4666 
L 3928 4666 
L 3928 4134 
L 2272 4134 
L 2272 0 
L 1638 0 
L 1638 4134 
L -19 4134 
L -19 4666 
z
" transform="scale(0.015625)"/>
       <path id="DejaVuSans-69" d="M 603 3500 
L 1178 3500 
L 1178 0 
L 603 0 
L 603 3500 
z
M 603 4863 
L 1178 4863 
L 1178 4134 
L 603 4134 
L 603 4863 
z
" transform="scale(0.015625)"/>
       <path id="DejaVuSans-6d" d="M 3328 2828 
Q 3544 3216 3844 3400 
Q 4144 3584 4550 3584 
Q 5097 3584 5394 3201 
Q 5691 2819 5691 2113 
L 5691 0 
L 5113 0 
L 5113 2094 
Q 5113 2597 4934 2840 
Q 4756 3084 4391 3084 
Q 3944 3084 3684 2787 
Q 3425 2491 3425 1978 
L 3425 0 
L 2847 0 
L 2847 2094 
Q 2847 2600 2669 2842 
Q 2491 3084 2119 3084 
Q 1678 3084 1418 2786 
Q 1159 2488 1159 1978 
L 1159 0 
L 581 0 
L 581 3500 
L 1159 3500 
L 1159 2956 
Q 1356 3278 1631 3431 
Q 1906 3584 2284 3584 
Q 2666 3584 2933 3390 
Q 3200 3197 3328 2828 
z
" transform="scale(0.015625)"/>
       <path id="DejaVuSans-65" d="M 3597 1894 
L 3597 1613 
L 953 1613 
Q 991 1019 1311 708 
Q 1631 397 2203 397 
Q 2534 397 2845 478 
Q 3156 559 3463 722 
L 3463 178 
Q 3153 47 2828 -22 
Q 2503 -91 2169 -91 
Q 1331 -91 842 396 
Q 353 884 353 1716 
Q 353 2575 817 3079 
Q 1281 3584 2069 3584 
Q 2775 3584 3186 3129 
Q 3597 2675 3597 1894 
z
M 3022 2063 
Q 3016 2534 2758 2815 
Q 2500 3097 2075 3097 
Q 1594 3097 1305 2825 
Q 1016 2553 972 2059 
L 3022 2063 
z
" transform="scale(0.015625)"/>
       <path id="DejaVuSans-20" transform="scale(0.015625)"/>
       <path id="DejaVuSans-53" d="M 3425 4513 
L 3425 3897 
Q 3066 4069 2747 4153 
Q 2428 4238 2131 4238 
Q 1616 4238 1336 4038 
Q 1056 3838 1056 3469 
Q 1056 3159 1242 3001 
Q 1428 2844 1947 2747 
L 2328 2669 
Q 3034 2534 3370 2195 
Q 3706 1856 3706 1288 
Q 3706 609 3251 259 
Q 2797 -91 1919 -91 
Q 1588 -91 1214 -16 
Q 841 59 441 206 
L 441 856 
Q 825 641 1194 531 
Q 1563 422 1919 422 
Q 2459 422 2753 634 
Q 3047 847 3047 1241 
Q 3047 1584 2836 1778 
Q 2625 1972 2144 2069 
L 1759 2144 
Q 1053 2284 737 2584 
Q 422 2884 422 3419 
Q 422 4038 858 4394 
Q 1294 4750 2059 4750 
Q 2388 4750 2728 4690 
Q 3069 4631 3425 4513 
z
" transform="scale(0.015625)"/>
       <path id="DejaVuSans-74" d="M 1172 4494 
L 1172 3500 
L 2356 3500 
L 2356 3053 
L 1172 3053 
L 1172 1153 
Q 1172 725 1289 603 
Q 1406 481 1766 481 
L 2356 481 
L 2356 0 
L 1766 0 
Q 1100 0 847 248 
Q 594 497 594 1153 
L 594 3053 
L 172 3053 
L 172 3500 
L 594 3500 
L 594 4494 
L 1172 4494 
z
" transform="scale(0.015625)"/>
       <path id="DejaVuSans-70" d="M 1159 525 
L 1159 -1331 
L 581 -1331 
L 581 3500 
L 1159 3500 
L 1159 2969 
Q 1341 3281 1617 3432 
Q 1894 3584 2278 3584 
Q 2916 3584 3314 3078 
Q 3713 2572 3713 1747 
Q 3713 922 3314 415 
Q 2916 -91 2278 -91 
Q 1894 -91 1617 61 
Q 1341 213 1159 525 
z
M 3116 1747 
Q 3116 2381 2855 2742 
Q 2594 3103 2138 3103 
Q 1681 3103 1420 2742 
Q 1159 2381 1159 1747 
Q 1159 1113 1420 752 
Q 1681 391 2138 391 
Q 2594 391 2855 752 
Q 3116 1113 3116 1747 
z
" transform="scale(0.015625)"/>
      </defs>
      <use xlink:href="#DejaVuSans-54"/>
      <use xlink:href="#DejaVuSans-69" transform="translate(57.958984 0)"/>
      <use xlink:href="#DejaVuSans-6d" transform="translate(85.742188 0)"/>
      <use xlink:href="#DejaVuSans-65" transform="translate(183.154297 0)"/>
      <use xlink:href="#DejaVuSans-20" transform="translate(244.677734 0)"/>
      <use xlink:href="#DejaVuSans-53" transform="translate(276.464844 0)"/>
      <use xlink:href="#DejaVuSans-74" transform="translate(339.941406 0)"/>
      <use xlink:href="#DejaVuSans-65" transform="translate(379.150391 0)"/>
      <use xlink:href="#DejaVuSans-70" transform="translate(440.673828 0)"/>
     </g>
    </g>
   </g>
   <g id="matplotlib.axis_2">
    <g id="ytick_1">
     <g id="line2d_13">
      <path d="M 85.409375 339.03295 
L 750.039375 339.03295 
" clip-path="url(#p7c180aa1d7)" style="fill: none; stroke: #b0b0b0; stroke-width: 0.8; stroke-linecap: square"/>
     </g>
     <g id="line2d_14">
      <defs>
       <path id="ma7231667f7" d="M 0 0 
L -3.5 0 
" style="stroke: #000000; stroke-width: 0.8"/>
      </defs>
      <g>
       <use xlink:href="#ma7231667f7" x="85.409375" y="339.03295" style="stroke: #000000; stroke-width: 0.8"/>
      </g>
     </g>
     <g id="text_8">
      <!-- 0 -->
      <g transform="translate(59.321875 350.430607) scale(0.3 -0.3)">
       <use xlink:href="#DejaVuSans-30"/>
      </g>
     </g>
    </g>
    <g id="ytick_2">
     <g id="line2d_15">
      <path d="M 85.409375 285.627068 
L 750.039375 285.627068 
" clip-path="url(#p7c180aa1d7)" style="fill: none; stroke: #b0b0b0; stroke-width: 0.8; stroke-linecap: square"/>
     </g>
     <g id="line2d_16">
      <g>
       <use xlink:href="#ma7231667f7" x="85.409375" y="285.627068" style="stroke: #000000; stroke-width: 0.8"/>
      </g>
     </g>
     <g id="text_9">
      <!-- 5 -->
      <g transform="translate(59.321875 297.024724) scale(0.3 -0.3)">
       <use xlink:href="#DejaVuSans-35"/>
      </g>
     </g>
    </g>
    <g id="ytick_3">
     <g id="line2d_17">
      <path d="M 85.409375 232.221186 
L 750.039375 232.221186 
" clip-path="url(#p7c180aa1d7)" style="fill: none; stroke: #b0b0b0; stroke-width: 0.8; stroke-linecap: square"/>
     </g>
     <g id="line2d_18">
      <g>
       <use xlink:href="#ma7231667f7" x="85.409375" y="232.221186" style="stroke: #000000; stroke-width: 0.8"/>
      </g>
     </g>
     <g id="text_10">
      <!-- 10 -->
      <g transform="translate(40.234375 243.618842) scale(0.3 -0.3)">
       <use xlink:href="#DejaVuSans-31"/>
       <use xlink:href="#DejaVuSans-30" transform="translate(63.623047 0)"/>
      </g>
     </g>
    </g>
    <g id="ytick_4">
     <g id="line2d_19">
      <path d="M 85.409375 178.815303 
L 750.039375 178.815303 
" clip-path="url(#p7c180aa1d7)" style="fill: none; stroke: #b0b0b0; stroke-width: 0.8; stroke-linecap: square"/>
     </g>
     <g id="line2d_20">
      <g>
       <use xlink:href="#ma7231667f7" x="85.409375" y="178.815303" style="stroke: #000000; stroke-width: 0.8"/>
      </g>
     </g>
     <g id="text_11">
      <!-- 15 -->
      <g transform="translate(40.234375 190.21296) scale(0.3 -0.3)">
       <use xlink:href="#DejaVuSans-31"/>
       <use xlink:href="#DejaVuSans-35" transform="translate(63.623047 0)"/>
      </g>
     </g>
    </g>
    <g id="ytick_5">
     <g id="line2d_21">
      <path d="M 85.409375 125.409421 
L 750.039375 125.409421 
" clip-path="url(#p7c180aa1d7)" style="fill: none; stroke: #b0b0b0; stroke-width: 0.8; stroke-linecap: square"/>
     </g>
     <g id="line2d_22">
      <g>
       <use xlink:href="#ma7231667f7" x="85.409375" y="125.409421" style="stroke: #000000; stroke-width: 0.8"/>
      </g>
     </g>
     <g id="text_12">
      <!-- 20 -->
      <g transform="translate(40.234375 136.807077) scale(0.3 -0.3)">
       <use xlink:href="#DejaVuSans-32"/>
       <use xlink:href="#DejaVuSans-30" transform="translate(63.623047 0)"/>
      </g>
     </g>
    </g>
    <g id="ytick_6">
     <g id="line2d_23">
      <path d="M 85.409375 72.003539 
L 750.039375 72.003539 
" clip-path="url(#p7c180aa1d7)" style="fill: none; stroke: #b0b0b0; stroke-width: 0.8; stroke-linecap: square"/>
     </g>
     <g id="line2d_24">
      <g>
       <use xlink:href="#ma7231667f7" x="85.409375" y="72.003539" style="stroke: #000000; stroke-width: 0.8"/>
      </g>
     </g>
     <g id="text_13">
      <!-- 25 -->
      <g transform="translate(40.234375 83.401195) scale(0.3 -0.3)">
       <use xlink:href="#DejaVuSans-32"/>
       <use xlink:href="#DejaVuSans-35" transform="translate(63.623047 0)"/>
      </g>
     </g>
    </g>
    <g id="ytick_7">
     <g id="line2d_25">
      <path d="M 85.409375 18.597656 
L 750.039375 18.597656 
" clip-path="url(#p7c180aa1d7)" style="fill: none; stroke: #b0b0b0; stroke-width: 0.8; stroke-linecap: square"/>
     </g>
     <g id="line2d_26">
      <g>
       <use xlink:href="#ma7231667f7" x="85.409375" y="18.597656" style="stroke: #000000; stroke-width: 0.8"/>
      </g>
     </g>
     <g id="text_14">
      <!-- 30 -->
      <g transform="translate(40.234375 29.995313) scale(0.3 -0.3)">
       <use xlink:href="#DejaVuSans-33"/>
       <use xlink:href="#DejaVuSans-30" transform="translate(63.623047 0)"/>
      </g>
     </g>
    </g>
    <g id="text_15">
     <!-- X-Position -->
     <g transform="translate(29.995313 273.506562) rotate(-90) scale(0.3 -0.3)">
      <defs>
       <path id="DejaVuSans-58" d="M 403 4666 
L 1081 4666 
L 2241 2931 
L 3406 4666 
L 4084 4666 
L 2584 2425 
L 4184 0 
L 3506 0 
L 2194 1984 
L 872 0 
L 191 0 
L 1856 2491 
L 403 4666 
z
" transform="scale(0.015625)"/>
       <path id="DejaVuSans-2d" d="M 313 2009 
L 1997 2009 
L 1997 1497 
L 313 1497 
L 313 2009 
z
" transform="scale(0.015625)"/>
       <path id="DejaVuSans-50" d="M 1259 4147 
L 1259 2394 
L 2053 2394 
Q 2494 2394 2734 2622 
Q 2975 2850 2975 3272 
Q 2975 3691 2734 3919 
Q 2494 4147 2053 4147 
L 1259 4147 
z
M 628 4666 
L 2053 4666 
Q 2838 4666 3239 4311 
Q 3641 3956 3641 3272 
Q 3641 2581 3239 2228 
Q 2838 1875 2053 1875 
L 1259 1875 
L 1259 0 
L 628 0 
L 628 4666 
z
" transform="scale(0.015625)"/>
       <path id="DejaVuSans-6f" d="M 1959 3097 
Q 1497 3097 1228 2736 
Q 959 2375 959 1747 
Q 959 1119 1226 758 
Q 1494 397 1959 397 
Q 2419 397 2687 759 
Q 2956 1122 2956 1747 
Q 2956 2369 2687 2733 
Q 2419 3097 1959 3097 
z
M 1959 3584 
Q 2709 3584 3137 3096 
Q 3566 2609 3566 1747 
Q 3566 888 3137 398 
Q 2709 -91 1959 -91 
Q 1206 -91 779 398 
Q 353 888 353 1747 
Q 353 2609 779 3096 
Q 1206 3584 1959 3584 
z
" transform="scale(0.015625)"/>
       <path id="DejaVuSans-73" d="M 2834 3397 
L 2834 2853 
Q 2591 2978 2328 3040 
Q 2066 3103 1784 3103 
Q 1356 3103 1142 2972 
Q 928 2841 928 2578 
Q 928 2378 1081 2264 
Q 1234 2150 1697 2047 
L 1894 2003 
Q 2506 1872 2764 1633 
Q 3022 1394 3022 966 
Q 3022 478 2636 193 
Q 2250 -91 1575 -91 
Q 1294 -91 989 -36 
Q 684 19 347 128 
L 347 722 
Q 666 556 975 473 
Q 1284 391 1588 391 
Q 1994 391 2212 530 
Q 2431 669 2431 922 
Q 2431 1156 2273 1281 
Q 2116 1406 1581 1522 
L 1381 1569 
Q 847 1681 609 1914 
Q 372 2147 372 2553 
Q 372 3047 722 3315 
Q 1072 3584 1716 3584 
Q 2034 3584 2315 3537 
Q 2597 3491 2834 3397 
z
" transform="scale(0.015625)"/>
       <path id="DejaVuSans-6e" d="M 3513 2113 
L 3513 0 
L 2938 0 
L 2938 2094 
Q 2938 2591 2744 2837 
Q 2550 3084 2163 3084 
Q 1697 3084 1428 2787 
Q 1159 2491 1159 1978 
L 1159 0 
L 581 0 
L 581 3500 
L 1159 3500 
L 1159 2956 
Q 1366 3272 1645 3428 
Q 1925 3584 2291 3584 
Q 2894 3584 3203 3211 
Q 3513 2838 3513 2113 
z
" transform="scale(0.015625)"/>
      </defs>
      <use xlink:href="#DejaVuSans-58"/>
      <use xlink:href="#DejaVuSans-2d" transform="translate(63.505859 0)"/>
      <use xlink:href="#DejaVuSans-50" transform="translate(99.589844 0)"/>
      <use xlink:href="#DejaVuSans-6f" transform="translate(156.267578 0)"/>
      <use xlink:href="#DejaVuSans-73" transform="translate(217.449219 0)"/>
      <use xlink:href="#DejaVuSans-69" transform="translate(269.548828 0)"/>
      <use xlink:href="#DejaVuSans-74" transform="translate(297.332031 0)"/>
      <use xlink:href="#DejaVuSans-69" transform="translate(336.541016 0)"/>
      <use xlink:href="#DejaVuSans-6f" transform="translate(364.324219 0)"/>
      <use xlink:href="#DejaVuSans-6e" transform="translate(425.505859 0)"/>
     </g>
    </g>
   </g>
   <g id="line2d_27">
    <path d="M 85.409375 360.395303 
L 88.067895 359.363437 
L 90.726415 358.620019 
L 93.384935 357.502786 
L 96.043455 356.207498 
L 98.701975 355.316723 
L 104.019015 353.030385 
L 106.677535 351.684526 
L 111.994575 349.334868 
L 114.653095 348.009526 
L 117.311615 346.338025 
L 119.970135 344.9525 
L 122.628655 343.164337 
L 125.287175 341.05459 
L 127.945695 339.717804 
L 130.604215 337.286323 
L 133.262735 335.912446 
L 135.921255 333.917254 
L 138.579775 331.458665 
L 141.238295 329.712911 
L 143.896815 328.273927 
L 151.872375 322.904927 
L 154.530895 322.724043 
L 159.847935 323.231735 
L 170.482015 323.978265 
L 197.067215 325.18471 
L 210.359815 325.480566 
L 226.310935 325.544074 
L 236.945015 325.410195 
L 247.579095 325.06376 
L 250.237615 324.853828 
L 260.871695 324.385807 
L 266.188735 324.050627 
L 268.847255 323.447083 
L 279.481335 322.486869 
L 282.139855 321.699446 
L 284.798375 321.557165 
L 287.456895 321.111125 
L 292.773935 320.567111 
L 295.432455 319.755627 
L 298.090975 319.402762 
L 300.749495 319.193445 
L 303.408015 318.720558 
L 306.066535 316.970634 
L 308.725055 316.531087 
L 311.383575 316.253681 
L 314.042095 315.061471 
L 316.700615 314.273138 
L 319.359135 312.845177 
L 322.017655 312.554824 
L 324.676175 311.757389 
L 327.334695 311.077043 
L 332.651735 309.356825 
L 335.310255 307.715106 
L 337.968775 307.477255 
L 340.627295 307.063034 
L 343.285815 306.125063 
L 345.944335 305.546521 
L 348.602855 305.272408 
L 351.261375 304.462708 
L 353.919895 302.755327 
L 359.236935 301.885451 
L 361.895455 301.042798 
L 367.212495 298.991959 
L 369.871015 297.526152 
L 375.188055 295.738503 
L 377.846575 294.559634 
L 380.505095 293.524831 
L 383.163615 292.898655 
L 385.822135 292.075581 
L 391.139175 289.684245 
L 393.797695 289.007256 
L 401.773255 286.438913 
L 404.431775 285.325541 
L 407.090295 284.729804 
L 409.748815 283.430418 
L 415.065855 281.892464 
L 417.724375 280.803167 
L 420.382895 279.261764 
L 425.699935 277.066302 
L 428.358455 276.545599 
L 431.016975 275.002592 
L 433.675495 273.067085 
L 438.992535 271.236236 
L 441.651055 269.916203 
L 444.309575 268.386711 
L 449.626615 267.236744 
L 452.285135 266.026318 
L 454.943655 265.233868 
L 457.602175 263.980382 
L 460.260695 262.56009 
L 465.577735 261.083076 
L 470.894775 258.992496 
L 476.211815 257.216955 
L 478.870335 255.383427 
L 481.528855 254.609834 
L 486.845895 252.101264 
L 489.504415 251.001175 
L 492.162935 249.511457 
L 494.821455 248.275372 
L 497.479975 247.337677 
L 500.138495 245.868102 
L 502.797015 244.717845 
L 508.114055 242.746382 
L 510.772575 241.308686 
L 513.431095 240.459103 
L 516.089615 239.400283 
L 518.748135 237.196836 
L 521.406655 235.840755 
L 524.065175 234.982552 
L 529.382215 232.699718 
L 532.040735 231.393447 
L 534.699255 230.279364 
L 537.357775 229.591003 
L 542.674815 227.288512 
L 547.991855 224.311239 
L 550.650375 222.010252 
L 553.308895 221.085514 
L 555.967415 220.470631 
L 558.625935 219.164966 
L 561.284455 218.095428 
L 563.942975 216.606682 
L 566.601495 215.66956 
L 569.260015 214.939041 
L 571.918535 213.210306 
L 574.577055 211.187353 
L 577.235575 210.696116 
L 579.894095 209.080172 
L 582.552615 208.418395 
L 585.211135 207.95556 
L 587.869655 206.51079 
L 590.528175 204.725422 
L 595.845215 202.525348 
L 598.503735 201.270222 
L 601.162255 199.406899 
L 603.820775 197.975793 
L 606.479295 196.6747 
L 609.137815 195.211918 
L 619.771895 189.955268 
L 622.430415 188.555331 
L 625.088935 187.303019 
L 627.747455 186.219767 
L 630.405975 184.995534 
L 633.064495 183.48671 
L 635.723015 182.396297 
L 638.381535 180.394221 
L 641.040055 178.938294 
L 646.357095 177.315872 
L 649.015615 175.660878 
L 651.674135 174.681569 
L 654.332655 172.482265 
L 656.991175 170.803301 
L 659.649695 169.466741 
L 662.308215 168.386814 
L 664.966735 167.445985 
L 667.625255 165.901679 
L 670.283775 164.638047 
L 672.942295 163.614925 
L 675.600815 161.224609 
L 678.259335 160.364281 
L 680.917855 159.019722 
L 686.234895 157.00178 
L 688.893415 156.117372 
L 691.551935 155.438569 
L 694.210455 154.242063 
L 696.868975 153.665783 
L 702.186015 151.99942 
L 707.503055 150.133817 
L 712.820095 145.968655 
L 715.478615 145.095703 
L 718.137135 144.013506 
L 720.795655 142.035864 
L 723.454175 140.501677 
L 726.112695 139.290238 
L 728.771215 137.021938 
L 731.429735 135.339951 
L 734.088255 134.357237 
L 736.746775 133.027556 
L 739.405295 132.241713 
L 742.063815 130.533111 
L 750.039375 127.601415 
L 752.697895 127.042223 
L 755.356415 126.115662 
L 758.014935 124.937781 
L 760.673455 123.530193 
L 763.331975 122.894373 
L 765.990495 121.779372 
L 768.649015 120.060031 
L 771.307535 119.149767 
L 773.966055 117.492446 
L 776.624575 116.255836 
L 779.283095 115.252491 
L 781.941615 114.560958 
L 784.600135 112.274531 
L 787.258655 111.067582 
L 789.917175 110.537883 
L 792.575695 108.733663 
L 795.234215 107.804369 
L 796.414375 107.187484 
L 796.414375 107.187484 
" clip-path="url(#p7c180aa1d7)" style="fill: none; stroke: #ff0000; stroke-width: 1.5; stroke-linecap: square"/>
   </g>
   <g id="line2d_28">
    <path d="M 85.409375 371.724402 
L 88.067895 373.135956 
L 90.726415 373.954726 
L 93.384935 374.446315 
L 96.043455 374.098285 
L 98.701975 373.342431 
L 104.019015 371.378242 
L 111.994575 368.472304 
L 114.653095 366.511167 
L 117.311615 365.226481 
L 119.970135 363.773706 
L 122.628655 361.73556 
L 125.287175 360.118856 
L 127.945695 357.512083 
L 133.262735 353.972672 
L 135.921255 351.897337 
L 138.579775 349.208304 
L 141.238295 347.92306 
L 143.896815 345.205897 
L 149.213855 341.944668 
L 151.872375 339.493177 
L 154.530895 338.913775 
L 157.189415 336.786186 
L 159.847935 334.81719 
L 162.506455 333.244225 
L 165.164975 331.360479 
L 167.823495 329.271154 
L 175.799055 325.567414 
L 178.457575 323.120113 
L 183.774615 319.755763 
L 186.433135 318.497084 
L 189.091655 316.319594 
L 194.408695 312.821719 
L 197.067215 311.256765 
L 199.725735 309.549622 
L 202.384255 308.028747 
L 205.042775 305.971719 
L 207.701295 304.393359 
L 210.359815 302.670874 
L 213.018335 300.366114 
L 215.676855 298.989342 
L 218.335375 297.249476 
L 226.310935 292.614346 
L 228.969455 290.94286 
L 231.627975 289.128694 
L 234.286495 287.697174 
L 236.945015 285.813216 
L 239.603535 284.170555 
L 242.262055 282.357395 
L 244.920575 280.949544 
L 247.579095 279.256538 
L 250.237615 277.402609 
L 255.554655 274.022004 
L 258.213175 272.118415 
L 260.871695 269.746572 
L 266.188735 267.214178 
L 268.847255 265.247637 
L 271.505775 263.078578 
L 274.164295 261.983655 
L 287.456895 253.486844 
L 290.115415 251.749368 
L 292.773935 249.85439 
L 295.432455 248.182741 
L 300.749495 244.340712 
L 303.408015 242.984865 
L 306.066535 241.494069 
L 308.725055 239.782488 
L 311.383575 237.265745 
L 314.042095 235.563102 
L 316.700615 234.319265 
L 319.359135 232.186888 
L 327.334695 227.637724 
L 332.651735 224.179112 
L 335.310255 222.703914 
L 337.968775 220.782714 
L 340.627295 219.250478 
L 351.261375 212.322951 
L 353.919895 210.918932 
L 356.578415 208.813211 
L 359.236935 207.233344 
L 364.553975 203.202291 
L 367.212495 201.45923 
L 369.871015 200.112208 
L 372.529535 198.446725 
L 375.188055 197.109019 
L 377.846575 195.043804 
L 380.505095 193.120574 
L 383.163615 191.403625 
L 385.822135 189.831512 
L 388.480655 187.799289 
L 391.139175 186.087601 
L 393.797695 184.130432 
L 396.456215 182.660649 
L 399.114735 181.35532 
L 407.090295 176.161746 
L 409.748815 174.568863 
L 412.407335 172.344292 
L 415.065855 170.398265 
L 417.724375 168.222621 
L 420.382895 167.236604 
L 423.041415 165.653114 
L 425.699935 163.629732 
L 428.358455 162.260718 
L 433.675495 159.114126 
L 438.992535 155.078136 
L 441.651055 153.970929 
L 444.309575 151.817565 
L 446.968095 150.31035 
L 449.626615 149.29622 
L 454.943655 146.000664 
L 457.602175 143.850592 
L 460.260695 142.149577 
L 465.577735 138.413405 
L 468.236255 136.910469 
L 470.894775 134.838268 
L 473.553295 133.653846 
L 478.870335 130.292042 
L 484.187375 126.931555 
L 486.845895 125.03312 
L 492.162935 122.425981 
L 497.479975 118.155064 
L 500.138495 116.202435 
L 502.797015 114.441436 
L 505.455535 113.021393 
L 508.114055 111.460271 
L 510.772575 109.379303 
L 516.089615 106.332149 
L 518.748135 104.518291 
L 521.406655 102.903134 
L 524.065175 101.049165 
L 526.723695 99.331351 
L 529.382215 97.454647 
L 532.040735 95.970329 
L 534.699255 93.900382 
L 537.357775 92.186635 
L 540.016295 90.146588 
L 542.674815 88.619046 
L 545.333335 86.61619 
L 547.991855 84.959105 
L 550.650375 83.647239 
L 553.308895 81.737001 
L 561.284455 77.080434 
L 563.942975 74.819869 
L 566.601495 74.055133 
L 569.260015 72.560935 
L 574.577055 69.085055 
L 577.235575 66.675656 
L 579.894095 65.627651 
L 582.552615 63.967938 
L 585.211135 61.937398 
L 587.869655 59.725087 
L 590.528175 58.361098 
L 593.186695 56.804489 
L 595.845215 55.452725 
L 598.503735 53.417867 
L 601.162255 52.178727 
L 609.137815 46.787607 
L 614.454855 43.348559 
L 617.113375 41.792787 
L 619.771895 40.414996 
L 625.088935 37.254114 
L 627.747455 34.923045 
L 630.405975 33.663671 
L 633.064495 31.609579 
L 635.723015 30.512074 
L 638.381535 28.840152 
L 641.040055 26.588508 
L 643.698575 24.994523 
L 649.015615 21.344979 
L 651.674135 19.864126 
L 659.649695 13.961126 
L 664.966735 10.937934 
L 670.283775 6.957761 
L 672.942295 5.968228 
L 675.600815 4.251453 
L 678.259335 2.307285 
L 680.917855 0.980516 
L 684.13287 -1 
L 684.13287 -1 
" clip-path="url(#p7c180aa1d7)" style="fill: none; stroke: #ffff00; stroke-width: 1.5; stroke-linecap: square"/>
   </g>
   <g id="line2d_29">
    <path d="M 85.409375 360.395303 
L 88.067895 359.396948 
L 90.726415 358.180875 
L 96.043455 357.557045 
L 98.701975 357.268818 
L 101.360495 356.831761 
L 104.019015 356.116087 
L 106.677535 355.280723 
L 109.336055 354.751755 
L 111.994575 353.918346 
L 114.653095 353.337113 
L 117.311615 352.465159 
L 119.970135 350.992336 
L 122.628655 349.925094 
L 130.604215 344.779839 
L 135.921255 341.572436 
L 138.579775 340.475176 
L 141.238295 339.182079 
L 143.896815 338.111121 
L 146.555335 336.835062 
L 149.213855 335.303707 
L 151.872375 334.000291 
L 154.530895 333.776857 
L 159.847935 333.911017 
L 167.823495 333.871116 
L 178.457575 333.482671 
L 183.774615 333.158462 
L 186.433135 332.69178 
L 189.091655 332.409387 
L 191.750175 331.898566 
L 194.408695 330.913922 
L 199.725735 328.538658 
L 202.384255 328.271763 
L 205.042775 326.962532 
L 207.701295 325.986781 
L 215.676855 321.867735 
L 218.335375 321.25327 
L 223.652415 319.083919 
L 226.310935 317.459171 
L 228.969455 315.431927 
L 236.945015 311.266 
L 239.603535 309.148063 
L 242.262055 307.695974 
L 244.920575 306.976968 
L 247.579095 305.971598 
L 250.237615 303.849899 
L 255.554655 301.762963 
L 263.530215 297.944113 
L 266.188735 296.55039 
L 268.847255 295.652203 
L 274.164295 291.706442 
L 276.822815 290.205652 
L 279.481335 288.934037 
L 282.139855 287.978689 
L 284.798375 286.754259 
L 290.115415 283.23917 
L 292.773935 282.312327 
L 300.749495 277.586068 
L 306.066535 273.727204 
L 308.725055 272.816183 
L 311.383575 271.777061 
L 319.359135 266.491006 
L 322.017655 265.009519 
L 329.993215 261.78678 
L 332.651735 260.418197 
L 335.310255 259.804867 
L 337.968775 257.987255 
L 340.627295 255.809334 
L 343.285815 254.467732 
L 345.944335 252.714825 
L 351.261375 250.180966 
L 353.919895 248.225539 
L 356.578415 247.053811 
L 359.236935 245.625473 
L 361.895455 244.545191 
L 364.553975 243.708783 
L 367.212495 241.842957 
L 372.529535 239.796786 
L 375.188055 237.935781 
L 377.846575 236.797736 
L 380.505095 235.783632 
L 385.822135 233.007196 
L 388.480655 231.218392 
L 391.139175 230.458839 
L 393.797695 229.555832 
L 396.456215 227.755637 
L 404.431775 224.171477 
L 407.090295 223.476691 
L 409.748815 221.608632 
L 415.065855 219.582079 
L 420.382895 216.704275 
L 423.041415 215.616985 
L 425.699935 214.184074 
L 431.016975 211.586993 
L 433.675495 209.813322 
L 436.334015 208.407462 
L 438.992535 207.424102 
L 441.651055 205.594881 
L 444.309575 204.049646 
L 446.968095 202.179558 
L 449.626615 200.76518 
L 452.285135 199.933735 
L 454.943655 198.505289 
L 457.602175 196.772755 
L 460.260695 195.756908 
L 462.919215 194.305558 
L 465.577735 193.148461 
L 468.236255 192.259234 
L 476.211815 187.945848 
L 478.870335 186.343612 
L 481.528855 185.530489 
L 484.187375 184.171324 
L 489.504415 180.428625 
L 492.162935 179.52657 
L 500.138495 175.909689 
L 502.797015 174.304759 
L 505.455535 173.578609 
L 508.114055 172.391004 
L 510.772575 170.852577 
L 516.089615 167.461601 
L 518.748135 166.15708 
L 521.406655 165.365165 
L 524.065175 164.342533 
L 526.723695 162.714113 
L 529.382215 160.785931 
L 532.040735 159.579864 
L 534.699255 158.636323 
L 537.357775 156.90613 
L 540.016295 155.604591 
L 542.674815 154.592097 
L 545.333335 153.945917 
L 550.650375 151.21257 
L 553.308895 150.195172 
L 555.967415 148.847869 
L 558.625935 148.033114 
L 561.284455 146.733323 
L 566.601495 144.386675 
L 569.260015 143.514755 
L 571.918535 141.671528 
L 577.235575 138.700398 
L 579.894095 137.498305 
L 582.552615 135.918055 
L 587.869655 132.334299 
L 590.528175 131.311876 
L 593.186695 129.749301 
L 595.845215 127.898979 
L 598.503735 126.632911 
L 601.162255 125.670326 
L 606.479295 122.929451 
L 609.137815 121.680262 
L 611.796335 120.568957 
L 614.454855 119.048304 
L 617.113375 118.109058 
L 619.771895 116.826966 
L 622.430415 114.962393 
L 625.088935 113.243259 
L 627.747455 112.34183 
L 633.064495 109.243071 
L 635.723015 108.213702 
L 638.381535 106.900742 
L 641.040055 105.738754 
L 643.698575 104.076886 
L 646.357095 103.109871 
L 651.674135 100.556325 
L 654.332655 99.788632 
L 656.991175 98.345136 
L 659.649695 97.539525 
L 662.308215 96.22722 
L 667.625255 93.878382 
L 670.283775 92.357153 
L 672.942295 91.166727 
L 675.600815 89.795754 
L 678.259335 88.697591 
L 680.917855 86.886566 
L 683.576375 85.573271 
L 686.234895 84.917469 
L 691.551935 82.315754 
L 694.210455 81.250988 
L 696.868975 79.915573 
L 699.527495 78.335838 
L 702.186015 77.199269 
L 704.844535 75.923437 
L 707.503055 74.436071 
L 710.161575 72.54306 
L 712.820095 71.704239 
L 718.137135 69.622838 
L 720.795655 68.565885 
L 723.454175 67.340972 
L 726.112695 66.467084 
L 728.771215 64.834868 
L 731.429735 63.622441 
L 734.088255 61.647555 
L 739.405295 58.955613 
L 742.063815 57.814213 
L 747.380855 54.494254 
L 752.697895 52.20898 
L 755.356415 50.289504 
L 758.014935 48.641025 
L 760.673455 47.700178 
L 763.331975 45.910728 
L 765.990495 44.656723 
L 771.307535 41.479596 
L 773.966055 40.48851 
L 776.624575 39.219287 
L 779.283095 37.632426 
L 781.941615 36.352666 
L 784.600135 34.44217 
L 787.258655 32.797543 
L 789.917175 31.332229 
L 792.575695 30.539227 
L 796.414375 29.142597 
L 796.414375 29.142597 
" clip-path="url(#p7c180aa1d7)" style="fill: none; stroke: #00bfff; stroke-width: 1.5; stroke-linecap: square"/>
   </g>
   <g id="line2d_30">
    <path d="M 85.409375 371.724402 
L 88.067895 373.035065 
L 90.726415 373.932089 
L 93.384935 374.653886 
L 96.043455 374.160728 
L 101.360495 371.189916 
L 104.019015 370.370137 
L 109.336055 368.219255 
L 111.994575 367.01743 
L 114.653095 365.669838 
L 117.311615 364.502096 
L 119.970135 362.244624 
L 122.628655 360.452994 
L 125.287175 357.959891 
L 130.604215 354.263325 
L 133.262735 351.141399 
L 135.921255 350.19516 
L 138.579775 347.386913 
L 143.896815 343.514264 
L 146.555335 342.193439 
L 151.872375 337.926286 
L 154.530895 336.803404 
L 157.189415 334.300485 
L 159.847935 332.588904 
L 162.506455 331.159624 
L 167.823495 327.896738 
L 170.482015 326.427287 
L 173.140535 325.147613 
L 175.799055 323.734391 
L 186.433135 316.552713 
L 191.750175 313.776683 
L 194.408695 311.727449 
L 199.725735 308.410185 
L 207.701295 302.570812 
L 210.359815 301.437839 
L 213.018335 300.14745 
L 215.676855 298.131332 
L 218.335375 296.850299 
L 220.993895 295.736174 
L 226.310935 292.067038 
L 231.627975 288.649734 
L 234.286495 287.128386 
L 236.945015 285.303966 
L 239.603535 283.766989 
L 242.262055 281.929777 
L 244.920575 279.664737 
L 247.579095 278.165473 
L 250.237615 275.921828 
L 252.896135 274.314863 
L 255.554655 273.281052 
L 258.213175 271.843964 
L 263.530215 268.014755 
L 266.188735 266.595198 
L 268.847255 264.111057 
L 271.505775 262.293616 
L 274.164295 260.926335 
L 276.822815 258.93843 
L 279.481335 257.976943 
L 282.139855 255.660519 
L 284.798375 254.211504 
L 287.456895 252.923512 
L 290.115415 250.783467 
L 292.773935 249.549378 
L 300.749495 244.633186 
L 303.408015 243.539403 
L 308.725055 239.977456 
L 311.383575 238.440876 
L 319.359135 232.779082 
L 322.017655 231.363296 
L 327.334695 227.800562 
L 329.993215 225.633778 
L 332.651735 224.401495 
L 335.310255 222.165425 
L 337.968775 220.852411 
L 340.627295 219.196085 
L 343.285815 217.3349 
L 345.944335 216.364785 
L 351.261375 212.411252 
L 353.919895 210.669027 
L 356.578415 208.732386 
L 359.236935 207.28276 
L 361.895455 205.563214 
L 364.553975 204.160705 
L 367.212495 202.297942 
L 369.871015 201.253352 
L 372.529535 199.777668 
L 375.188055 197.571861 
L 377.846575 196.360211 
L 380.505095 194.72009 
L 383.163615 192.719426 
L 385.822135 191.607941 
L 391.139175 188.186195 
L 393.797695 186.648327 
L 396.456215 184.260463 
L 399.114735 182.817813 
L 401.773255 180.755344 
L 404.431775 179.071262 
L 407.090295 177.848526 
L 415.065855 171.826783 
L 417.724375 171.100938 
L 420.382895 170.110658 
L 423.041415 167.909426 
L 425.699935 166.028872 
L 431.016975 162.736789 
L 433.675495 161.743966 
L 436.334015 159.963041 
L 438.992535 157.237429 
L 441.651055 156.148343 
L 444.309575 154.698134 
L 446.968095 152.971064 
L 449.626615 150.593222 
L 454.943655 147.873093 
L 457.602175 145.635329 
L 460.260695 143.954163 
L 462.919215 142.956693 
L 465.577735 141.616033 
L 468.236255 139.415922 
L 473.553295 136.831861 
L 476.211815 134.250319 
L 478.870335 133.132184 
L 484.187375 129.048793 
L 486.845895 127.801026 
L 489.504415 125.979712 
L 494.821455 121.862225 
L 502.797015 116.99612 
L 505.455535 115.75395 
L 508.114055 113.477105 
L 510.772575 112.522378 
L 513.431095 110.921859 
L 516.089615 108.945957 
L 518.748135 107.493089 
L 521.406655 104.867217 
L 524.065175 103.395112 
L 526.723695 101.730281 
L 529.382215 100.502446 
L 534.699255 96.59164 
L 537.357775 96.067378 
L 540.016295 94.379855 
L 542.674815 92.379303 
L 545.333335 91.25348 
L 547.991855 89.262102 
L 550.650375 87.824909 
L 555.967415 84.084336 
L 558.625935 82.823923 
L 561.284455 80.532177 
L 563.942975 78.587388 
L 566.601495 77.194301 
L 569.260015 75.415464 
L 571.918535 73.944129 
L 574.577055 71.824943 
L 577.235575 70.128689 
L 579.894095 68.730072 
L 582.552615 67.094546 
L 585.211135 65.750459 
L 587.869655 64.169963 
L 590.528175 62.41038 
L 593.186695 61.343948 
L 603.820775 54.847098 
L 606.479295 53.763535 
L 609.137815 52.33688 
L 611.796335 51.103222 
L 614.454855 49.15714 
L 617.113375 47.359368 
L 619.771895 45.770539 
L 622.430415 44.544547 
L 625.088935 42.890654 
L 627.747455 41.483596 
L 633.064495 37.407076 
L 635.723015 35.940586 
L 638.381535 34.151401 
L 641.040055 31.918155 
L 646.357095 29.796413 
L 651.674135 25.922816 
L 654.332655 24.567783 
L 656.991175 22.644911 
L 659.649695 21.506304 
L 662.308215 19.757204 
L 664.966735 18.156822 
L 667.625255 16.010361 
L 670.283775 14.751515 
L 672.942295 12.926087 
L 675.600815 11.810174 
L 678.259335 10.105395 
L 680.917855 8.549057 
L 683.576375 6.593368 
L 686.234895 4.901918 
L 691.551935 1.03418 
L 694.922804 -1 
L 694.922804 -1 
" clip-path="url(#p7c180aa1d7)" style="fill: none; stroke: #0000ff; stroke-width: 1.5; stroke-linecap: square"/>
   </g>
   <g id="line2d_31">
    <path d="M 85.409375 360.395303 
L 90.726415 358.820822 
L 96.043455 356.181276 
L 98.701975 355.39822 
L 101.360495 354.474074 
L 104.019015 353.206382 
L 111.994575 349.899395 
L 114.653095 348.069071 
L 117.311615 346.621532 
L 122.628655 343.375015 
L 125.287175 341.397647 
L 127.945695 339.179761 
L 133.262735 335.19882 
L 135.921255 333.010575 
L 138.579775 331.632151 
L 143.896815 327.498945 
L 146.555335 325.673187 
L 149.213855 323.548583 
L 151.872375 321.925649 
L 154.530895 321.229702 
L 165.164975 321.913424 
L 181.116095 322.811152 
L 202.384255 323.592156 
L 215.676855 323.764938 
L 231.627975 323.640767 
L 252.896135 323.110211 
L 266.188735 322.512612 
L 274.164295 322.035866 
L 276.822815 321.835582 
L 279.481335 321.42669 
L 284.798375 320.997362 
L 287.456895 320.728972 
L 290.115415 320.230174 
L 292.773935 319.988631 
L 298.090975 319.066854 
L 303.408015 318.437172 
L 308.725055 317.368824 
L 311.383575 316.960505 
L 314.042095 316.102423 
L 316.700615 315.529848 
L 322.017655 314.105071 
L 324.676175 312.901929 
L 327.334695 312.384399 
L 329.993215 311.022889 
L 332.651735 310.171055 
L 335.310255 309.899337 
L 340.627295 307.742076 
L 343.285815 306.999222 
L 345.944335 306.425268 
L 348.602855 305.633629 
L 353.919895 304.430354 
L 356.578415 304.019937 
L 364.553975 302.248934 
L 369.871015 299.574727 
L 372.529535 298.828882 
L 375.188055 297.864046 
L 377.846575 297.132718 
L 380.505095 295.900461 
L 383.163615 294.797735 
L 385.822135 294.23621 
L 388.480655 293.388319 
L 391.139175 291.841828 
L 393.797695 290.535884 
L 396.456215 289.404256 
L 399.114735 288.712463 
L 401.773255 287.085728 
L 404.431775 286.096422 
L 407.090295 284.950787 
L 409.748815 284.272744 
L 412.407335 283.030964 
L 417.724375 281.908633 
L 420.382895 281.118765 
L 423.041415 280.147599 
L 428.358455 278.538229 
L 433.675495 276.375776 
L 436.334015 275.592077 
L 438.992535 274.517951 
L 441.651055 273.183352 
L 446.968095 271.557835 
L 452.285135 270.009366 
L 454.943655 269.65189 
L 457.602175 268.30296 
L 460.260695 267.719858 
L 462.919215 266.924641 
L 470.894775 263.741266 
L 473.553295 263.15724 
L 476.211815 262.326569 
L 478.870335 261.616042 
L 481.528855 260.698283 
L 489.504415 258.480166 
L 492.162935 258.000179 
L 494.821455 256.762096 
L 497.479975 255.782978 
L 500.138495 254.481159 
L 502.797015 253.975168 
L 505.455535 253.002846 
L 508.114055 252.397806 
L 510.772575 252.025101 
L 516.089615 250.11635 
L 521.406655 248.580442 
L 524.065175 247.593156 
L 529.382215 246.300885 
L 532.040735 244.940282 
L 534.699255 244.0178 
L 537.357775 243.431322 
L 540.016295 242.325066 
L 542.674815 241.450053 
L 545.333335 240.202887 
L 553.308895 238.213298 
L 555.967415 237.336966 
L 558.625935 236.258497 
L 561.284455 235.722262 
L 566.601495 233.912319 
L 569.260015 233.28281 
L 571.918535 232.135151 
L 577.235575 230.07764 
L 579.894095 228.844183 
L 585.211135 226.93744 
L 587.869655 226.308618 
L 590.528175 225.258945 
L 593.186695 223.695541 
L 598.503735 222.183953 
L 601.162255 221.043283 
L 603.820775 220.547289 
L 606.479295 219.091582 
L 609.137815 218.137794 
L 611.796335 216.675947 
L 614.454855 215.688012 
L 617.113375 214.421617 
L 619.771895 212.80887 
L 622.430415 211.50011 
L 625.088935 210.531667 
L 630.405975 208.957846 
L 635.723015 206.886121 
L 638.381535 206.103488 
L 641.040055 204.842327 
L 643.698575 204.439184 
L 646.357095 203.14908 
L 649.015615 202.117542 
L 651.674135 200.778143 
L 654.332655 199.718703 
L 656.991175 198.311225 
L 659.649695 197.341494 
L 662.308215 196.227983 
L 664.966735 194.475967 
L 667.625255 193.295886 
L 670.283775 191.566645 
L 672.942295 190.859714 
L 678.259335 188.148193 
L 680.917855 186.791642 
L 683.576375 185.726699 
L 686.234895 184.935268 
L 688.893415 183.499372 
L 691.551935 182.592291 
L 694.210455 181.534123 
L 699.527495 179.598081 
L 702.186015 178.30815 
L 704.844535 176.423856 
L 712.820095 174.28761 
L 715.478615 172.444402 
L 720.795655 170.311216 
L 723.454175 168.248272 
L 726.112695 166.929802 
L 728.771215 166.265522 
L 731.429735 164.863195 
L 734.088255 163.754678 
L 736.746775 162.239568 
L 742.063815 160.703033 
L 747.380855 157.402152 
L 750.039375 156.446595 
L 752.697895 155.649664 
L 758.014935 153.346213 
L 760.673455 152.569547 
L 763.331975 151.128206 
L 765.990495 149.892433 
L 768.649015 149.319553 
L 771.307535 148.600267 
L 773.966055 147.338245 
L 779.283095 145.32659 
L 784.600135 142.702279 
L 787.258655 140.942079 
L 789.917175 139.44337 
L 795.234215 137.976418 
L 796.414375 137.388529 
L 796.414375 137.388529 
" clip-path="url(#p7c180aa1d7)" style="fill: none; stroke: #00ff00; stroke-width: 1.5; stroke-linecap: square"/>
   </g>
   <g id="patch_3">
    <path d="M 85.409375 381.757656 
L 85.409375 18.597656 
" style="fill: none; stroke: #000000; stroke-width: 0.8; stroke-linejoin: miter; stroke-linecap: square"/>
   </g>
   <g id="patch_4">
    <path d="M 750.039375 381.757656 
L 750.039375 18.597656 
" style="fill: none; stroke: #000000; stroke-width: 0.8; stroke-linejoin: miter; stroke-linecap: square"/>
   </g>
   <g id="patch_5">
    <path d="M 85.409375 381.757656 
L 750.039375 381.757656 
" style="fill: none; stroke: #000000; stroke-width: 0.8; stroke-linejoin: miter; stroke-linecap: square"/>
   </g>
   <g id="patch_6">
    <path d="M 85.409375 18.597656 
L 750.039375 18.597656 
" style="fill: none; stroke: #000000; stroke-width: 0.8; stroke-linejoin: miter; stroke-linecap: square"/>
   </g>
   <g id="legend_1">
    <g id="patch_7">
     <path d="M 92.409375 196.769531 
L 153.78125 196.769531 
Q 155.78125 196.769531 155.78125 194.769531 
L 155.78125 25.597656 
Q 155.78125 23.597656 153.78125 23.597656 
L 92.409375 23.597656 
Q 90.409375 23.597656 90.409375 25.597656 
L 90.409375 194.769531 
Q 90.409375 196.769531 92.409375 196.769531 
z
" style="fill: #ffffff; opacity: 0.8; stroke: #cccccc; stroke-linejoin: miter"/>
    </g>
    <g id="line2d_32">
     <path d="M 94.409375 46.892969 
L 104.409375 46.892969 
L 114.409375 46.892969 
" style="fill: none; stroke: #ff0000; stroke-width: 1.5; stroke-linecap: square"/>
    </g>
    <g id="text_16">
     <!-- I -->
     <g transform="translate(122.409375 50.392969) scale(0.3 -0.3)">
      <defs>
       <path id="DejaVuSans-49" d="M 628 4666 
L 1259 4666 
L 1259 0 
L 628 0 
L 628 4666 
z
" transform="scale(0.015625)"/>
      </defs>
      <use xlink:href="#DejaVuSans-49"/>
     </g>
    </g>
    <g id="line2d_33">
     <path d="M 94.409375 80.927344 
L 104.409375 80.927344 
L 114.409375 80.927344 
" style="fill: none; stroke: #ffff00; stroke-width: 1.5; stroke-linecap: square"/>
    </g>
    <g id="text_17">
     <!-- II -->
     <g transform="translate(122.409375 84.427344) scale(0.3 -0.3)">
      <use xlink:href="#DejaVuSans-49"/>
      <use xlink:href="#DejaVuSans-49" transform="translate(29.492188 0)"/>
     </g>
    </g>
    <g id="line2d_34">
     <path d="M 94.409375 114.961719 
L 104.409375 114.961719 
L 114.409375 114.961719 
" style="fill: none; stroke: #00bfff; stroke-width: 1.5; stroke-linecap: square"/>
    </g>
    <g id="text_18">
     <!-- III -->
     <g transform="translate(122.409375 118.461719) scale(0.3 -0.3)">
      <use xlink:href="#DejaVuSans-49"/>
      <use xlink:href="#DejaVuSans-49" transform="translate(29.492188 0)"/>
      <use xlink:href="#DejaVuSans-49" transform="translate(58.984375 0)"/>
     </g>
    </g>
    <g id="line2d_35">
     <path d="M 94.409375 148.996094 
L 104.409375 148.996094 
L 114.409375 148.996094 
" style="fill: none; stroke: #0000ff; stroke-width: 1.5; stroke-linecap: square"/>
    </g>
    <g id="text_19">
     <!-- IV -->
     <g transform="translate(122.409375 152.496094) scale(0.3 -0.3)">
      <defs>
       <path id="DejaVuSans-56" d="M 1831 0 
L 50 4666 
L 709 4666 
L 2188 738 
L 3669 4666 
L 4325 4666 
L 2547 0 
L 1831 0 
z
" transform="scale(0.015625)"/>
      </defs>
      <use xlink:href="#DejaVuSans-49"/>
      <use xlink:href="#DejaVuSans-56" transform="translate(29.492188 0)"/>
     </g>
    </g>
    <g id="line2d_36">
     <path d="M 94.409375 183.030469 
L 104.409375 183.030469 
L 114.409375 183.030469 
" style="fill: none; stroke: #00ff00; stroke-width: 1.5; stroke-linecap: square"/>
    </g>
    <g id="text_20">
     <!-- V -->
     <g transform="translate(122.409375 186.530469) scale(0.3 -0.3)">
      <use xlink:href="#DejaVuSans-56"/>
     </g>
    </g>
   </g>
  </g>
 </g>
 <defs>
  <clipPath id="p7c180aa1d7">
   <rect x="85.409375" y="18.597656" width="664.63" height="363.16"/>
  </clipPath>
 </defs>
</svg>
